SplineFontDB: 3.0
FontName: RoutedGothicNarrow-Italic
FullName: Routed Gothic Narrow Italic
FamilyName: Routed Gothic Narrow
Weight: Regular

StartChar: exclam
Encoding: 33 33 0
Width: 230
VWidth: 32
Flags: HW
HStem: 48 48<97.5248 132.875>
VStem: 96 38<49.9059 94.0941>
LayerCount: 2
Fore
SplineSet
58.9755520753 60.7606959671 m 0
 46.5101710127 32.2683963954 20.0565470129 0 -24 0 c 0
 -67.9484571286 0 -78.3050768321 33.0703387319 -78.3050768321 57.9286625636 c 0
 -78.3050768321 67.6486398675 -76.7216250314 76.1130598415 -74.9438005233 80.8539251962 c 0
 -74.6566495202 81.6196612047 -74.2183734887 82.6842836596 -73.9755520753 83.2393040329 c 0
 -61.5101710127 111.731603605 -35.0565470129 144 9 144 c 0
 52.9484571286 144 63.3050768321 110.929661268 63.3050768321 86.0713374364 c 0
 63.3050768321 76.3513601325 61.7216250314 67.8869401585 59.9438005233 63.1460748038 c 0
 59.6566495202 62.3803387953 59.2183734887 61.3157163404 58.9755520753 60.7606959671 c 0
266.398560466 732.333880642 m 0
 284.69538116 724.740700054 295.908749082 706.503027789 295.908749082 687.60574123 c 0
 295.908749082 681.562927377 294.762139395 675.452665445 292.333880642 669.601439534 c 2
 126.333880642 269.601439534 l 2
 118.740700054 251.30461884 100.503027789 240.091250918 81.6057412296 240.091250918 c 0
 75.5629273774 240.091250918 69.4526654449 241.237860605 63.6014395336 243.666119358 c 0
 45.3035338807 251.259750204 34.0913204448 269.497763351 34.0913204448 288.394339845 c 0
 34.0913204448 294.437254818 35.2379366193 300.547517722 37.6661193582 306.398560466 c 2
 203.666119358 706.398560466 l 2
 211.259750204 724.696466119 229.497763351 735.908679555 248.394339845 735.908679555 c 0
 254.437254818 735.908679555 260.547517722 734.762063381 266.398560466 732.333880642 c 0
EndSplineSet
EndChar

StartChar: quotedbl
Encoding: 34 34 1
Width: 307
VWidth: 32
Flags: HW
LayerCount: 2
Fore
SplineSet
368.340327896 732.358002352 m 0
 386.667357347 724.78048056 397.909266678 706.52558813 397.909266678 687.605929445 c 0
 397.909266678 681.583556109 396.770200825 675.49382655 394.358002352 669.659672104 c 2
 308.358002352 461.659672104 l 2
 300.78048056 443.332642653 282.52558813 432.090733322 263.605929445 432.090733322 c 0
 257.583556109 432.090733322 251.49382655 433.229799175 245.659672104 435.641997648 c 0
 227.331554578 443.219969317 216.090802741 461.475206497 216.090802741 480.394153462 c 0
 216.090802741 486.416626651 217.22987478 492.506356307 219.641997648 498.340327896 c 2
 305.641997648 706.340327896 l 2
 313.219969317 724.668445422 331.475206497 735.909197259 350.394153462 735.909197259 c 0
 356.416626651 735.909197259 362.506356307 734.77012522 368.340327896 732.358002352 c 0
240.340327896 732.358002352 m 0
 258.667357347 724.78048056 269.909266678 706.52558813 269.909266678 687.605929445 c 0
 269.909266678 681.583556109 268.770200825 675.49382655 266.358002352 669.659672104 c 2
 180.358002352 461.659672104 l 2
 172.78048056 443.332642653 154.52558813 432.090733322 135.605929445 432.090733322 c 0
 129.583556109 432.090733322 123.49382655 433.229799175 117.659672104 435.641997648 c 0
 99.3315545779 443.219969317 88.0908027413 461.475206497 88.0908027413 480.394153462 c 0
 88.0908027413 486.416626651 89.2298747796 492.506356307 91.6419976478 498.340327896 c 2
 177.641997648 706.340327896 l 2
 185.219969317 724.668445422 203.475206497 735.909197259 222.394153462 735.909197259 c 0
 228.416626651 735.909197259 234.506356307 734.77012522 240.340327896 732.358002352 c 0
EndSplineSet
EndChar

StartChar: numbersign
Encoding: 35 35 2
Width: 537
VWidth: 32
Flags: HW
LayerCount: 2
Fore
SplineSet
110.287373209 7.46778042734 m 0
 96.0208099199 16.5181315136 88.1553157964 32.315303482 88.1553157964 48.3181590318 c 0
 88.1553157964 57.0790949174 90.5127090966 65.9016769105 95.4677804273 73.7126267914 c 2
 200.956332807 240 l 1
 173.643667193 240 l 1
 35.5322195727 22.2873732086 l 2
 26.4814251939 8.02011113364 10.6843062158 0.155377404527 -5.31798724652 0.155377404527 c 0
 -14.0791967411 0.155377404527 -22.9019079213 2.51285564412 -30.7126267914 7.46778042734 c 0
 -44.9791900801 16.5181315136 -52.8446842036 32.315303482 -52.8446842036 48.3181590318 c 0
 -52.8446842036 57.0790949174 -50.4872909034 65.9016769105 -45.5322195727 73.7126267914 c 2
 59.9563328065 240 l 1
 56 240 l 2
 29.8536339246 240 8 261.855528292 8 288 c 0
 8 314.144471708 29.8536339246 336 56 336 c 2
 120.856332807 336 l 1
 161.456332807 400 l 1
 123 400 l 2
 96.8536339246 400 75 421.855528292 75 448 c 0
 75 474.144471708 96.8536339246 496 123 496 c 2
 222.356332807 496 l 1
 360.467780427 713.712626791 l 2
 369.518131514 727.97919008 385.315303482 735.844684204 401.318159032 735.844684204 c 0
 410.079094917 735.844684204 418.90167691 733.487290903 426.712626791 728.532219573 c 0
 440.979888866 719.481425194 448.844622595 703.684306216 448.844622595 687.682012753 c 0
 448.844622595 678.920803259 446.487144356 670.098092079 441.532219573 662.287373209 c 2
 336.043667193 496 l 1
 363.356332807 496 l 1
 501.467780427 713.712626791 l 2
 510.518131514 727.97919008 526.315303482 735.844684204 542.318159032 735.844684204 c 0
 551.079094917 735.844684204 559.90167691 733.487290903 567.712626791 728.532219573 c 0
 581.979888866 719.481425194 589.844622595 703.684306216 589.844622595 687.682012753 c 0
 589.844622595 678.920803259 587.487144356 670.098092079 582.532219573 662.287373209 c 2
 477.043667193 496 l 1
 481 496 l 2
 507.144471708 496 529 474.146366075 529 448 c 0
 529 421.853633925 507.144471708 400 481 400 c 2
 416.143667193 400 l 1
 375.543667193 336 l 1
 415 336 l 2
 441.144471708 336 463 314.146366075 463 288 c 0
 463 261.853633925 441.144471708 240 415 240 c 2
 314.643667193 240 l 1
 176.532219573 22.2873732086 l 2
 167.481425194 8.02011113364 151.684306216 0.155377404527 135.682012753 0.155377404527 c 0
 126.920803259 0.155377404527 118.098092079 2.51285564412 110.287373209 7.46778042734 c 0
275.143667193 400 m 1
 234.543667193 336 l 1
 261.856332807 336 l 1
 302.456332807 400 l 1
 275.143667193 400 l 1
EndSplineSet
EndChar

StartChar: dollar
Encoding: 36 36 3
Width: 403
VWidth: 32
Flags: HW
LayerCount: 2
Fore
SplineSet
388.088800632 489.298410085 m 0
 384.493575916 488.444761844 380.915012761 488.041165687 377.400348715 488.041165687 c 0
 355.473687187 488.041165687 336.034005071 503.749292924 330.551038659 523.885596484 c 0
 330.025801704 525.414541524 329.037841718 529.683898778 325.144198564 533.89801625 c 1
 274.065796515 410.538856583 l 1
 317.544419215 388.705748529 330.776820963 352.28694843 330.776820963 317.027685424 c 0
 330.776820963 290.115927296 323.068205907 263.879664461 315.215965387 245.319823233 c 0
 286.945634247 178.308667939 225.840601318 114.432784934 145.21256069 99.3461361009 c 1
 116.348585788 29.636913697 l 2
 108.764937112 11.3216867054 90.5167705011 0.0909355452831 71.6058545066 0.0909355452831 c 0
 65.5754944871 0.0909355452831 59.4777421048 1.232946199 53.636913697 3.65141421163 c 0
 35.320599848 11.2355129147 24.0910050071 29.4840227632 24.0910050071 48.3942276852 c 0
 24.0910050071 54.4246880523 25.2330219635 60.5224408735 27.6514142116 66.363086303 c 2
 46.232469847 111.238088592 l 1
 -8.56045231829 141.61484997 -20.1199832385 206.817143935 -20.1199832385 206.817143935 c 1
 -20.6561305422 209.830200201 -20.9143552329 212.813497591 -20.9143552329 215.742780475 c 0
 -20.9143552329 238.653264759 -5.11848064345 258.259625129 17.0491815494 262.957227475 c 0
 20.3472888341 263.656137283 23.6506211994 263.993704485 26.915066132 263.993704485 c 0
 48.4036476837 263.993704485 68.2072052948 249.366644324 73.7435266902 226.893982556 c 0
 74.9818369496 221.876234194 78.3990095471 212.27179131 84.8104875685 204.407640825 c 1
 145.202248487 350.25944078 l 1
 106.408019625 372.797987679 89.0199747208 411.67743033 89.0199747208 448.684006006 c 0
 89.0199747208 453.698108463 89.3391868318 458.677828572 89.9676163972 463.577861702 c 0
 92.1931280138 480.930770053 96.8669117129 496.076021042 102.586207716 510.20604646 c 0
 128.729468039 573.18753724 192.974229453 625.673929981 264.139553748 637.504253484 c 1
 292.651414212 706.363086303 l 2
 300.235512915 724.679400152 318.484022763 735.908994993 337.394227685 735.908994993 c 0
 343.424688052 735.908994993 349.522440873 734.766978037 355.363086303 732.348585788 c 0
 373.678313295 724.764937112 384.909064455 706.516770501 384.909064455 687.605854507 c 0
 384.909064455 681.575494487 383.767053801 675.477742105 381.348585788 669.636913697 c 2
 362.472268361 624.048826325 l 1
 409.125388512 598.920394915 422.454570199 552.340836763 423.882922201 546.325189833 c 0
 424.517176651 543.202690733 424.825444767 540.039991866 424.825444767 536.886131577 c 0
 424.825444767 515.582087493 410.759535515 494.6813373 388.088800632 489.298410085 c 0
205.616945231 496.166632916 m 2
 199.499952727 488.89285143 194.595814982 481.305320707 191.416548088 473.8012576 c 0
 188.120907736 465.563541992 186.04381864 458.04113538 185.187716415 451.365877726 c 0
 184.807343045 448.400004994 184.221369337 445.835650475 183.848859866 443.594653166 c 2
 205.616945231 496.166632916 l 2
206.731719448 247.920708197 m 2
 214.728732047 258.546047625 221.542322482 270.255377641 226.774520274 282.657624259 c 0
 234.701278319 301.393597821 237.728562812 311.218791443 237.728562812 316.756034963 c 0
 237.728562812 318.472760239 237.437579829 319.777327188 236.911405773 320.80749781 c 2
 206.731719448 247.920708197 l 2
EndSplineSet
EndChar

StartChar: percent
Encoding: 37 37 5
Width: 691
VWidth: 32
Flags: HW
HStem: 48 240<439.922 558.478> 448 240<132.722 251.278>
VStem: 90 205<500.907 635.093> 397 205<100.907 235.093>
LayerCount: 2
Fore
SplineSet
563.426253898 149.825623405 m 0
 530.620751273 69.6343947664 451.223398785 0 367 0 c 0
 351.376662891 0 335.961517379 2.68074872939 321.674397081 8.48360511348 c 0
 274.25526062 27.7433602625 255.252546992 70.388916819 255.252546992 115.693138359 c 0
 255.252546992 139.45219865 260.478876627 163.942473434 269.573746102 186.174376595 c 0
 277.927565083 206.594822992 289.302634194 226.330711129 303.009292013 244.4065177 c 2
 108.488549513 16.8136928378 l 2
 99.1082878711 5.83861523081 85.5127281531 0.188090387775 71.8710575461 0.188090387775 c 0
 60.8076257337 0.188090387775 49.7138656187 3.90458406303 40.8136928378 11.5114504867 c 0
 29.8390582137 20.8913335169 24.1880646014 34.4870966738 24.1880646014 48.1292570665 c 0
 24.1880646014 59.1922932544 27.9043339197 70.285841709 35.5114504867 79.1863071622 c 2
 367.573861458 467.70539861 l 2
 328.838454046 427.439633625 277.870085738 400 225 400 c 0
 209.376662891 400 193.961517379 402.680748729 179.674397081 408.483605113 c 0
 132.25526062 427.743360262 113.252546992 470.388916819 113.252546992 515.693138359 c 0
 113.252546992 539.45219865 118.478876627 563.942473434 127.573746102 586.174376595 c 0
 160.531563307 666.737929763 241.012165718 736 325 736 c 0
 340.621474664 736 356.046550687 733.320211629 370.344298553 727.474241381 c 0
 417.465504969 708.207628672 435.963539162 665.976602676 435.963539162 621.214279868 c 0
 435.963539162 597.086872876 430.589242345 572.224039609 421.426253898 549.825623405 c 0
 413.072434917 529.405177008 401.697365806 509.669288871 387.990707987 491.5934823 c 2
 582.511450487 719.186307162 l 2
 591.891333517 730.160941786 605.487096674 735.811935399 619.129257067 735.811935399 c 0
 630.192293254 735.811935399 641.285841709 732.09566608 650.186307162 724.488549513 c 0
 661.161384769 715.108287871 666.811909612 701.512728153 666.811909612 687.871057546 c 0
 666.811909612 676.807625734 663.095415937 665.713865619 655.488549513 656.813692838 c 2
 323.426138542 268.29460139 l 2
 362.161545954 308.560366375 413.129914262 336 466 336 c 1
 481.623337109 336 497.038482621 333.319251271 511.325602919 327.516394887 c 0
 558.74473938 308.256639738 577.747453008 265.611083181 577.747453008 220.306861641 c 0
 577.747453008 196.54780135 572.521123373 172.057526566 563.426253898 149.825623405 c 0
474.573746102 186.174376595 m 0
 480.75932303 201.294675751 482.797252844 212.200887347 482.797252844 220.007224778 c 0
 482.797252844 234.780011466 475.498991062 238.45148692 475.200279586 238.572811565 c 0
 473.61600613 239.216280028 470.794573339 240 466 240 c 0
 436.223398785 240 379.620751273 201.634394766 358.426253898 149.825623405 c 0
 352.24067697 134.705324249 350.202747156 123.799112653 350.202747156 115.992775222 c 0
 350.202747156 101.219988534 357.501008938 97.5485130796 357.799720414 97.4271884349 c 0
 359.38399387 96.7837199719 362.205426661 96 367 96 c 0
 396.776601215 96 453.379248727 134.365605234 474.573746102 186.174376595 c 0
332.573746102 586.174376595 m 0
 338.966438063 601.800956943 341.037960277 612.92350982 341.037960277 620.776855465 c 0
 341.037960277 635.239903318 334.01209502 638.614965071 334.01209502 638.614965071 c 2
 332.543781236 639.21531967 329.796435784 640 325 640 c 0
 294.987834282 640 237.468436693 601.262070237 216.426253898 549.825623405 c 0
 210.24067697 534.705324249 208.202747156 523.799112653 208.202747156 515.992775222 c 0
 208.202747156 501.219988534 215.501008938 497.54851308 215.799720414 497.427188435 c 0
 217.38399387 496.783719972 220.205426661 496 225 496 c 0
 254.776601215 496 311.379248727 534.365605234 332.573746102 586.174376595 c 0
EndSplineSet
EndChar

StartChar: ampersand
Encoding: 38 38 6
Width: 627
VWidth: 32
Flags: HW
LayerCount: 2
Fore
SplineSet
327.350239342 455.438055641 m 1
 391.383870823 463.860934408 450.724869656 515.339687176 473.692307692 570.461538462 c 0
 479.811015023 585.146436056 482.641220995 596.914765849 482.641220995 606.441064062 c 0
 482.641220995 623.647753221 473.407764142 633.53988575 457.641479317 640.092347828 c 0
 447.214019341 644.425996294 430.999793847 648 408 648 c 0
 309.082701454 648 247.552662079 583.376115982 226.311239225 533.545937047 c 0
 217.031855253 510.618934861 213.757147812 495.957479637 213.757147812 486.384958518 c 0
 213.757147812 471.543204908 221.629241884 468.934778619 227.198430849 466.719972997 c 0
 233.372956688 464.264431512 243.964115611 462 259 462 c 0
 282.613030083 462 305.694971441 459.839384408 327.350239342 455.438055641 c 1
577.042918404 396.889332029 m 0
 581.65666102 389.281194475 583.753521674 380.961450836 583.753521674 372.760342462 c 0
 583.753521674 356.308130671 575.314870172 340.333357213 561.828557454 331.538873327 c 0
 559.903267251 330.343556762 533.86567626 314.117053515 497.33837796 278.302184127 c 1
 499.2952121 264.734552494 500.258917699 250.61293121 500.258917699 235.978101299 c 0
 500.258917699 175.115694859 483.591540516 105.377297912 452.373052853 29.6961156983 c 0
 444.804911582 11.349106556 426.538912857 0.0904790181351 407.60596908 0.0904790181351 c 0
 401.596280986 0.0904790181351 395.519394693 1.22484456184 389.696115698 3.6269471473 c 0
 371.350196581 11.1946387832 360.090409667 29.4602903319 360.090409667 48.3939468691 c 0
 360.090409667 54.4035359028 361.224769213 60.4804226431 363.626947147 66.3038843017 c 0
 375.284909722 94.5656117546 384.187452842 120.775663559 390.639721416 144.825300263 c 1
 301.103420977 22.0783860863 200.394213333 -7.99999972587 117 -8 c 0
 90.8178138584 -8 66.596835527 -3.91668854593 44.9022993062 5.01759365823 c 0
 -16.6068937855 30.3484181404 -39.2023683361 83.1283957961 -39.2023683361 139.572498125 c 0
 -39.2023683361 174.330778892 -30.6339453077 210.478531261 -17.3076923077 242.461538462 c 0
 16.9661743159 324.718818358 76.8823553531 384.589735088 137.862726519 420.897907303 c 1
 125.65491404 440.39026036 120.196086587 463.610660658 120.196086587 488.280859632 c 0
 120.196086587 514.925016244 126.563426253 543.260261409 137.672816077 570.416547645 c 0
 171.03923644 649.507321839 263.17158552 744 408 744 c 0
 440.54442384 744 469.376706745 739.175836275 494.483941859 728.741278751 c 0
 553.509482048 704.210286321 576.695871637 654.530559654 576.695871637 603.886654973 c 0
 576.695871637 579.786886583 571.445325234 555.468780561 562.307692308 533.538461538 c 0
 539.31664438 478.359946513 496.356053173 428.818677949 441.546220884 396.117933487 c 1
 448.257058231 389.223554751 454.369190042 381.949723571 459.894537665 374.312963269 c 1
 489.012561419 399.474458704 508.859813581 411.677952997 511.782236467 413.450174768 c 0
 519.121796276 417.578811071 527.427810608 419.626442339 535.738085899 419.626442339 c 0
 551.810841056 419.626442339 567.89953507 411.966921724 577.042918404 396.889332029 c 0
390.587329556 304.842932834 m 1
 380.582564917 324.900513584 365.396799997 338.575301861 346.176251156 348.424411001 c 0
 325.480175584 359.029618414 297.139480451 365.75048326 261.029912175 365.993193348 c 0
 215.919260281 361.38563571 113.360757202 306.465820626 71.3076923077 205.538461538 c 0
 60.0722867776 178.573488266 55.5799612579 157.284741354 55.5799612579 140.745436146 c 0
 55.5799612579 113.901531262 67.4138662388 99.5688394677 81.4586113028 93.784907762 c 0
 89.2486758782 90.5767896167 100.774891309 88 117 88 c 0
 179.12012741 88 248.012466977 102.59884232 325.013590347 218.55347516 c 0
 347.263391699 252.059058372 369.549236518 280.680943716 390.587329556 304.842932834 c 1
EndSplineSet
EndChar

StartChar: quotesingle
Encoding: 39 39 7
Width: 179
VWidth: 0
Flags: HW
LayerCount: 2
Fore
SplineSet
240.340327896 732.358002352 m 0
 258.667357347 724.78048056 269.909266678 706.52558813 269.909266678 687.605929445 c 0
 269.909266678 681.583556109 268.770200825 675.49382655 266.358002352 669.659672104 c 2
 180.358002352 461.659672104 l 2
 172.78048056 443.332642653 154.52558813 432.090733322 135.605929445 432.090733322 c 0
 129.583556109 432.090733322 123.49382655 433.229799175 117.659672104 435.641997648 c 0
 99.3315545779 443.219969317 88.0908027413 461.475206497 88.0908027413 480.394153462 c 0
 88.0908027413 486.416626651 89.2298747796 492.506356307 91.6419976478 498.340327896 c 2
 177.641997648 706.340327896 l 2
 185.219969317 724.668445422 203.475206497 735.909197259 222.394153462 735.909197259 c 0
 228.416626651 735.909197259 234.506356307 734.77012522 240.340327896 732.358002352 c 0
EndSplineSet
EndChar

StartChar: parenleft
Encoding: 40 40 8
Width: 275
VWidth: 32
Flags: HW
LayerCount: 2
Fore
SplineSet
384.619804299 802.259433137 m 0
 394.167645255 792.889851828 398.639096367 780.599408512 398.639096367 768.384488432 c 0
 398.639096367 756.173518777 394.170537009 744.038023517 385.837770283 734.971481651 c 0
 383.35003675 732.427962007 225.432967254 569.757498918 134.352807956 349.647113949 c 0
 75.000392073 206.212108898 64.7388952876 89.7982360751 64.7388952876 26.4073282701 c 0
 64.7388952876 -5.8792100069 67.4008443264 -24.4109877734 67.5944222875 -25.7525244614 c 0
 67.8353433948 -27.7522969036 67.9526540454 -29.7359319984 67.9526540454 -31.6960283717 c 0
 67.9526540454 -55.5117362974 50.6341815577 -75.852442612 27.2974175855 -79.4420456619 c 0
 24.8540187415 -79.817883201 22.4188075271 -80.0009175201 20.0085593014 -80.0009175201 c 0
 -2.49858075092 -80.0009175201 -22.8289451998 -64.0403029103 -27.3226363925 -40.0737283064 c 0
 -27.7239426488 -37.4647519782 -31.2738837615 -13.8090610509 -31.2738837615 26.3974888121 c 0
 -31.2738837615 100.052490389 -19.3605853685 229.250757305 45.6471920437 386.352886051 c 0
 145.730052663 628.219799213 313.260378334 798.073404531 317.290709483 802.180414177 c 0
 326.456145564 810.928354307 338.905647535 815.652168348 351.435538844 815.652168348 c 0
 363.340289238 815.652168348 375.317607513 811.387956491 384.619804299 802.259433137 c 0
EndSplineSet
EndChar

StartChar: parenright
Encoding: 41 41 9
Width: 275
VWidth: 32
Flags: HW
LayerCount: 2
Fore
SplineSet
222.702582415 815.442045662 m 0
 225.103124879 815.811291139 227.480482813 815.98914693 229.822485432 815.98914693 c 0
 253.275298196 815.98914693 273.182673301 798.153735594 277.322636392 776.073728306 c 0
 277.771168634 773.157725923 281.279036272 749.522135813 281.279036272 709.563220624 c 0
 281.279036272 635.892338467 269.355431848 506.736788355 204.352807956 349.647113949 c 0
 104.027826004 107.19507423 -65.0670723397 -62.9121643177 -68.3940816403 -66.2820540761 c 0
 -78.0693952696 -75.4609723592 -90.1788143064 -79.9225689728 -102.14879506 -79.9225689728 c 0
 -114.408048514 -79.9225689728 -126.521042775 -75.2427242277 -135.723108093 -66.1577513977 c 0
 -145.080336222 -56.9195901392 -149.915231926 -44.606336845 -149.915231926 -32.1359333241 c 0
 -149.915231926 -20.3688641537 -145.610335476 -8.46187149898 -136.737938564 1.13349875824 c 0
 -134.960544012 2.93982048716 24.4324067973 165.917155039 115.647192044 386.352886051 c 0
 174.995824042 529.778746713 185.262957153 646.16875478 185.262957153 709.57148535 c 0
 185.262957153 741.638257642 182.636660598 760.151070626 182.405577712 761.752524461 c 0
 182.188142732 763.557349648 182.081536423 765.370964006 182.081536423 767.183590619 c 0
 182.081536423 789.507181243 198.250951142 811.680956494 222.702582415 815.442045662 c 0
EndSplineSet
EndChar

StartChar: asterisk
Encoding: 42 42 10
Width: 409
VWidth: 32
Flags: HW
LayerCount: 2
Fore
SplineSet
425.628665406 721.105782427 m 0
 436.328378301 711.73283393 441.810478813 698.330451503 441.810478813 684.890271654 c 0
 441.810478813 673.627528211 437.960793625 662.338242355 430.105782427 653.371334594 c 2
 390.360493322 608 l 1
 400 608 l 2
 426.144471708 608 448 586.146366075 448 560 c 0
 448 533.853633925 426.144471708 512 400 512 c 2
 334.359264186 512 l 1
 337.944799368 437.30135037 l 2
 339.198290819 411.186945148 318.41764778 388.308782907 292.30135037 387.055200632 c 0
 291.55032051 387.019151198 290.80196999 387.001325109 290.05673598 387.001325109 c 0
 264.887217341 387.001325109 243.272645261 407.335219854 242.055200632 432.69864963 c 2
 241.782021918 438.389872826 l 1
 211.105782427 403.371334594 l 2
 201.73283393 392.671621699 188.330451503 387.189521187 174.890271654 387.189521187 c 0
 163.627528211 387.189521187 152.338242355 391.039206375 143.371334594 398.894217573 c 0
 132.671197151 408.267537974 127.189543098 421.669710988 127.189543098 435.10940723 c 0
 127.189543098 446.372555096 131.039468274 457.662056616 138.894217573 466.628665406 c 2
 178.639506678 512 l 1
 169 512 l 2
 142.853633925 512 121 533.855528292 121 560 c 0
 121 586.144471708 142.853633925 608 169 608 c 2
 233.640735814 608 l 1
 230.055200632 682.69864963 l 2
 228.801618356 708.814947041 249.584244409 731.691307918 275.69864963 732.944799368 c 0
 276.44963933 732.980846874 277.197952644 732.998672059 277.943152247 732.998672059 c 0
 303.111016957 732.998672059 324.72726721 712.666603665 325.944799368 687.30135037 c 2
 326.269926134 680.527876091 l 1
 357.894217573 716.628665406 l 2
 367.267537974 727.328802849 380.669710988 732.810456902 394.10940723 732.810456902 c 0
 405.372555096 732.810456902 416.662056616 728.960531726 425.628665406 721.105782427 c 0
EndSplineSet
EndChar

StartChar: plus
Encoding: 43 43 11
Width: 512
VWidth: 192
Flags: HW
LayerCount: 2
Fore
SplineSet
477 368 m 0
 477 341.855528292 455.146366075 320 429 320 c 2
 288.137157393 320 l 1
 211.380292346 133.713675839 l 2
 203.817345673 115.358659196 185.546514782 104.090253792 166.606114345 104.090253792 c 0
 160.602683177 104.090253792 154.53198278 105.222349702 148.713675839 107.619707654 c 0
 130.357568232 115.183103844 119.090323109 133.454283082 119.090323109 152.393970256 c 0
 119.090323109 158.397500103 120.222424927 164.46819979 122.619707654 170.286324161 c 2
 184.307287051 320 l 1
 83 320 l 2
 56.8555282921 320 35 341.853633925 35 368 c 0
 35 394.146366075 56.8555282921 416 83 416 c 2
 223.862842607 416 l 1
 300.619707654 602.286324161 l 2
 308.183103844 620.642431768 326.454283082 631.909676891 345.393970256 631.909676891 c 0
 351.397500103 631.909676891 357.46819979 630.777575073 363.286324161 628.380292346 c 0
 381.641340804 620.817345673 392.909746208 602.546514782 392.909746208 583.606114345 c 0
 392.909746208 577.602683177 391.777650298 571.53198278 389.380292346 565.713675839 c 2
 327.692712949 416 l 1
 429 416 l 2
 455.146366075 416 477 394.144471708 477 368 c 0
EndSplineSet
EndChar

StartChar: comma
Encoding: 44 44 12
Width: 236
VWidth: 32
Flags: HW
LayerCount: 2
Fore
SplineSet
-66.5736680142 20.3807268246 m 1
 -75.3348699989 33.214036774 -78.8069446338 46.7236320226 -78.8069446338 59.0234686011 c 0
 -78.8069446338 66.9759133799 -77.3555293441 74.4226483409 -74.9438005233 80.8539251962 c 0
 -74.6566495202 81.6196612047 -74.2183734887 82.6842836596 -73.9755520753 83.2393040329 c 0
 -61.5101710127 111.731603605 -35.0565470129 144 9 144 c 0
 50.2073694749 144 65.5610019383 110.671662996 65.5610019383 79.1684398961 c 0
 65.5610019383 66.9474352886 63.2504540279 55.0010896669 59.2423425479 45.381622115 c 0
 37.1899262171 -6.50641631038 -22.4539879239 -83.2708246712 -23.5894717368 -84.7859569677 c 0
 -32.9155690334 -97.2302305486 -47.5188436629 -103.823354971 -62.2249641255 -103.823354971 c 0
 -72.242772344 -103.823354971 -82.3083044584 -100.763925401 -90.7859569677 -94.4105282632 c 0
 -103.230779958 -85.084019223 -109.823310506 -70.4808991359 -109.823310506 -55.7752999102 c 0
 -109.823310506 -45.7571469275 -106.763729066 -35.6914335628 -100.410528263 -27.2140430323 c 2
 -100.410528263 -27.2140430323 -84.4591434346 -5.93092117064 -66.5736680142 20.3807268246 c 1
EndSplineSet
EndChar

StartChar: hyphen
Encoding: 45 45 13
Width: 332
VWidth: 32
Flags: HW
LayerCount: 2
Fore
SplineSet
-27 264 m 0
 -27 290.144471708 -5.14636607536 312 21 312 c 2
 226 312 l 2
 252.144471708 312 274 290.146366075 274 264 c 0
 274 237.853633925 252.144471708 216 226 216 c 2
 21 216 l 2
 -5.14636607536 216 -27 237.855528292 -27 264 c 0
EndSplineSet
EndChar

StartChar: period
Encoding: 46 46 14
Width: 230
VWidth: 32
Flags: HW
HStem: 48 48<97.5248 132.875>
VStem: 96 38<49.9059 94.0941>
AnchorPoint: "above" -152 0 mark 0
LayerCount: 2
Fore
SplineSet
58.9755520753 60.7606959671 m 0
 46.5101710127 32.2683963954 20.0565470129 0 -24 0 c 0
 -67.9484571286 0 -78.3050768321 33.0703387319 -78.3050768321 57.9286625636 c 0
 -78.3050768321 67.6486398675 -76.7216250314 76.1130598415 -74.9438005233 80.8539251962 c 0
 -74.6566495202 81.6196612047 -74.2183734887 82.6842836596 -73.9755520753 83.2393040329 c 0
 -61.5101710127 111.731603605 -35.0565470129 144 9 144 c 0
 52.9484571286 144 63.3050768321 110.929661268 63.3050768321 86.0713374364 c 0
 63.3050768321 76.3513601325 61.7216250314 67.8869401585 59.9438005233 63.1460748038 c 0
 59.6566495202 62.3803387953 59.2183734887 61.3157163404 58.9755520753 60.7606959671 c 0
EndSplineSet
EndChar

StartChar: slash
Encoding: 47 47 15
Width: 460
VWidth: 32
Flags: HW
LayerCount: 2
Fore
SplineSet
-74.1863071622 11.5114504867 m 0
 -85.1609417863 20.8913335169 -90.8119353986 34.4870966738 -90.8119353986 48.1292570665 c 0
 -90.8119353986 59.1922932544 -87.0956660803 70.285841709 -79.4885495133 79.1863071622 c 2
 467.511450487 719.186307162 l 2
 476.891333517 730.160941786 490.487096674 735.811935399 504.129257067 735.811935399 c 0
 515.192293254 735.811935399 526.285841709 732.09566608 535.186307162 724.488549513 c 0
 546.161384769 715.108287871 551.811909612 701.512728153 551.811909612 687.871057546 c 0
 551.811909612 676.807625734 548.095415937 665.713865619 540.488549513 656.813692838 c 2
 -6.51145048667 16.8136928378 l 2
 -15.8917121289 5.83861523081 -29.4872718469 0.188090387775 -43.1289424539 0.188090387775 c 0
 -54.1923742663 0.188090387775 -65.2861343813 3.90458406303 -74.1863071622 11.5114504867 c 0
EndSplineSet
EndChar

StartChar: zero
Encoding: 48 48 16
Width: 537
VWidth: 32
Flags: HW
HStem: 40 656<200.583 337.017>
VStem: 70 397<233.016 502.984>
LayerCount: 2
Fore
SplineSet
511.343848595 349.625477101 m 0
 433.706985186 162.261846741 278.820390663 -8 133 -8 c 0
 113.109622671 -8 93.7269854896 -4.47304720797 75.9498292498 2.85208036826 c 0
 7.07642577681 31.2315613293 -20.8430050217 98.2758378688 -20.8430050217 179.206588857 c 0
 -20.8430050217 243.629436157 -3.15172526969 316.851513858 25.6561514046 386.374522899 c 0
 103.366680839 573.915933932 259.262047831 744 405 744 c 0
 424.931570104 744 444.353417094 740.458032857 462.155865876 733.085018113 c 0
 530.589675301 704.742653975 558.205118835 638.189728848 558.205118835 557.851325482 c 0
 558.205118835 493.132520934 540.283938776 419.467561403 511.343848595 349.625477101 c 0
422.656151405 386.374522899 m 0
 450.558920842 453.713206473 460.551005492 508.259784483 460.551005492 549.645958343 c 0
 460.551005492 605.494748903 442.355124229 637.378054815 425.422513115 644.390819909 c 0
 420.250000081 646.533054123 413.78421937 648 405 648 c 0
 330.737952169 648 186.633319161 524.084066068 114.343848595 349.625477101 c 0
 86.6739257103 282.848729872 76.7333108888 228.625703347 76.7333108888 187.344562346 c 0
 76.7333108888 130.958138311 95.2796829044 98.7176074458 112.523676069 91.6121712246 c 0
 117.744450143 89.4609364813 124.234915144 88 133 88 c 0
 207.179609337 88 350.293014814 211.738153259 422.656151405 386.374522899 c 0
EndSplineSet
EndChar

StartChar: one
Encoding: 49 49 17
Width: 281
VWidth: 0
Flags: HW
LayerCount: 2
Fore
SplineSet
291.363086303 732.348585788 m 0
 309.678313295 724.764937112 320.909064455 706.516770501 320.909064455 687.605854507 c 0
 320.909064455 681.575494487 319.767053801 675.477742105 317.348585788 669.636913697 c 2
 52.3485857884 29.636913697 l 2
 44.7649371122 11.3216867054 26.5167705011 0.0909355452831 7.60585450658 0.0909355452831 c 0
 1.57549448711 0.0909355452831 -4.52225789515 1.232946199 -10.363086303 3.65141421163 c 0
 -28.679400152 11.2355129147 -39.9089949929 29.4840227632 -39.9089949929 48.3942276852 c 0
 -39.9089949929 54.4246880523 -38.7669780365 60.5224408735 -36.3485857884 66.363086303 c 2
 228.651414212 706.363086303 l 2
 236.235512915 724.679400152 254.484022763 735.908994993 273.394227685 735.908994993 c 0
 279.424688052 735.908994993 285.522440873 734.766978037 291.363086303 732.348585788 c 0
EndSplineSet
EndChar

StartChar: two
Encoding: 50 50 18
Width: 537
VWidth: 32
Flags: HW
LayerCount: 2
Fore
SplineSet
153.744878572 491.6068638 m 0
 135.373703464 499.161365714 124.089976939 517.441391985 124.089976939 536.393774291 c 0
 124.089976939 542.386266993 125.218057104 548.44597787 127.6068638 554.255121428 c 0
 178.622171131 678.315073345 287.087672885 744 393 744 c 0
 416.552039314 744 438.943545328 740.167770877 459.300220326 731.855162624 c 0
 517.02157133 708.284762312 542.395435123 657.153828101 542.395435123 599.808556905 c 0
 542.395435123 570.376610647 535.71154432 539.307706368 523.286569294 509.487766305 c 0
 492.397198403 435.828497257 444.308275597 394.17548727 349.768115226 340.297761468 c 0
 181.538307651 244.41548772 112.235746716 208.18553866 51.5020232793 96 c 1
 303 96 l 2
 329.144471708 96 351 74.1463660754 351 48 c 0
 351 21.8536339246 329.144471708 0 303 0 c 2
 -24 0 l 2
 -28.1308090659 0 -34.0696902776 0.806878007977 -38.787288862 2.33451973195 c 0
 -59.0314125344 8.88992444345 -71.907248211 28.2265211213 -71.907248211 48.4288110769 c 0
 -71.907248211 54.4215337992 -70.7742672995 60.4904313022 -68.3645484715 66.3244874122 c 0
 12.7613921424 262.734659425 111.884620877 315.214160663 302.231884774 423.702238532 c 0
 393.691724403 475.82451273 413.602801597 496.171502743 434.713430706 546.512233695 c 0
 444.289153276 569.493967862 448.048242334 587.302028272 448.048242334 601.070581983 c 0
 448.048242334 626.189117893 435.537167762 637.86328769 423.008032531 642.979535453 c 0
 416.006153221 645.838739117 406.170368713 648 393 648 c 0
 326.912327115 648 253.377828869 607.684926655 216.3931362 517.744878572 c 0
 208.838184979 499.372610831 190.55780828 488.090046197 171.606140131 488.090046197 c 0
 165.613549427 488.090046197 159.553839725 489.218132111 153.744878572 491.6068638 c 0
EndSplineSet
EndChar

StartChar: three
Encoding: 51 51 19
Width: 537
VWidth: 32
Flags: HW
LayerCount: 2
Fore
SplineSet
20 202 m 0
 46.1444717079 202 68 180.146366075 68 154 c 0
 68 109.349769903 87.7374008594 88 131 88 c 0
 201.689286471 88 307.984420672 163.507999158 347.716165897 258.518694261 c 0
 360.393781861 288.834732435 366.009976658 316.118174751 366.023359237 337.366132259 c 0
 366.023359237 378.765581694 353.264499262 396 307 396 c 0
 293.209877889 396 259.778881687 387.190342363 236.110250591 377.547566731 c 0
 230.34389858 375.198312208 224.335163401 374.088762587 218.393303601 374.088762587 c 0
 212.037341771 374.088762587 205.757901535 375.3583555 199.933511186 377.738233015 c 0
 188.661563808 382.334256299 179.080953255 391.091097827 173.957329985 402.914842994 c 0
 173.886973604 403.077203873 173.817613871 403.239782514 173.74924752 403.402571571 c 0
 173.681182139 403.564408827 173.613953029 403.72680248 173.547566731 403.889749409 c 0
 171.198238201 409.656283075 170.088693609 415.665021594 170.088693609 421.606786546 c 0
 170.088693609 427.962865894 171.358368251 434.242306013 173.738289853 440.066637562 c 0
 178.334128519 451.338247998 187.090617979 460.918838758 198.914842994 466.042670015 c 0
 308.303332557 513.444348826 384.016224999 586.52001166 428.177783776 640 c 1
 225 640 l 2
 198.855528292 640 177 661.853633925 177 688 c 0
 177 714.146366075 198.855528292 736 225 736 c 2
 520 736 l 2
 523.464105427 736 533.108343033 734.614575686 538.971935403 732.091560043 c 0
 557.076289947 724.301528468 567.866667876 706.182296903 567.866667876 687.568058082 c 0
 567.866667876 680.123961717 566.140948936 672.60069821 562.467164697 665.627250447 c 0
 560.839789219 662.538223668 508.277052854 562.220140803 391.527783681 470.279925508 c 1
 437.115782679 443.076706301 462.023272097 393.190528026 462.023272097 337.227953984 c 0
 461.999779318 299.866596224 452.780182287 260.929094876 436.283834103 221.481305739 c 0
 384.015579328 96.4920008424 254.310713529 -8 131 -8 c 0
 34.2625991406 -8 -28 64.6502300972 -28 154 c 0
 -28 180.146366075 -6.14447170793 202 20 202 c 0
EndSplineSet
EndChar

StartChar: four
Encoding: 52 52 20
Width: 537
VWidth: 32
Flags: HW
LayerCount: 2
Fore
SplineSet
311.672948789 318 m 1
 419.988577081 579.592460779 l 1
 131.054531418 318 l 1
 311.672948789 318 l 1
481 270 m 0
 481 243.855528292 459.146366075 222 433 222 c 2
 375.827051211 222 l 1
 295.348585788 27.636913697 l 2
 287.764937112 9.3216867054 269.516770501 -1.90906445472 250.605854507 -1.90906445472 c 0
 244.575494487 -1.90906445472 238.477742105 -0.767053800996 232.636913697 1.65141421163 c 0
 214.320599848 9.23551291473 203.091005007 27.4840227632 203.091005007 46.3942276852 c 0
 203.091005007 52.4246880523 204.233021963 58.5224408735 206.651414212 64.363086303 c 2
 271.922948789 222 l 1
 49 222 l 2
 22.6451520917 222 1.00333621143 244.134417773 1.00333621143 270.089835167 c 0
 1.00333621143 276.135379756 4.5729018344 287.895508544 4.73466967223 288.56288046 c 2
 30.7346696722 350.56288046 l 2
 33.4382153265 357.00979702 38.0477469698 363.294645906 42.7842476405 367.582935516 c 2
 433.784247641 721.582935516 l 2
 442.573654092 729.540607853 454.367975637 734 466 734 c 2
 516 734 l 2
 542.354847908 734 563.996663789 711.865582227 563.996663789 685.910164833 c 0
 563.996663789 678.898999408 562.72324507 673.371939886 560.348585788 667.636913697 c 2
 415.577051211 318 l 1
 433 318 l 2
 459.146366075 318 481 296.144471708 481 270 c 0
EndSplineSet
EndChar

StartChar: five
Encoding: 53 53 21
Width: 537
VWidth: 0
Flags: HW
LayerCount: 2
Fore
SplineSet
12.609279743 203.979848866 m 0
 13.0628820093 203.992996757 13.5153834453 203.999526139 13.9666895701 203.999526139 c 0
 39.5165911537 203.999526139 61.2354501903 183.072474555 61.9798488656 157.390720257 c 0
 63.4351754692 107.181952435 83.943224331 88 122 88 c 0
 190.951301296 88 301.737496523 170.729601252 347.608040731 282.257983248 c 0
 361.00698508 314.835808724 366.634380235 343.908685906 366.653478143 367.55273766 c 0
 366.653478143 420.396363669 345.612358086 440 307 440 c 0
 266.581191402 440 211.183700401 415.871940261 154.173740383 364.379073148 c 0
 145.112905005 356.195092807 133.618430276 352.214632081 122.160049732 352.214632081 c 0
 107.725024199 352.214632081 93.3472816813 358.531793481 83.9646170437 370.720149533 c 0
 77.2971819399 379.381342929 74.5444079923 390.216591892 74.5444079923 400.340902453 c 0
 74.5444079923 408.340629768 76.2630681112 415.89649155 79.1272055544 421.585261092 c 2
 224.127205554 709.585261092 l 2
 232.330986849 725.879668078 249.907349156 736 267 736 c 2
 523 736 l 2
 549.144471708 736 571 714.146366075 571 688 c 0
 571 661.853633925 549.144471708 640 523 640 c 2
 296.573707148 640 l 1
 238.875215985 525.398858932 l 1
 261.231648027 532.090422458 284.110896235 536 307 536 c 0
 405.329917132 536 462.653372122 457.959500158 462.653372122 367.42167253 c 0
 462.622249065 328.847342785 453.744518607 287.932553183 436.391959269 245.742016752 c 0
 380.262503477 109.270398748 249.048698704 -8 122 -8 c 0
 27.1897067078 -8 -33.9995272167 67.2851237522 -33.9995272167 155.966761617 c 0
 -33.9995272167 181.518408284 -13.0706216246 203.235503898 12.609279743 203.979848866 c 0
EndSplineSet
EndChar

StartChar: six
Encoding: 54 54 22
Width: 537
VWidth: 0
Flags: HW
LayerCount: 2
Fore
SplineSet
92.8414459477 180.44991942 m 0
 92.6356279867 176.325069243 92.5240519434 172.242381775 92.5240519434 168.657578215 c 0
 92.5240519434 94.0731846003 126.388761434 88 151 88 c 0
 228.355241221 88 312.703708642 162.652852622 344.648525634 240.356461521 c 0
 353.238558105 260.972539452 356.733508264 279.386597134 356.739595755 294.938890538 c 0
 356.739595755 334.650561035 339.326706521 356 295 356 c 0
 222.922610449 356 146.467441336 309.782462828 95.3845487268 185.724009348 c 0
 94.7995039303 184.303186271 93.7806543843 182.215931733 92.8414459477 180.44991942 c 0
171.653923623 421.030775628 m 1
 210.540556892 441.551840307 252.843583019 452 295 452 c 0
 391.703639308 452 452.739579894 380.543387316 452.739579894 294.898392423 c 0
 452.727892776 265.02702608 446.004028658 234.009668778 433.351474366 203.643538479 c 0
 391.296291358 101.347147378 283.644758779 -8 151 -8 c 0
 82.3726946998 -8 -3.47591272805 42.5385823115 -3.47591272805 168.725041241 c 0
 -3.47591272805 210.283681175 4.92595253471 258.273837207 23.4691671027 315.675611854 c 0
 30.6142933651 337.793833375 39.2874463447 361.301140439 49.643130061 386.343066516 c 0
 160.329273144 654.704753049 329.918848392 744 422 744 c 0
 549.201365187 744 567.931301018 636.797795396 567.931301018 624.877409339 c 0
 567.931301018 601.5800676 550.690212753 579.22072143 525.498245578 576.315942962 c 0
 523.686797684 576.107072619 521.892470873 576.005610887 520.120199929 576.005610887 c 0
 495.89300045 576.005610887 475.787443532 594.966053225 472.409823029 617.695163373 c 0
 471.638730303 621.62252954 470.4115451 648 422 648 c 0
 390.308204738 648 269.303703062 606.095921826 171.653923623 421.030775628 c 1
EndSplineSet
EndChar

StartChar: seven
Encoding: 55 55 23
Width: 537
VWidth: 0
Flags: HW
LayerCount: 2
Fore
SplineSet
168 688 m 0
 168 714.144471708 189.853633925 736 216 736 c 2
 574 736 l 2
 600.354847908 736 621.996663789 713.865582227 621.996663789 687.910164833 c 0
 621.996663789 680.907348394 620.717737394 675.362360091 618.352807956 669.647113949 c 2
 594.352807956 611.647113949 l 2
 590.152517074 601.496410983 581.057287928 592.416775041 573.33916305 588.054979753 c 0
 569.617993655 586.023006953 307.34745402 442.357038035 149.158718478 61.1793620297 c 1
 134.975552075 28.7606959671 l 2
 127.163015269 10.9034689802 109.177846979 0.0987750513939 90.6043330922 0.0987750513939 c 0
 84.2646197374 0.0987750513939 77.8563601482 1.35759484544 71.7606959671 4.02444792469 c 0
 53.9024290754 11.8374396898 43.0988458654 29.8228941605 43.0988458654 48.3957208416 c 0
 43.0988458654 54.7355539456 44.3576769536 61.1438275277 47.0244479247 67.2393040329 c 2
 60.8283367857 98.7910500009 l 1
 190.031384485 409.021076626 384.743700317 575.035843488 476.801827531 640 c 1
 216 640 l 2
 189.853633925 640 168 661.855528292 168 688 c 0
EndSplineSet
EndChar

StartChar: eight
Encoding: 56 56 24
Width: 537
VWidth: 0
Flags: HW
LayerCount: 2
Fore
SplineSet
329.86636314 429.507201929 m 1
 362.403867262 450.453146357 438.453245846 508.620199971 460.62543815 562.300244497 c 0
 466.461641696 576.473881678 468.638026771 588.643830644 468.638583625 598.353443126 c 0
 468.638583625 626.27656649 452.949860323 648 405 648 c 0
 331.430671694 648 250.644980006 591.147952014 223.367437761 525.681850627 c 0
 216.709055204 509.405804375 214.013728576 494.963226109 214.003891198 483.838494693 c 0
 214.003891198 466.395329384 219.334386631 456.574520052 228.302779973 449.096630755 c 0
 237.339790212 441.561528363 254.479315149 434 284 434 c 0
 299.879643734 434 315.439542974 432.478155043 329.86636314 429.507201929 c 1
418.801697284 374.481696399 m 1
 437.954177849 347.77024243 445.605490426 317.373183946 445.605490426 286.792445895 c 0
 445.605490426 256.011691798 437.853762346 225.044847531 426.276197727 197.46300241 c 0
 382.21105003 91.9385697676 271.230247142 -8 133 -8 c 0
 108.327913076 -8 85.1897201067 -3.88764793484 64.3921673736 4.53490679947 c 0
 -1.65766268585 31.2836457501 -28.2955347663 90.7768308463 -28.2955347663 153.104759942 c 0
 -28.2955347663 184.740298111 -21.4329995168 217.10613225 -9.37827878557 246.291245599 c 0
 26.0143336558 332.343871927 89.7983640745 385.666972935 134.633638006 414.769410916 c 1
 123.257661768 436.251816241 118.093582723 459.70096638 118.093582723 483.837424653 c 0
 118.093582723 509.733210454 124.037927396 536.420153092 134.632562239 562.318149373 c 0
 177.355019994 664.852047986 288.569328306 744 405 744 c 0
 493.23694917 744 564.638583552 685.490657146 564.638583552 598.352177556 c 0
 564.637211428 574.42641603 559.361419393 549.953552395 549.384548727 525.724009348 c 0
 520.9430722 456.865697757 461.220008664 406.232278531 418.801697284 374.481696399 c 1
212.980974267 349.377527038 m 1
 182.020275482 333.437938128 111.849019786 288.657222715 79.3919592689 209.742016752 c 0
 70.5405631832 188.312320966 66.7823216575 169.462449937 66.7823216575 153.439789399 c 0
 66.7823216575 121.822621989 81.4162640509 101.214123173 100.427205532 93.5151069844 c 0
 108.335562463 90.3123951091 118.891599119 88 133 88 c 0
 222.76431865 88 305.803780138 158.096944584 337.706721743 234.496094217 c 0
 346.130085179 254.563518872 349.575489344 271.566365158 349.575489344 285.487227562 c 0
 349.575489344 307.098271625 341.272023753 321.281697362 330.398924031 327.972384584 c 0
 328.402736593 329.200724812 326.108650318 330.393645411 323.42696332 331.516534902 c 0
 314.884566152 335.093450483 302.136313709 338 284 338 c 0
 258.735957074 338 234.668182316 341.732999739 212.980974267 349.377527038 c 1
EndSplineSet
EndChar

StartChar: nine
Encoding: 57 57 25
Width: 537
VWidth: 0
Flags: HW
LayerCount: 2
Fore
SplineSet
444.26597481 553.874001747 m 0
 444.577442878 558.934156868 444.724582227 563.623002202 444.724582227 568.167314648 c 0
 444.724582227 642.226140049 411.379287652 648 387 648 c 0
 309.50085752 648 224.18964475 573.087736709 192.351474366 495.643538479 c 0
 183.872360957 475.293666297 180.432788808 457.186678955 180.432788808 441.719033791 c 0
 180.432788808 401.829122813 198.387836907 380 243 380 c 0
 315.077389551 380 391.532558664 426.217537172 442.615451273 550.275990652 c 0
 443.008517386 551.230579783 443.675838401 552.670985415 444.26597481 553.874001747 c 0
364.962194745 314.240483389 m 1
 326.489595392 294.115397043 284.833281772 284 243 284 c 0
 146.07435981 284 84.4328532935 355.650851645 84.4328532935 441.798168716 c 0
 84.4328532935 471.494824249 91.0988988694 502.237357287 103.648525634 532.356461521 c 0
 145.81035525 634.912263291 254.49914248 744 387 744 c 0
 455.628915552 744 540.724316769 693.429154617 540.724316769 567.980179547 c 0
 540.724316769 525.301755027 531.965816345 476.446878094 512.601670639 417.402414916 c 0
 505.628800382 396.14098736 497.258757555 373.601498082 487.356869939 349.656933484 c 0
 376.670726856 81.2952469515 207.081151608 -8 115 -8 c 0
 -12.2013651869 -8 -30.9313010182 99.2022046041 -30.9313010182 111.122590661 c 0
 -30.9313010182 134.4199324 -13.6902127532 156.77927857 11.5017544225 159.684057038 c 0
 13.3132023162 159.892927381 15.107529127 159.994389113 16.8798000709 159.994389113 c 0
 41.1069995499 159.994389113 61.2125564677 141.033946775 64.5901769708 118.304836627 c 0
 65.3612696967 114.37747046 66.5884549003 88 115 88 c 0
 146.614575606 88 267.281568611 129.909896841 364.962194745 314.240483389 c 1
EndSplineSet
EndChar

StartChar: colon
Encoding: 58 58 26
Width: 230
VWidth: 0
Flags: HW
HStem: 48 48<97.5248 132.875> 432 48<97.5248 132.875>
VStem: 96 38<49.9059 94.0941 433.906 478.094>
LayerCount: 2
Fore
SplineSet
217.975552075 444.760695967 m 0
 205.510171013 416.268396395 179.056547013 384 135 384 c 0
 91.0515428714 384 80.6949231679 417.070338732 80.6949231679 441.928662564 c 0
 80.6949231679 451.648639867 82.2783749686 460.113059841 84.0561994767 464.853925196 c 0
 84.3433504798 465.619661205 84.7816265113 466.68428366 85.0244479247 467.239304033 c 0
 97.4898289873 495.731603605 123.943452987 528 168 528 c 0
 211.948457129 528 222.305076832 494.929661268 222.305076832 470.071337436 c 0
 222.305076832 460.351360133 220.721625031 451.886940159 218.943800523 447.146074804 c 0
 218.65664952 446.380338795 218.218373489 445.31571634 217.975552075 444.760695967 c 0
58.9755520753 60.7606959671 m 0
 46.5101710127 32.2683963954 20.0565470129 0 -24 0 c 0
 -67.9484571286 0 -78.3050768321 33.0703387319 -78.3050768321 57.9286625636 c 0
 -78.3050768321 67.6486398675 -76.7216250314 76.1130598415 -74.9438005233 80.8539251962 c 0
 -74.6566495202 81.6196612047 -74.2183734887 82.6842836596 -73.9755520753 83.2393040329 c 0
 -61.5101710127 111.731603605 -35.0565470129 144 9 144 c 0
 52.9484571286 144 63.3050768321 110.929661268 63.3050768321 86.0713374364 c 0
 63.3050768321 76.3513601325 61.7216250314 67.8869401585 59.9438005233 63.1460748038 c 0
 59.6566495202 62.3803387953 59.2183734887 61.3157163404 58.9755520753 60.7606959671 c 0
EndSplineSet
EndChar

StartChar: semicolon
Encoding: 59 59 27
Width: 236
VWidth: 0
Flags: HW
HStem: 432 48<97.5248 132.875>
VStem: 96 38<433.906 478.094>
LayerCount: 2
Fore
SplineSet
-66.5736680142 20.3807268246 m 1
 -75.3348699989 33.214036774 -78.8069446338 46.7236320226 -78.8069446338 59.0234686011 c 0
 -78.8069446338 66.9759133799 -77.3555293441 74.4226483409 -74.9438005233 80.8539251962 c 0
 -74.6566495202 81.6196612047 -74.2183734887 82.6842836596 -73.9755520753 83.2393040329 c 0
 -61.5101710127 111.731603605 -35.0565470129 144 9 144 c 0
 50.2073694749 144 65.5610019383 110.671662996 65.5610019383 79.1684398961 c 0
 65.5610019383 66.9474352886 63.2504540279 55.0010896669 59.2423425479 45.381622115 c 0
 37.1899262171 -6.50641631038 -22.4539879239 -83.2708246712 -23.5894717368 -84.7859569677 c 0
 -32.9155690334 -97.2302305486 -47.5188436629 -103.823354971 -62.2249641255 -103.823354971 c 0
 -72.242772344 -103.823354971 -82.3083044584 -100.763925401 -90.7859569677 -94.4105282632 c 0
 -103.230779958 -85.084019223 -109.823310506 -70.4808991359 -109.823310506 -55.7752999102 c 0
 -109.823310506 -45.7571469275 -106.763729066 -35.6914335628 -100.410528263 -27.2140430323 c 2
 -100.410528263 -27.2140430323 -84.4591434346 -5.93092117064 -66.5736680142 20.3807268246 c 1
217.975552075 444.760695967 m 0
 205.510171013 416.268396395 179.056547013 384 135 384 c 0
 91.0515428714 384 80.6949231679 417.070338732 80.6949231679 441.928662564 c 0
 80.6949231679 451.648639867 82.2783749686 460.113059841 84.0561994767 464.853925196 c 0
 84.3433504798 465.619661205 84.7816265113 466.68428366 85.0244479247 467.239304033 c 0
 97.4898289873 495.731603605 123.943452987 528 168 528 c 0
 211.948457129 528 222.305076832 494.929661268 222.305076832 470.071337436 c 0
 222.305076832 460.351360133 220.721625031 451.886940159 218.943800523 447.146074804 c 0
 218.65664952 446.380338795 218.218373489 445.31571634 217.975552075 444.760695967 c 0
EndSplineSet
EndChar

StartChar: less
Encoding: 60 60 28
Width: 512
VWidth: 0
Flags: HW
LayerCount: 2
Fore
SplineSet
375.685991208 121.046194918 m 0
 366.304638113 109.927554212 352.608228 104.187211236 338.860696083 104.187211236 c 0
 327.901687901 104.187211236 316.910193497 107.83500999 308.046194918 115.314008792 c 2
 52.0461949179 331.314008792 l 2
 49.5024807436 333.460267626 47.2402663541 335.83237629 45.2638892922 338.379279009 c 0
 43.2577963069 340.905940421 41.4897272395 343.669111097 40.0083598265 346.652426948 c 0
 35.7281228458 355.272348646 34.3587289047 364.68828865 35.5050193326 373.726226793 c 0
 36.539662748 382.777589441 40.1077255652 391.598209712 46.3140087916 398.953805082 c 0
 48.461883454 401.499434312 50.8358992113 403.763113775 53.384892488 405.740516297 c 0
 55.910063085 407.744819644 58.6713574265 409.511384461 61.6524269483 410.991640173 c 2
 496.652426948 626.991640173 l 2
 503.342418704 630.313567114 510.511887238 631.882165477 517.611996847 631.882165477 c 0
 535.365732203 631.882165477 552.685805189 622.07460184 560.991640173 605.347573052 c 0
 564.313467988 598.657780925 565.882093789 591.488262955 565.882093789 584.387984768 c 0
 565.882093789 566.634887024 556.075528744 549.314655067 539.347573052 541.008359827 c 2
 169.842444898 357.529951364 l 1
 369.953805082 188.685991208 l 2
 381.072898615 179.30425604 386.81276099 165.608045842 386.81276099 151.86100689 c 0
 386.81276099 140.901607783 383.164745795 129.909904057 375.685991208 121.046194918 c 0
EndSplineSet
EndChar

StartChar: equal
Encoding: 61 61 29
Width: 512
VWidth: 0
Flags: HW
AnchorPoint: "middle" -152 0 basechar 0
LayerCount: 2
Fore
SplineSet
-15 248 m 0
 -15 274.144471708 6.85363392464 296 33 296 c 2
 379 296 l 2
 405.144471708 296 427 274.146366075 427 248 c 0
 427 221.853633925 405.144471708 200 379 200 c 2
 33 200 l 2
 6.85363392464 200 -15 221.855528292 -15 248 c 0
85 488 m 0
 85 514.144471708 106.853633925 536 133 536 c 2
 479 536 l 2
 505.144471708 536 527 514.146366075 527 488 c 0
 527 461.853633925 505.144471708 440 479 440 c 2
 133 440 l 2
 106.853633925 440 85 461.855528292 85 488 c 0
EndSplineSet
EndChar

StartChar: greater
Encoding: 62 62 30
Width: 512
VWidth: 0
Flags: HW
LayerCount: 2
Fore
SplineSet
-48.9916401735 130.652426948 m 0
 -52.3134679879 137.342219075 -53.8820937886 144.511737045 -53.8820937886 151.612015232 c 0
 -53.8820937886 169.365112976 -44.0755287436 186.685344933 -27.3475730517 194.991640173 c 2
 342.157555102 378.470048636 l 1
 142.046194918 547.314008792 l 2
 130.927101385 556.69574396 125.18723901 570.391954158 125.18723901 584.13899311 c 0
 125.18723901 595.098392217 128.835254205 606.090095943 136.314008792 614.953805082 c 0
 145.695361887 626.072445788 159.391772 631.812788764 173.139303917 631.812788764 c 0
 184.098312099 631.812788764 195.089806503 628.16499001 203.953805082 620.685991208 c 2
 459.953805082 404.685991208 l 2
 462.497519256 402.539732374 464.759733646 400.16762371 466.736110708 397.620720991 c 0
 468.742203693 395.094059579 470.51027276 392.330888903 471.991640173 389.347573052 c 0
 476.271877154 380.727651354 477.641271095 371.31171135 476.494980667 362.273773207 c 0
 475.460337252 353.222410559 471.892274435 344.401790288 465.685991208 337.046194918 c 0
 463.538116546 334.500565688 461.164100789 332.236886225 458.615107512 330.259483703 c 0
 456.089936915 328.255180356 453.328642574 326.488615539 450.347573052 325.008359827 c 2
 15.3475730517 109.008359827 l 2
 8.65758129633 105.686432886 1.48811276156 104.117834523 -5.61199684678 104.117834523 c 0
 -23.3657322032 104.117834523 -40.685805189 113.92539816 -48.9916401735 130.652426948 c 0
EndSplineSet
EndChar

StartChar: question
Encoding: 63 63 31
Width: 512
VWidth: 0
Flags: HW
HStem: 48 48<225.525 260.875>
VStem: 224 38<49.9059 94.0941>
LayerCount: 2
Fore
SplineSet
186.975552075 60.7606959671 m 0
 174.510171013 32.2683963954 148.056547013 0 104 0 c 0
 60.0515428714 0 49.6949231679 33.0703387319 49.6949231679 57.9286625636 c 0
 49.6949231679 67.6486398675 51.2783749686 76.1130598415 53.0561994767 80.8539251962 c 0
 53.3433504798 81.6196612047 53.7816265113 82.6842836596 54.0244479247 83.2393040329 c 0
 66.4898289873 111.731603605 92.9434529871 144 137 144 c 0
 180.948457129 144 191.305076832 110.929661268 191.305076832 86.0713374364 c 0
 191.305076832 76.3513601325 189.721625031 67.8869401585 187.943800523 63.1460748038 c 0
 187.65664952 62.3803387953 187.218373489 61.3157163404 186.975552075 60.7606959671 c 0
140.744878572 491.6068638 m 0
 122.373703464 499.161365714 111.089976939 517.441391985 111.089976939 536.393774291 c 0
 111.089976939 542.386266993 112.218057104 548.44597787 114.6068638 554.255121428 c 0
 165.520699958 678.068313902 272.929490986 744 379 744 c 0
 407.907227636 744 434.886347415 740.002941195 459.28251939 730.038497634 c 0
 510.577342169 709.087490769 535.435669991 664.867602672 535.435669991 613.720437448 c 0
 535.435669991 590.633074855 530.370693644 566.134253895 520.385889018 541.7269537 c 0
 486.353663673 459.580202867 431.783500394 418.414139467 366.447387069 382.116298731 c 0
 295.43566653 342.058405093 275.51646269 321.205715711 234.358002352 221.659672104 c 0
 226.78048056 203.332642653 208.52558813 192.090733322 189.605929445 192.090733322 c 0
 183.583556109 192.090733322 177.49382655 193.229799175 171.659672104 195.641997648 c 0
 153.331554578 203.219969317 142.090802741 221.475206497 142.090802741 240.394153462 c 0
 142.090802741 246.416626651 143.22987478 252.506356307 145.641997648 258.340327896 c 0
 190.48353731 366.794284289 234.56433347 417.941594907 319.552612931 465.883701269 c 0
 380.216499606 499.585860533 407.646336327 520.419797133 431.614110982 578.2730463 c 0
 439.12610549 596.635699544 442.142056546 609.101581964 442.142056546 617.855432171 c 0
 442.142056546 632.874646961 433.263946495 636.966684918 422.983104766 641.165821867 c 0
 413.695440436 644.959302546 398.829234458 648 379 648 c 0
 313.070509014 648 240.479300042 607.931686098 203.3931362 517.744878572 c 0
 195.838184979 499.372610831 177.55780828 488.090046197 158.606140131 488.090046197 c 0
 152.613549427 488.090046197 146.553839725 489.218132111 140.744878572 491.6068638 c 0
EndSplineSet
EndChar

StartChar: at
Encoding: 64 64 32
Width: 704
VWidth: 0
Flags: HW
LayerCount: 2
Fore
SplineSet
382.337304904 90.6368118588 m 0
 385.429040341 84.1441674394 386.888521469 77.2336538932 386.888521469 70.3924275297 c 0
 386.888521469 52.3615298596 376.750218638 34.8119364197 359.636811859 26.6626950965 c 0
 312.325446319 4.13347341071 264.094266362 -8 216 -8 c 0
 185.775377708 -8 157.243376882 -2.73805354053 131.520911113 7.87761007639 c 0
 47.5904102559 42.5157342865 9.11082813239 122.021810178 9.11082813239 216.102323314 c 0
 9.11082813239 269.976671078 21.7289594507 328.630232983 45.6561514046 386.374522899 c 0
 125.840455774 579.885977444 314.089154422 744 488 744 c 0
 518.224622292 744 546.756623118 738.738053541 572.479088887 728.122389924 c 0
 656.401398668 693.487646171 694.892842467 614.020650015 694.892842467 519.934035023 c 0
 694.892842467 466.041788502 682.264071438 407.352948229 658.310652642 349.545364202 c 0
 640.156387134 306.176841043 619.013658553 257.015798399 581.117744243 214.3828948 c 0
 547.422024363 175.29585974 498.663157518 152 455 152 c 0
 440.28578422 152 425.834315015 154.723719942 412.465870519 160.251664003 c 0
 399.733919311 165.516413698 387.947485424 173.416947857 378.265163258 183.662794871 c 1
 345.960354619 158.470926193 309.810081148 142 271 142 c 0
 195.444341695 142 161.956487457 210.456991764 161.956487457 271.169103053 c 0
 161.956487457 307.273764537 170.810924474 346.111045581 187.719090607 386.525686583 c 0
 231.688179089 491.622532222 321.074172363 594 418 594 c 0
 444.273077465 594 465.367431475 585.727248858 481.709392657 572.423295844 c 1
 490.88760629 582.253295407 503.974071253 587.909025223 517.394159823 587.909025223 c 0
 523.426069185 587.909025223 529.525377883 586.766442891 535.367500434 584.346757805 c 0
 553.681524338 576.761471785 564.908955753 558.51426736 564.908955753 539.605758124 c 0
 564.908955753 533.573748318 563.766367096 527.474439115 561.346757805 521.632499566 c 2
 450.262257727 253.428481361 l 2
 449.241485326 251.026663946 449.098435991 250.29358728 448.895153004 249.076654912 c 0
 449.79646848 248.674187009 451.841675448 248 455 248 c 0
 463.336842482 248 492.577975637 258.70414026 508.882255757 277.6171052 c 0
 534.986341447 306.984201601 551.843612866 343.823158957 569.689347358 386.454635798 c 0
 590.822708801 437.456481416 599.637430525 481.523242856 599.637430525 518.117973857 c 0
 599.637430525 583.110238731 571.834227467 624.534388118 535.856147761 639.382544402 c 0
 522.913164647 644.724114536 507.194853363 648 488 648 c 0
 371.910845578 648 204.159544226 518.114022556 134.343848595 349.625477101 c 0
 113.183320187 298.558068543 104.359038236 254.456911848 104.359038236 217.846242335 c 0
 104.359038236 152.85087761 132.17081945 111.463529019 168.143852239 96.6174555984 c 0
 181.086835353 91.2758854641 196.805146637 88 216 88 c 0
 247.905733638 88 281.674553681 95.8665265893 318.363188141 113.337304904 c 0
 324.856028016 116.429133415 331.766504464 117.888593255 338.607578989 117.888593255 c 0
 356.639129836 117.888593255 374.188523076 107.749253696 382.337304904 90.6368118588 c 0
429.868754279 455.068016095 m 1
 430.179887124 458.910312658 430.318532039 462.474625797 430.320482394 465.908609359 c 0
 430.320482394 495.341870461 424.268309796 498.157625639 420.331195565 498.157625639 c 0
 419.39967167 498.157625639 418.58654849 498 418 498 c 0
 390.925827637 498 314.311820911 440.377467778 276.280909393 349.474313417 c 0
 263.290522215 318.424119675 257.956077875 291.142675801 257.956077875 270.832625191 c 0
 257.956077875 240.460949742 264.682821813 237.893742857 268.851511994 237.893742857 c 0
 269.699614317 237.893742857 270.441838347 238 271 238 c 0
 288.088987566 238 333.263406497 263.355603672 372.488010422 316.527121019 c 1
 429.868754279 455.068016095 l 1
EndSplineSet
EndChar

StartChar: A
Encoding: 65 65 33
Width: 550
VWidth: 0
Flags: HW
AnchorPoint: "above" -152 0 basechar 0
LayerCount: 2
Fore
SplineSet
-83.2353047226 8.47484121894 m 0
 -96.6077692472 17.6893050554 -103.833352744 32.9079412332 -103.833352744 48.2763840654 c 0
 -103.833352744 57.6497056875 -101.145532441 67.078753379 -95.5251587811 75.2353047226 c 2
 345.474841219 715.235304723 l 2
 354.575841406 728.443105448 370.827727255 736 385 736 c 2
 415 736 l 1
 430 736 l 2
 457.269386683 736 477.965963205 712.480043028 477.965963205 687.529945616 c 0
 477.965963205 685.488378683 477.82738936 683.437236251 477.542503742 681.388620573 c 2
 388.542503742 41.3886205734 l 2
 385.241438395 17.6506225688 364.247688299 0.0117978809083 340.823643833 0.0117978809083 c 0
 338.69488938 0.0117978809083 336.546063131 0.157476902128 334.388620573 0.457496257802 c 0
 310.648960653 3.75879271554 293.011816868 24.7538255265 293.011816868 48.1765832803 c 0
 293.011816868 50.3052833141 293.157490563 52.4540351015 293.457496258 54.6113794266 c 2
 305.888101306 144 l 1
 68.4419859415 144 l 1
 -16.4748412189 20.7646952774 l 2
 -25.6897344803 7.39160755121 -40.9082620756 0.166701386921 -56.2761636529 0.166701386921 c 0
 -65.6497947889 0.166701386921 -75.0789986299 2.85463655198 -83.2353047226 8.47484121894 c 0
134.591985941 240 m 1
 319.238101306 240 l 1
 365.924192975 575.720209754 l 1
 134.591985941 240 l 1
EndSplineSet
EndChar

StartChar: B
Encoding: 66 66 34
Width: 556
VWidth: 0
Flags: HW
AnchorPoint: "above" -152 0 basechar 0
LayerCount: 2
Fore
SplineSet
195.608301211 436 m 1
 328 436 l 2
 338.297114301 436 349.535806854 438.027115852 361.393340726 442.297933373 c 0
 405.395748775 458.146612981 452.542891557 505.191022265 473.626947147 556.303884302 c 0
 481.772382069 576.050393202 485.068939775 593.258858457 485.068939775 606.809273544 c 0
 485.068939775 633.275038958 479.495545767 640 453 640 c 2
 280.077051211 640 l 1
 195.608301211 436 l 1
155.858301211 340 m 1
 54.8270512107 96 l 1
 200 96 l 2
 250.455187444 96 325.2228051 165.021115702 354.626947147 236.303884302 c 0
 364.260843852 259.658785404 369.125592929 283.178620403 369.125592929 302.079301255 c 0
 369.125592929 335.387943567 362.399980788 340 341 340 c 0
 339.953551477 340 337.925212616 340.098540014 336.386906555 340.19936592 c 0
 333.600612017 340.071560116 330.710357538 340 328 340 c 2
 155.858301211 340 l 1
446.497218261 378.62597802 m 1
 460.003081907 354.715783748 465.523678173 328.221560911 465.523678173 301.283194264 c 0
 465.523678173 266.638128471 456.392511946 231.258440772 443.373052853 199.696115698 c 0
 406.7771949 110.978884298 315.544812556 0 200 0 c 2
 -17 0 l 2
 -21.2283217642 0 -27.0923583398 0.809684039683 -31.8270211571 2.34740485352 c 0
 -52.0516152768 8.9159358197 -64.9068749255 28.2418045296 -64.9068749255 48.4291225698 c 0
 -64.9068749255 54.4352872058 -63.7689383213 60.5177066009 -61.3485857884 66.363086303 c 2
 87.2352292405 425.207016939 l 1
 203.651414212 706.363086303 l 2
 210.388949618 722.634869926 228.194163244 736 248 736 c 2
 453 736 l 2
 533.634393546 736 581.068294411 674.872737491 581.068294411 606.38495384 c 0
 581.068294411 577.772113979 574.341478756 548.710481524 562.373052853 519.696115698 c 0
 539.027949886 463.101926688 497.253245192 412.322218314 446.497218261 378.62597802 c 1
EndSplineSet
EndChar

StartChar: C
Encoding: 67 67 35
Width: 547
VWidth: 0
Flags: HW
AnchorPoint: "bottom" -152 0 basechar 0
AnchorPoint: "above" -152 0 basechar 0
LayerCount: 2
Fore
SplineSet
400.461538462 244.307692308 m 0
 418.725653666 236.697644306 429.90818872 218.478634754 429.90818872 199.605550749 c 0
 429.90818872 193.540613 428.753387544 187.408130106 426.307692308 181.538461538 c 0
 410.895680454 144.549633089 302.443985347 -8 159 -8 c 0
 139.466082626 -8 120.407685776 -4.5529560569 102.897523454 2.58423295733 c 0
 33.6572136309 30.8067685078 5.44190538929 98.3249968524 5.44190538929 179.897235028 c 0
 5.44190538929 244.117829008 22.9302490132 317.049345127 51.6561514046 386.374522899 c 0
 129.293014814 573.738153259 284.179609337 744 430 744 c 0
 436.8677453 744 443.558769779 743.639963246 450.069663969 742.913841218 c 0
 560.741822103 730.571221351 573.868756744 636.311683325 573.868756744 592.285385416 c 0
 573.868756744 578.593320747 572.599127637 569.759784404 572.599127637 569.759784404 c 1
 568.937267352 544.981346412 548.252051232 527.999013873 525.004303444 527.999013873 c 0
 523.196095669 527.999013873 521.372385307 528.10175214 519.539976847 528.311551219 c 0
 495.409224586 531.074368408 476.992109014 552.343803445 476.992109014 576.002913741 c 0
 476.992109014 581.747439729 477.828702005 586.047476379 477.828702005 593.152222097 c 0
 477.828702005 615.400671444 471.458937405 648 430 648 c 0
 355.820390663 648 212.706985186 524.261846741 140.343848595 349.625477101 c 0
 112.85099357 283.276053639 102.979566798 229.29301743 102.979566798 188.084245308 c 0
 102.979566798 131.080274946 121.868646142 98.5199937773 139.132912124 91.4830327689 c 0
 144.239449958 89.4015942841 150.5381279 88 159 88 c 0
 229.533355234 88 324.530795854 194.281027117 337.954725819 219.099484506 c 0
 345.808361061 236.336807984 363.618356899 247.90132736 382.56862353 247.90132736 c 0
 388.511420853 247.90132736 394.566357823 246.764017574 400.461538462 244.307692308 c 0
EndSplineSet
EndChar

StartChar: D
Encoding: 68 68 36
Width: 556
VWidth: 0
Flags: HW
HStem: 48 21G<115.2 307.2> 668 20G<115.2 307.2>
VStem: 115 346<226.215 509.777>
AnchorPoint: "above" -152 0 basechar 0
LayerCount: 2
Fore
SplineSet
-61.3485857884 66.363086303 m 2
 203.651414212 706.363086303 l 2
 211.228420246 724.662270688 230.388488832 736 248 736 c 2
 414 736 l 2
 429.086358087 736 444.824647296 732.992952117 460.628600097 726.539858545 c 0
 515.231345994 704.244383924 554.422465414 649.120034669 554.422465414 557.78720241 c 0
 554.422465414 502.113230873 539.859888784 432.984966215 505.348585788 349.636913697 c 0
 394.617082925 82.2098879136 228.6530167 0 149 0 c 2
 -17 0 l 2
 -43.3548479083 0 -64.9966637886 22.1344177733 -64.9966637886 48.0898351674 c 0
 -64.9966637886 55.1010005921 -63.7232450696 60.6280601143 -61.3485857884 66.363086303 c 2
54.8270512107 96 m 1
 149 96 l 2
 171.3469833 96 315.382917075 141.790112086 416.651414212 386.363086303 c 0
 449.53644367 465.783534807 460.284122608 520.455232508 460.284122608 557.985297596 c 0
 460.284122608 618.16696926 432.647527044 634.270624583 424.338434351 637.663405701 c 0
 419.920747269 639.467242277 415.8759479 640 414 640 c 2
 280.077051211 640 l 1
 54.8270512107 96 l 1
EndSplineSet
EndChar

StartChar: E
Encoding: 69 69 37
Width: 556
VWidth: 0
Flags: HW
AnchorPoint: "bottom" -152 0 basechar 0
AnchorPoint: "above" -152 0 basechar 0
LayerCount: 2
Fore
SplineSet
629 688 m 0
 629 661.855528292 607.146366075 640 581 640 c 2
 280.077051211 640 l 1
 195.608301211 436 l 1
 354 436 l 2
 380.144471708 436 402 414.146366075 402 388 c 0
 402 361.853633925 380.144471708 340 354 340 c 2
 155.858301211 340 l 1
 54.8270512107 96 l 1
 328 96 l 2
 354.144471708 96 376 74.1463660754 376 48 c 0
 376 21.8536339246 354.144471708 0 328 0 c 2
 -17 0 l 2
 -21.2283217642 0 -27.0923583398 0.809684039683 -31.8270211571 2.34740485352 c 0
 -52.0516152768 8.9159358197 -64.9068749255 28.2418045296 -64.9068749255 48.4291225698 c 0
 -64.9068749255 54.4352872058 -63.7689383213 60.5177066009 -61.3485857884 66.363086303 c 2
 203.651414212 706.363086303 l 2
 210.388949618 722.634869926 228.194163244 736 248 736 c 2
 581 736 l 2
 607.146366075 736 629 714.144471708 629 688 c 0
EndSplineSet
EndChar

StartChar: F
Encoding: 70 70 38
Width: 531
VWidth: 0
Flags: HW
AnchorPoint: "above" -152 0 basechar 0
LayerCount: 2
Fore
SplineSet
-35.363086303 3.65141421163 m 0
 -53.6783132946 11.2350628878 -64.9090644547 29.4832294989 -64.9090644547 48.3941454934 c 0
 -64.9090644547 54.4245055129 -63.767053801 60.5222578952 -61.3485857884 66.363086303 c 2
 203.651414212 706.363086303 l 2
 211.228420246 724.662270688 230.388488832 736 248 736 c 2
 568 736 l 2
 594.144471708 736 616 714.146366075 616 688 c 0
 616 661.853633925 594.144471708 640 568 640 c 2
 280.077051211 640 l 1
 195.608301211 436 l 1
 360 436 l 2
 386.144471708 436 408 414.146366075 408 388 c 0
 408 361.853633925 386.144471708 340 360 340 c 2
 155.858301211 340 l 1
 27.3485857884 29.636913697 l 2
 19.7644870853 11.320599848 1.51597723681 0.0910050070592 -17.3942276852 0.0910050070592 c 0
 -23.4246880523 0.0910050070592 -29.5224408735 1.23302196346 -35.363086303 3.65141421163 c 0
EndSplineSet
EndChar

StartChar: G
Encoding: 71 71 39
Width: 537
VWidth: 0
Flags: HW
AnchorPoint: "above" -152 0 basechar 0
LayerCount: 2
Fore
SplineSet
519.539976847 528.311551219 m 0
 494.253106973 531.206736499 477.008419587 554.450958157 477.008419587 576.379919446 c 0
 477.008419587 581.961857817 477.585807279 583.56321313 477.585807279 589.61969406 c 0
 477.585807279 618.126161509 473.538935759 648 430 648 c 0
 355.838522139 648 212.712885105 524.276085212 140.343848595 349.625477101 c 0
 114.006049979 286.063589773 102.23726551 228.294693168 102.233263395 183.838205316 c 0
 102.233263395 107.640103157 128.314734654 88 159 88 c 0
 218.553887065 88 290.973458857 155.439203413 310.628203677 177.507688824 c 1
 360 296 l 1
 297 296 l 2
 270.855528292 296 249 317.853633925 249 344 c 0
 249 370.146366075 270.855528292 392 297 392 c 2
 432 392 l 2
 436.4769804 392 442.150562462 391.183027245 446.928378219 389.61955199 c 0
 467.103082521 383.017654269 479.905920988 363.719225597 479.905920988 343.570105781 c 0
 479.905920988 337.529624569 478.755287041 331.412688897 476.307692308 325.538461538 c 2
 396.307692308 133.538461538 l 2
 394.885455087 130.12509221 392.075381994 125.19646435 389.218596766 121.688681078 c 2
 389.218596766 121.688681078 292.421054935 -8 159 -8 c 0
 53.8642632467 -8 6.23326552557 86.4825598404 6.23326552557 183.861867153 c 0
 6.23872422589 244.50740191 21.4455432011 313.466255101 51.6561514046 386.374522899 c 0
 129.287114895 573.723914788 284.161477861 744 430 744 c 0
 559.86894859 744 573.58434104 621.889025794 573.58434104 588.700315099 c 0
 573.58434104 578.586089509 572.984955586 573.129648575 572.599127637 569.759784404 c 0
 569.231573126 546.972803427 549.127221915 528.005239389 524.885598774 528.005239389 c 0
 523.123961649 528.005239389 521.340475925 528.105405561 519.539976847 528.311551219 c 0
EndSplineSet
EndChar

StartChar: H
Encoding: 72 72 40
Width: 569
VWidth: 0
Flags: HW
AnchorPoint: "above" -152 0 basechar 0
LayerCount: 2
Fore
SplineSet
605.363086303 732.348585788 m 0
 623.678313295 724.764937112 634.909064455 706.516770501 634.909064455 687.605854507 c 0
 634.909064455 681.575494487 633.767053801 675.477742105 631.348585788 669.636913697 c 2
 366.348585788 29.636913697 l 2
 358.764937112 11.3216867054 340.516770501 0.0909355452831 321.605854507 0.0909355452831 c 0
 315.575494487 0.0909355452831 309.477742105 1.232946199 303.636913697 3.65141421163 c 0
 285.320599848 11.2355129147 274.091005007 29.4840227632 274.091005007 48.3942276852 c 0
 274.091005007 54.4246880523 275.233021963 60.5224408735 277.651414212 66.363086303 c 2
 390.954198789 340 l 1
 155.858301211 340 l 1
 27.3485857884 29.636913697 l 2
 19.7644870853 11.320599848 1.51597723681 0.0910050070592 -17.3942276852 0.0910050070592 c 0
 -23.4246880523 0.0910050070592 -29.5224408735 1.23302196346 -35.363086303 3.65141421163 c 0
 -53.6783132946 11.2350628878 -64.9090644547 29.4832294989 -64.9090644547 48.3941454934 c 0
 -64.9090644547 54.4245055129 -63.767053801 60.5222578952 -61.3485857884 66.363086303 c 2
 203.651414212 706.363086303 l 2
 211.235062888 724.678313295 229.483229499 735.909064455 248.394145493 735.909064455 c 0
 254.424505513 735.909064455 260.522257895 734.767053801 266.363086303 732.348585788 c 0
 284.679400152 724.764487085 295.908994993 706.515977237 295.908994993 687.605772315 c 0
 295.908994993 681.575311948 294.766978037 675.477559127 292.348585788 669.636913697 c 2
 195.608301211 436 l 1
 430.704198789 436 l 1
 542.651414212 706.363086303 l 2
 550.235512915 724.679400152 568.484022763 735.908994993 587.394227685 735.908994993 c 0
 593.424688052 735.908994993 599.522440873 734.766978037 605.363086303 732.348585788 c 0
EndSplineSet
EndChar

StartChar: I
Encoding: 73 73 41
Width: 268
VWidth: 0
Flags: HW
AnchorPoint: "above" -152 0 basechar 0
LayerCount: 2
Fore
SplineSet
285.363086303 732.348585788 m 0
 303.678313295 724.764937112 314.909064455 706.516770501 314.909064455 687.605854507 c 0
 314.909064455 681.575494487 313.767053801 675.477742105 311.348585788 669.636913697 c 2
 46.3485857884 29.636913697 l 2
 38.7649371122 11.3216867054 20.5167705011 0.0909355452831 1.60585450658 0.0909355452831 c 0
 -4.42450551289 0.0909355452831 -10.5222578952 1.232946199 -16.363086303 3.65141421163 c 0
 -34.679400152 11.2355129147 -45.9089949929 29.4840227632 -45.9089949929 48.3942276852 c 0
 -45.9089949929 54.4246880523 -44.7669780365 60.5224408735 -42.3485857884 66.363086303 c 2
 222.651414212 706.363086303 l 2
 230.235512915 724.679400152 248.484022763 735.908994993 267.394227685 735.908994993 c 0
 273.424688052 735.908994993 279.522440873 734.766978037 285.363086303 732.348585788 c 0
EndSplineSet
EndChar

StartChar: J
Encoding: 74 74 42
Width: 435
VWidth: 0
Flags: HW
AnchorPoint: "above" -152 0 basechar 0
LayerCount: 2
Fore
SplineSet
58.0660982539 324.470395702 m 0
 76.5349683292 316.967417234 87.9116967246 298.631900458 87.9116967246 279.606970978 c 0
 87.9116967246 273.680647645 86.8077656375 267.687427742 84.4703957019 261.933901746 c 2
 58.423037326 197.817327283 l 2
 46.6962121342 169.379776192 42.0324152231 145.019002652 42.0324152231 125.817503335 c 0
 42.0324152231 88.9490050075 52.6285258772 88 63 88 c 0
 94.0884210182 88 179.327326801 154.762774683 222.692471639 258.462034078 c 2
 408.668922448 706.405313448 l 2
 416.263915045 724.698628949 434.499588104 735.908689025 453.394279846 735.908689025 c 0
 459.439465111 735.908689025 465.552108978 734.761202622 471.405313448 732.331077552 c 0
 489.699713547 724.735634653 500.908619485 706.49962116 500.908619485 687.605639293 c 0
 500.908619485 681.56035276 499.76112656 675.447707819 497.331077552 669.594686552 c 2
 311.307528361 221.537965922 l 2
 262.672673199 105.237225317 165.911578982 -8 63 -8 c 0
 -15.3284892292 -8 -53.9668148001 60.3263766621 -53.9668148001 126.250354123 c 0
 -53.9668148001 160.466173006 -45.7907072074 196.916073255 -30.423037326 234.182672717 c 2
 -4.47039570187 298.066098254 l 2
 3.03303075385 316.536071068 21.3689106294 327.911627844 40.3931204737 327.911627844 c 0
 46.3195377274 327.911627844 52.3127536599 326.807691943 58.0660982539 324.470395702 c 0
EndSplineSet
EndChar

StartChar: K
Encoding: 75 75 43
Width: 537
VWidth: 0
Flags: HW
AnchorPoint: "above" -152 0 basechar 0
LayerCount: 2
Fore
SplineSet
335.252555814 0.551075521527 m 0
 332.886861994 0.18947983402 330.529025323 0.0143211919864 328.194399292 0.0143211919864 c 0
 305.02411539 0.0143211919864 284.140036536 17.2671229749 280.551075522 40.7474441859 c 2
 234.12202145 344.50362845 l 1
 119.025464288 251.045224035 l 1
 27.3485857884 29.636913697 l 2
 19.7649371122 11.3216867054 1.51677050114 0.0909355452831 -17.3941454934 0.0909355452831 c 0
 -23.4245055129 0.0909355452831 -29.5222578952 1.232946199 -35.363086303 3.65141421163 c 0
 -53.679400152 11.2355129147 -64.9089949929 29.4840227632 -64.9089949929 48.3942276852 c 0
 -64.9089949929 54.4246880523 -63.7669780365 60.5224408735 -61.3485857884 66.363086303 c 2
 203.651414212 706.363086303 l 2
 211.235512915 724.679400152 229.484022763 735.908994993 248.394227685 735.908994993 c 0
 254.424688052 735.908994993 260.522440873 734.766978037 266.363086303 732.348585788 c 0
 284.678313295 724.764937112 295.909064455 706.516770501 295.909064455 687.605854507 c 0
 295.909064455 681.575494487 294.767053801 675.477742105 292.348585788 669.636913697 c 2
 196.165594395 437.345915616 l 1
 550.742777984 725.26258869 l 2
 559.491456751 732.366515849 570.180487462 735.815689291 580.831544325 735.815689291 c 0
 594.891660146 735.815689291 608.885603548 729.805233274 618.26258869 718.257222016 c 0
 625.366288417 709.508823338 628.815655779 698.819591176 628.815655779 688.168157771 c 0
 628.815655779 674.108544214 622.805716216 660.1147886 611.257222016 650.73741131 c 2
 320.514462436 414.654290531 l 1
 375.448924478 55.2525558141 l 2
 375.810536244 52.886756803 375.985700916 50.5288434821 375.985700916 48.1941644034 c 0
 375.985700916 25.0226400933 358.731242036 4.13978662796 335.252555814 0.551075521527 c 0
EndSplineSet
EndChar

StartChar: L
Encoding: 76 76 44
Width: 524
VWidth: 0
Flags: HW
AnchorPoint: "above" -152 0 basechar 0
LayerCount: 2
Fore
SplineSet
266.363086303 732.348585788 m 0
 284.678313295 724.764937112 295.909064455 706.516770501 295.909064455 687.605854507 c 0
 295.909064455 681.575494487 294.767053801 675.477742105 292.348585788 669.636913697 c 2
 54.8270512107 96 l 1
 315 96 l 2
 341.144471708 96 363 74.1463660754 363 48 c 0
 363 21.8536339246 341.144471708 0 315 0 c 2
 -17 0 l 2
 -21.2283217642 0 -27.0923583398 0.809684039683 -31.8270211571 2.34740485352 c 0
 -52.0516152768 8.9159358197 -64.9068749255 28.2418045296 -64.9068749255 48.4291225698 c 0
 -64.9068749255 54.4352872058 -63.7689383213 60.5177066009 -61.3485857884 66.363086303 c 2
 203.651414212 706.363086303 l 2
 211.235512915 724.679400152 229.484022763 735.908994993 248.394227685 735.908994993 c 0
 254.424688052 735.908994993 260.522440873 734.766978037 266.363086303 732.348585788 c 0
EndSplineSet
EndChar

StartChar: M
Encoding: 77 77 45
Width: 664
VWidth: 0
Flags: HW
AnchorPoint: "above" -152 0 basechar 0
LayerCount: 2
Fore
SplineSet
-35.363086303 3.65141421163 m 0
 -53.6783132946 11.2350628878 -64.9090644547 29.4832294989 -64.9090644547 48.3941454934 c 0
 -64.9090644547 54.4245055129 -63.767053801 60.5222578952 -61.3485857884 66.363086303 c 2
 203.651414212 706.363086303 l 2
 211.228420246 724.662270688 230.388488832 736 248 736 c 2
 266 736 l 1
 280 736 l 2
 307.774834969 736 327.957434932 711.630400868 327.957434932 687.355763035 c 0
 327.957434932 685.582265897 327.849705944 683.809275636 327.629338082 682.04633274 c 2
 271.466663855 232.744938918 l 1
 611.763467507 715.649493991 l 2
 620.931429002 728.659461521 637.240167435 736 651 736 c 2
 683 736 l 2
 709.354847908 736 730.996663789 713.865582227 730.996663789 687.910164833 c 0
 730.996663789 680.898999408 729.72324507 675.371939886 727.348585788 669.636913697 c 2
 462.348585788 29.636913697 l 2
 454.764937112 11.3216867054 436.516770501 0.0909355452831 417.605854507 0.0909355452831 c 0
 411.575494487 0.0909355452831 405.477742105 1.232946199 399.636913697 3.65141421163 c 0
 381.320599848 11.2355129147 370.091005007 29.4840227632 370.091005007 48.3942276852 c 0
 370.091005007 54.4246880523 371.233021963 60.5224408735 373.651414212 66.363086303 c 2
 518.960305389 417.297766881 l 1
 239.236532493 20.3505060091 l 2
 230.599504449 8.09396953847 215.523442162 0.0030598984977 199.870306663 0.0030598984977 c 0
 199.181669624 0.0030598984977 198.4919157 0.018719309274 197.801544015 0.0503723551484 c 0
 172.199748852 1.22419627369 152.008855534 23.1034019015 152.008855534 48.1516746824 c 0
 152.008855534 50.0697148214 152.127245624 52.0063369091 152.370661918 53.9536672603 c 2
 202.080249099 451.630364712 l 1
 27.3485857884 29.636913697 l 2
 19.7644870853 11.320599848 1.51597723681 0.0910050070592 -17.3942276852 0.0910050070592 c 0
 -23.4246880523 0.0910050070592 -29.5224408735 1.23302196346 -35.363086303 3.65141421163 c 0
EndSplineSet
EndChar

StartChar: N
Encoding: 78 78 46
Width: 576
VWidth: 0
Flags: HW
AnchorPoint: "above" -152 0 basechar 0
LayerCount: 2
Fore
SplineSet
-35.363086303 3.65141421163 m 0
 -53.6783132946 11.2350628878 -64.9090644547 29.4832294989 -64.9090644547 48.3941454934 c 0
 -64.9090644547 54.4245055129 -63.767053801 60.5222578952 -61.3485857884 66.363086303 c 2
 203.651414212 706.363086303 l 2
 211.228420246 724.662270688 230.388488832 736 248 736 c 2
 280 736 l 2
 306.031362395 736 327.090503086 714.169961925 327.969033898 689.723887156 c 2
 345.042757419 214.628971784 l 1
 548.651414212 706.363086303 l 2
 556.235062888 724.678313295 574.483229499 735.909064455 593.394145493 735.909064455 c 0
 599.424505513 735.909064455 605.522257895 734.767053801 611.363086303 732.348585788 c 0
 629.679400152 724.764487085 640.908994993 706.515977237 640.908994993 687.605772315 c 0
 640.908994993 681.575311948 639.766978037 675.477559127 637.348585788 669.636913697 c 2
 372.348585788 29.636913697 l 2
 365.611050382 13.3651300745 347.805836756 0 328 0 c 2
 303 0 l 2
 278.538144224 0 255.965864671 20.2615439879 255.030966102 46.2761128443 c 2
 237.398214803 536.926583771 l 1
 27.3485857884 29.636913697 l 2
 19.7644870853 11.320599848 1.51597723681 0.0910050070592 -17.3942276852 0.0910050070592 c 0
 -23.4246880523 0.0910050070592 -29.5224408735 1.23302196346 -35.363086303 3.65141421163 c 0
EndSplineSet
EndChar

StartChar: O
Encoding: 79 79 47
Width: 588
VWidth: 0
Flags: HW
HStem: 40 656<226.183 362.617>
VStem: 96 397<233.016 502.984>
AnchorPoint: "middle" -152 0 basechar 0
AnchorPoint: "above" -152 0 basechar 0
LayerCount: 2
Fore
SplineSet
537.343848595 349.625477101 m 0
 459.706985186 162.261846741 304.820390663 -8 159 -8 c 0
 139.109622671 -8 119.72698549 -4.47304720797 101.94982925 2.85208036826 c 0
 33.0764257768 31.2315613293 5.15699497831 98.2758378688 5.15699497831 179.206588857 c 0
 5.15699497831 243.629436157 22.8482747303 316.851513858 51.6561514046 386.374522899 c 0
 129.293014814 573.738153259 284.179609337 744 430 744 c 0
 449.890377329 744 469.27301451 740.473047208 487.05017075 733.147919632 c 0
 555.923574223 704.768438671 583.843005022 637.724162131 583.843005022 556.793411143 c 0
 583.843005022 492.370563843 566.15172527 419.148486142 537.343848595 349.625477101 c 0
448.656151405 386.374522899 m 0
 476.32607429 453.151270128 486.266689111 507.374296653 486.266689111 548.655437654 c 0
 486.266689111 605.041861689 467.720317096 637.282392554 450.476323931 644.387828775 c 0
 445.255549857 646.539063519 438.765084856 648 430 648 c 0
 355.820390663 648 212.706985186 524.261846741 140.343848595 349.625477101 c 0
 112.67392571 282.848729872 102.733310889 228.625703347 102.733310889 187.344562346 c 0
 102.733310889 130.958138311 121.279682904 98.7176074458 138.523676069 91.6121712246 c 0
 143.744450143 89.4609364813 150.234915144 88 159 88 c 0
 233.179609337 88 376.293014814 211.738153259 448.656151405 386.374522899 c 0
EndSplineSet
EndChar

StartChar: P
Encoding: 80 80 48
Width: 544
VWidth: 0
Flags: HW
AnchorPoint: "above" -152 0 basechar 0
LayerCount: 2
Fore
SplineSet
180.702051211 400 m 1
 301 400 l 2
 354.413827453 400 426.367587304 440.281242417 466.599048718 538.236104991 c 0
 479.212796451 568.947838603 483.579676144 589.827084852 483.579676144 604.139538784 c 0
 483.579676144 627.191414838 472.251615242 633.20846774 465.80638659 635.835025444 c 0
 460.17277444 638.130833428 451.563659485 640 440 640 c 2
 280.077051211 640 l 1
 180.702051211 400 l 1
140.952051211 304 m 1
 27.3485857884 29.636913697 l 2
 19.7644870853 11.320599848 1.51597723681 0.0910050070592 -17.3942276852 0.0910050070592 c 0
 -23.4246880523 0.0910050070592 -29.5224408735 1.23302196346 -35.363086303 3.65141421163 c 0
 -53.6783132946 11.2350628878 -64.9090644547 29.4832294989 -64.9090644547 48.3941454934 c 0
 -64.9090644547 54.4245055129 -63.767053801 60.5222578952 -61.3485857884 66.363086303 c 2
 71.9173101654 388.212797286 l 1
 203.651414212 706.363086303 l 2
 211.228420246 724.662270688 230.388488832 736 248 736 c 2
 440 736 l 2
 461.436340515 736 482.429266376 732.72630943 502.035450145 724.736403127 c 0
 554.162895662 703.493441704 577.475246601 657.967188638 577.475246601 603.030386042 c 0
 577.475246601 571.443570943 569.768501587 536.745756621 555.400951282 501.763895009 c 0
 503.632412696 375.718757583 401.586172547 304 301 304 c 2
 140.952051211 304 l 1
EndSplineSet
EndChar

StartChar: Q
Encoding: 81 81 49
Width: 588
VWidth: 0
Flags: HW
HStem: 40 656<226.183 362.617>
VStem: 96 397<233.016 502.984>
AnchorPoint: "above" -152 0 basechar 0
LayerCount: 2
Fore
SplineSet
220.103368678 202.957929582 m 0
 229.421696313 212.824394138 242.227517816 217.807518007 255.048102167 217.807518007 c 0
 266.925893869 217.807518007 278.81635701 213.530338751 287.957929582 204.896631322 c 0
 295.246128925 198.013331943 300.71741342 190.031271488 304.541573947 182.225915157 c 0
 305.72499327 179.810480597 306.815924264 177.385743621 307.820377551 174.955823489 c 1
 360.796520797 227.512224916 413.21288096 300.838096802 448.656151405 386.374522899 c 0
 476.32607429 453.151270128 486.266689111 507.374296653 486.266689111 548.655437654 c 0
 486.266689111 605.041861689 467.720317096 637.282392554 450.476323931 644.387828775 c 0
 445.255549857 646.539063519 438.765084856 648 430 648 c 0
 355.820390663 648 212.706985186 524.261846741 140.343848595 349.625477101 c 0
 112.67392571 282.848729872 102.733310889 228.625703347 102.733310889 187.344562346 c 0
 102.733310889 130.958138311 121.279682904 98.7176074458 138.523676069 91.6121712246 c 0
 143.744450143 89.4609364813 150.234915144 88 159 88 c 0
 174.511480774 88 193.037144641 93.4105456321 213.299808934 103.565634622 c 1
 215.407568469 120.445994828 218.405168705 133.200583757 218.405168705 137.988250072 c 0
 218.405168705 147.748566156 207.316146358 158.547377048 207.316146358 170.360128466 c 0
 207.316146358 182.027255208 211.408933981 193.75205755 220.103368678 202.957929582 c 0
314.573186979 50.0296705242 m 1
 337.047527666 45.3788899034 352.986442083 25.1369599313 352.986442083 2.82522709568 c 0
 352.986442083 0.305420838024 352.783147205 -2.24078497921 352.36301209 -4.79391338183 c 0
 348.535760495 -28.0518269188 327.749001064 -44.9833739187 304.790763358 -44.9833739187 c 0
 302.282034946 -44.9833739187 299.747377539 -44.7811992032 297.206086618 -44.3630120896 c 0
 276.767065902 -40.9996289338 256.961245924 -31.8195172868 242.613200157 -16.6893286949 c 0
 236.51114168 -10.2546338906 231.518969255 -3.36334931813 227.45889289 3.80885206154 c 1
 204.636716577 -3.87090556139 155.196083091 -8.65615861047 159 -8 c 1
 139.109622671 -8 119.72698549 -4.47304720797 101.94982925 2.85208036826 c 0
 33.0764257768 31.2315613293 5.15699497831 98.2758378688 5.15699497831 179.206588857 c 0
 5.15699497831 243.629436157 22.8482747303 316.851513858 51.6561514046 386.374522899 c 0
 129.293014814 573.738153259 284.179609337 744 430 744 c 0
 449.890377329 744 469.27301451 740.473047208 487.05017075 733.147919632 c 0
 555.923574223 704.768438671 583.843005022 637.724162131 583.843005022 556.793411143 c 0
 583.843005022 492.370563843 566.15172527 419.148486142 537.343848595 349.625477101 c 0
 487.397782801 229.088971651 405.480174942 115.630424744 314.573186979 50.0296705242 c 1
EndSplineSet
EndChar

StartChar: R
Encoding: 82 82 50
Width: 563
VWidth: 0
Flags: HW
AnchorPoint: "above" -152 0 basechar 0
LayerCount: 2
Fore
SplineSet
193.952051211 432 m 1
 333 432 l 2
 391.700418862 432 453.379690604 458.745493932 492.599048718 554.236104991 c 0
 504.610788513 583.482080145 508.661508784 601.65397676 508.661508784 613.1438096 c 0
 508.661508784 630.733278859 499.168359659 632.662859597 494.211072862 634.689817804 c 0
 487.137958982 637.581905111 474.983717752 640 459 640 c 2
 280.077051211 640 l 1
 193.952051211 432 l 1
154.202051211 336 m 1
 27.3485857884 29.636913697 l 2
 19.7644870853 11.320599848 1.51597723681 0.0910050070592 -17.3942276852 0.0910050070592 c 0
 -23.4246880523 0.0910050070592 -29.5224408735 1.23302196346 -35.363086303 3.65141421163 c 0
 -53.6783132946 11.2350628878 -64.9090644547 29.4832294989 -64.9090644547 48.3941454934 c 0
 -64.9090644547 54.4245055129 -63.767053801 60.5222578952 -61.3485857884 66.363086303 c 2
 85.3204893561 420.582739482 l 1
 203.651414212 706.363086303 l 2
 211.228420246 724.662270688 230.388488832 736 248 736 c 2
 459 736 l 2
 483.514552144 736 507.709205205 732.885594081 530.544120919 723.548748806 c 0
 579.153928812 703.67294717 601.739955351 661.955943888 601.739955351 610.50103347 c 0
 601.739955351 581.903926789 594.763571433 550.29897016 581.400951282 517.763895009 c 0
 539.903758909 416.727252709 469.020053282 362.208797096 394.294350981 343.516446712 c 1
 372.877291046 44.5699851191 l 2
 371.089132015 19.6102653071 349.614171806 0.00302407925964 324.912645287 0.00302407925964 c 0
 323.804424256 0.00302407925964 322.689708724 0.0424899493112 321.569985119 0.122708953861 c 0
 295.492350094 1.99095743328 275.254325106 25.3504903312 277.122708954 51.4300148809 c 2
 297.509812365 336 l 1
 154.202051211 336 l 1
EndSplineSet
EndChar

StartChar: S
Encoding: 83 83 51
Width: 537
VWidth: 0
Flags: HW
AnchorPoint: "bottom" -152 0 basechar 0
AnchorPoint: "above" -152 0 basechar 0
LayerCount: 2
Fore
SplineSet
507.989270982 528.514742513 m 0
 483.181634855 532.177344838 466.918535766 556.334859846 466.918535766 576.060459011 c 0
 466.918535766 585.165481661 467.874218856 585.833026255 467.874218856 593.588370971 c 0
 467.874218856 616.874124929 465.80575427 648 405 648 c 0
 334.255363626 648 258.624967792 603.099922701 226.307692308 525.538461538 c 0
 222.93138387 517.435321288 220.377572706 509.445076851 218.897946623 502.201743636 c 0
 217.644892017 496.067564092 216.389929046 489.848337236 216.389929046 483.691413983 c 0
 216.389929046 463.856189984 229.414926592 444.667602012 297.490232056 431.052540919 c 0
 315.367906271 427.416403791 331.353445079 422.720049609 346.115876144 416.700623689 c 0
 417.539842204 387.577285484 440.600753413 333.633150229 440.600753413 280.799190631 c 0
 440.600753413 251.210013107 433.367795616 221.969037508 423.346314604 197.63115505 c 0
 377.092023212 86.6208557083 265.786822999 -8 133 -8 c 0
 -44.6652872949 -8 -34.8654757001 171.676062264 -34.8654757001 171.676062264 c 1
 -32.4536615317 197.530539979 -11.3226750947 216.000487723 12.9880883655 216.000487723 c 0
 13.951445267 216.000487723 14.9197953103 215.971484725 15.8921715544 215.912788937 c 0
 40.973303356 214.398810361 61.0099691318 192.598098371 61.0099691318 168.308338977 c 0
 61.0099691318 165.812228034 60.8413487702 163.83946591 60.8413487702 160.380685031 c 0
 60.8413487702 138.69177769 66.3264787108 88 133 88 c 0
 218.213177001 88 300.907976788 153.379144292 334.653685396 234.36884495 c 0
 342.905398504 254.40871964 347.657981647 270.39684926 347.657981647 283.517019612 c 0
 347.657981647 303.571764203 336.553838645 316.925683394 309.869026755 327.806496158 c 0
 301.607571809 331.175129402 291.057180837 334.395442899 278.509767944 336.947459081 c 0
 169.208788508 358.807654968 121.697171055 423.03172704 121.697171055 490.857971199 c 0
 121.697171055 501.006381793 122.760824957 511.235435072 124.840307165 521.41529249 c 0
 127.828638714 536.044313581 132.388060574 549.731345379 137.692307692 562.461538462 c 0
 185.375032208 676.900077299 295.744636374 744 405 744 c 0
 541.815285554 744 563.866943214 631.061651906 563.866943214 590.55936264 c 0
 563.866943214 578.61461127 562.922514982 571.95087793 562.370564098 568.212389425 c 0
 558.348096813 546.019805144 538.407290645 528.009809974 514.832883908 528.009809974 c 0
 512.581258985 528.009809974 510.296486794 528.174104898 507.989270982 528.514742513 c 0
EndSplineSet
EndChar

StartChar: T
Encoding: 84 84 52
Width: 550
VWidth: 0
Flags: HW
AnchorPoint: "bottom" -152 0 basechar 0
AnchorPoint: "above" -152 0 basechar 0
LayerCount: 2
Fore
SplineSet
161 688 m 0
 161 714.144471708 182.853633925 736 209 736 c 2
 606 736 l 2
 632.144471708 736 654 714.146366075 654 688 c 0
 654 661.853633925 632.144471708 640 606 640 c 2
 439.912622874 640 l 1
 187.352807956 29.6471139491 l 2
 179.771904201 11.3265965416 161.520722439 0.0908448992775 142.605887875 0.0908448992775 c 0
 136.579107759 0.0908448992775 130.48495144 1.23153515099 124.647113949 3.64719204375 c 0
 106.325509138 11.2285457585 95.0909143421 29.4800714362 95.0909143421 48.3941946375 c 0
 95.0909143421 54.4210748793 96.2316108437 60.5152314841 98.6471920437 66.3528860509 c 2
 336.018411609 640 l 1
 209 640 l 2
 182.853633925 640 161 661.855528292 161 688 c 0
EndSplineSet
EndChar

StartChar: U
Encoding: 85 85 53
Width: 569
VWidth: 0
Flags: HW
AnchorPoint: "above" -152 0 basechar 0
LayerCount: 2
Fore
SplineSet
605.408174494 732.329889598 m 0
 623.700004819 724.734129548 634.908663578 706.499303637 634.908663578 687.605711272 c 0
 634.908663578 681.559521243 633.760805617 675.445868162 631.329889598 669.591825506 c 2
 435.352546201 197.646386305 l 2
 388.47488072 83.9680475128 267.19623505 -8 149 -8 c 0
 124.607250806 -8 101.420689567 -3.84792991504 80.4264332304 4.71780226661 c 0
 19.1329450957 29.7257661319 -10.2612188414 85.3817987084 -10.2612188414 147.693664858 c 0
 -10.2612188414 175.957270476 -4.21373488291 205.590231142 7.64745379882 234.353613695 c 2
 203.670110402 706.408174494 l 2
 211.265870452 724.700004819 229.500696363 735.908663578 248.394288728 735.908663578 c 0
 254.440478757 735.908663578 260.554131838 734.760805617 266.408174494 732.329889598 c 0
 284.701089264 724.733679228 295.908594034 706.498513073 295.908594034 687.605630501 c 0
 295.908594034 681.559339141 294.760729535 675.445684944 292.329889598 669.591825506 c 2
 96.3525462012 197.646386305 l 2
 87.8900227693 177.124766983 84.3656567774 160.021580406 84.3656567774 145.926593574 c 0
 84.3656567774 116.991420572 99.2183024168 100.733626964 116.692379355 93.6041406527 c 0
 124.815072267 90.2900526961 135.431210732 88 149 88 c 0
 218.80376495 88 313.52511928 154.031952487 346.647453799 234.353613695 c 2
 542.670110402 706.408174494 l 2
 550.266320772 724.701089264 568.501486927 735.908594034 587.394369499 735.908594034 c 0
 593.440660859 735.908594034 599.554315056 734.760729535 605.408174494 732.329889598 c 0
EndSplineSet
EndChar

StartChar: V
Encoding: 86 86 54
Width: 550
VWidth: 0
Flags: HW
AnchorPoint: "above" -152 0 basechar 0
LayerCount: 2
Fore
SplineSet
214.43972823 735.690768046 m 0
 238.64003525 732.930420526 256.992136993 711.746232452 256.992136993 687.856577747 c 0
 256.992136993 686.103639009 256.893327302 684.336133747 256.690768046 682.56027177 c 2
 202.236612016 205.153972332 l 1
 566.936669724 715.893659275 l 2
 576.2055646 728.874168511 591.16622469 735.828894244 606.255618258 735.828894244 c 0
 615.899860083 735.828894244 625.5966896 732.987885184 633.893659275 727.063330276 c 0
 646.874759953 717.794013073 653.828843971 702.83348242 653.828843971 687.744621528 c 0
 653.828843971 678.100055031 650.987705194 668.403058334 645.063330276 660.106340725 c 2
 188.063330276 20.1063407249 l 2
 180.207586587 9.10486159754 164.840070741 0 149 0 c 2
 136 0 l 2
 112.380740971 0 88.0073875527 20.8665015965 88.0073875527 48.1610385455 c 0
 88.0073875527 49.8958694081 88.1058516953 51.6566684245 88.3092319544 53.4397282302 c 2
 161.309231954 693.43972823 l 2
 164.06977444 717.641744542 185.255351129 735.992123362 209.143629186 735.992123362 c 0
 210.896513745 735.992123362 212.663950716 735.893317668 214.43972823 735.690768046 c 0
EndSplineSet
EndChar

StartChar: W
Encoding: 87 87 55
Width: 697
VWidth: 0
Flags: HW
AnchorPoint: "above" -152 0 basechar 0
LayerCount: 2
Fore
SplineSet
218.554876366 735.03939134 m 0
 241.066273467 730.466763804 256.974726973 710.020342345 256.974726973 687.744686248 c 0
 256.974726973 684.667399214 256.671126133 681.555202617 256.03939134 678.445123634 c 2
 175.060184469 279.778259039 l 1
 436.925525654 712.837221206 l 2
 445.541252958 727.085452406 461.370912542 736 478 736 c 2
 485 736 l 2
 512.324790199 736 532.93352931 712.561748977 532.93352931 687.431458335 c 0
 532.93352931 684.121567523 532.576022982 680.782324365 531.829268293 677.463414634 c 2
 442.584473954 280.819884241 l 1
 712.267502856 713.394166188 l 2
 721.276988226 727.845471042 737.192010202 735.847207851 753.325768739 735.847207851 c 0
 761.960992295 735.847207851 770.658876869 733.554966579 778.394166188 728.732497144 c 0
 792.846185969 719.722566062 800.847144938 703.807584185 800.847144938 687.674392342 c 0
 800.847144938 679.038902799 798.554824259 670.340894848 793.732497144 662.605833812 c 2
 394.732497144 22.6058338117 l 2
 386.242393922 8.98762313006 370.525089605 0 354 0 c 2
 341 0 l 2
 319.797299083 0 293.008016817 20.0491213787 293.008016817 48.2677038027 c 0
 293.008016817 51.5842451779 293.378067774 55.0136345512 294.170731707 58.5365853659 c 2
 377.552159085 429.120707046 l 1
 132.074474346 23.1627787941 l 2
 123.46988427 8.93296574875 107.650611079 0 91 0 c 2
 79 0 l 2
 59.2862525228 0 31.0051437428 19.2801414667 31.0051437428 48.2355890048 c 0
 31.0051437428 51.2413411363 31.3098926775 54.3513515288 31.9606086601 57.5548763659 c 2
 161.96060866 697.554876366 l 2
 166.533547572 720.067806393 186.980992849 735.974693064 209.255558776 735.974693064 c 0
 212.332805788 735.974693064 215.444924525 735.671100308 218.554876366 735.03939134 c 0
EndSplineSet
EndChar

StartChar: X
Encoding: 88 88 56
Width: 505
VWidth: 0
Flags: HW
AnchorPoint: "above" -152 0 basechar 0
LayerCount: 2
Fore
SplineSet
-89.3145102276 13.4436198612 m 0
 -98.9557074819 22.7383365892 -103.807112253 35.3800100227 -103.807112253 48.0309164636 c 0
 -103.807112253 60.0777692007 -99.4079353546 72.1329942825 -90.5563801388 81.3145102276 c 2
 201.805408999 384.574712899 l 1
 161.437442715 681.534464869 l 2
 161.150614762 683.644463607 161.011263246 685.745775425 161.011263246 687.827722499 c 0
 161.011263246 711.309420936 178.738103789 732.327739451 202.534464869 735.562557285 c 0
 204.644367013 735.849372108 206.745604983 735.98871846 208.827497472 735.98871846 c 0
 232.30789838 735.98871846 253.327512714 718.263564155 256.562557285 694.465535131 c 2
 286.715592241 472.650105565 l 1
 526.443619861 721.314510228 l 2
 535.738336589 730.955707482 548.380010023 735.807112253 561.030916464 735.807112253 c 0
 573.077769201 735.807112253 585.132994282 731.407935355 594.314510228 722.556380139 c 0
 603.956065506 713.261318253 608.807106087 700.619868178 608.807106087 687.969419716 c 0
 608.807106087 675.922130758 604.40762233 663.866681024 595.556380139 654.685489772 c 2
 303.194591001 351.425287101 l 1
 343.562557285 54.4655351309 l 2
 343.849372108 52.3556329866 343.98871846 50.2543950168 343.98871846 48.1725025278 c 0
 343.98871846 24.69210162 326.263564155 3.67248728563 302.465535131 0.437442715188 c 0
 300.355536393 0.150614761687 298.254224575 0.0112632464415 296.172277501 0.0112632464415 c 0
 272.690579064 0.0112632464415 251.672260549 17.7381037895 248.437442715 41.5344648691 c 2
 218.284407759 263.349894435 l 1
 -21.4436198612 14.6854897724 l 2
 -30.7386817469 5.04393449389 -43.3801318219 0.192893912726 -56.0305802844 0.192893912726 c 0
 -68.0778692416 0.192893912726 -80.1333189757 4.59237766997 -89.3145102276 13.4436198612 c 0
EndSplineSet
EndChar

StartChar: Y
Encoding: 89 89 57
Width: 524
VWidth: 0
Flags: HW
AnchorPoint: "middle" -152 0 basechar 0
AnchorPoint: "above" -152 0 basechar 0
LayerCount: 2
Fore
SplineSet
199.705614469 735.091553357 m 0
 202.731727937 735.688812594 205.758172877 735.976089205 208.751064527 735.976089205 c 0
 231.126243365 735.976089205 251.626055734 719.919573488 256.091553357 697.294385531 c 2
 298.940937726 480.190838063 l 1
 547.502493108 722.379020231 l 2
 556.702961586 731.343579261 568.843567878 735.806967382 580.978331879 735.806967382 c 0
 593.541097876 735.806967382 606.097602191 731.023172775 615.379020231 721.497506892 c 0
 624.343898496 712.296710777 628.806971762 700.156329419 628.806971762 688.022004927 c 0
 628.806971762 675.458783982 624.022821601 662.902055639 614.497506892 653.620979769 c 2
 309.576283978 356.518249751 l 1
 174.354415995 29.6510005257 l 2
 166.774558614 11.3284675754 148.522228278 0.0908103649519 129.605900683 0.0908103649519 c 0
 123.580484482 0.0908103649519 117.487698252 1.23099774271 111.651000526 3.6455840046 c 0
 93.3273799643 11.2258913202 82.0908798006 29.4785658302 82.0908798006 48.3941819519 c 0
 82.0908798006 54.4196981937 83.2310734081 60.5124846511 85.6455840046 66.3489994743 c 2
 219.098828248 388.941014336 l 1
 161.908446643 678.705614469 l 2
 161.311162758 681.731852816 161.023878243 684.758375986 161.023878243 687.751309735 c 0
 161.023878243 710.127594529 177.081971382 730.626360643 199.705614469 735.091553357 c 0
EndSplineSet
EndChar

StartChar: Z
Encoding: 90 90 58
Width: 505
VWidth: 0
Flags: HW
AnchorPoint: "above" -152 0 basechar 0
LayerCount: 2
Fore
SplineSet
168 688 m 0
 168 714.144471708 189.853633925 736 216 736 c 2
 555 736 l 2
 581.354847908 736 602.996663789 713.865582227 602.996663789 687.910164833 c 0
 602.996663789 674.529403548 596.825306223 662.298593863 589.718602879 654.854583814 c 2
 56.1871173939 96 l 1
 296 96 l 2
 322.144471708 96 344 74.1463660754 344 48 c 0
 344 21.8536339246 322.144471708 0 296 0 c 2
 -56 0 l 2
 -66.7065688432 0 -77.7836599433 3.83331141915 -86.319324781 10.7879247444 c 0
 -97.8671768023 20.1967812393 -103.781601044 34.1362440173 -103.781601044 48.1123470976 c 0
 -103.781601044 60.0241987667 -99.4852591274 71.9626665966 -90.7186028789 81.1454161859 c 2
 442.812882606 640 l 1
 216 640 l 2
 189.853633925 640 168 661.855528292 168 688 c 0
EndSplineSet
EndChar

StartChar: bracketleft
Encoding: 91 91 59
Width: 249
VWidth: 0
Flags: HW
LayerCount: 2
Fore
SplineSet
399 768 m 0
 399 741.855528292 377.146366075 720 351 720 c 2
 287.086314595 720 l 1
 -4.19368540503 16 l 1
 20 16 l 2
 46.1444717079 16 68 -5.85363392464 68 -32 c 0
 68 -58.1463660754 46.1444717079 -80 20 -80 c 2
 -76 -80 l 2
 -80.1984304915 -80 -86.0854003792 -79.1911792087 -90.814840819 -77.6565492729 c 0
 -111.045423563 -71.0920395189 -123.9069894 -51.7628803279 -123.9069894 -31.5709723836 c 0
 -123.9069894 -25.5689291168 -122.770573311 -19.4906555079 -120.35348336 -13.6487462598 c 2
 210.64651664 786.35125374 l 2
 217.384997678 802.637612744 235.192782523 816 255 816 c 2
 351 816 l 2
 377.146366075 816 399 794.144471708 399 768 c 0
EndSplineSet
EndChar

StartChar: backslash
Encoding: 92 92 60
Width: 460
VWidth: 0
Flags: HW
LayerCount: 2
Fore
SplineSet
240.274550439 0.0169246381843 m 0
 239.858869957 0.00588312536099 239.444127264 0.000396745845355 239.030394892 0.000396745845355 c 0
 213.431358382 0.000396745845355 191.700150291 21.0040132079 191.016924638 46.7254495607 c 2
 174.016924638 686.725449561 l 2
 173.322706974 712.860702816 194.588302606 735.288807396 220.725449561 735.983075362 c 0
 221.141153136 735.994117488 221.555918007 735.999604164 221.969671671 735.999604164 c 0
 247.570465261 735.999604164 269.299899023 714.994130238 269.983075362 689.274550439 c 2
 286.983075362 49.2745504393 l 2
 287.677343328 23.1374034845 266.409803695 0.711142302779 240.274550439 0.0169246381843 c 0
EndSplineSet
EndChar

StartChar: bracketright
Encoding: 93 93 61
Width: 249
VWidth: 0
Flags: HW
LayerCount: 2
Fore
SplineSet
182 768 m 0
 182 794.144471708 203.853633925 816 230 816 c 2
 326 816 l 2
 352.354847908 816 373.996663789 793.865582227 373.996663789 767.910164833 c 0
 373.996663789 761.815903652 370.468759459 750.162423431 370.333880642 749.601439534 c 2
 38.3338806418 -50.3985604664 l 2
 30.7438350209 -68.687827023 11.570073846 -80 -6 -80 c 2
 -102 -80 l 2
 -128.144471708 -80 -150 -58.1463660754 -150 -32 c 0
 -150 -5.85363392464 -128.144471708 16 -102 16 c 2
 -38.0492832354 16 l 1
 254.110716765 720 l 1
 230 720 l 2
 203.853633925 720 182 741.855528292 182 768 c 0
EndSplineSet
EndChar

StartChar: asciicircum
Encoding: 94 94 62
Width: 409
VWidth: 0
Flags: HW
LayerCount: 2
Fore
SplineSet
91.054981661 412.173811209 m 0
 80.5526188528 421.538418046 75.1904236292 434.800958268 75.1904236292 448.09544511 c 0
 75.1904236292 459.502485468 79.1381352547 470.933045307 87.1738112086 479.945018339 c 2
 301.173811209 719.945018339 l 2
 310.56544599 730.47769286 323.794372257 735.77836567 337.032611986 735.77836567 c 0
 349.677762057 735.77836567 362.331409775 730.942007117 371.657365918 721.209441243 c 0
 379.472596503 713.053468243 384.194312499 701.683538674 384.893687577 691.192912505 c 2
 400.893687577 451.192912505 l 2
 402.632791966 425.106346675 382.281368507 401.845542823 356.192912505 400.106312423 c 0
 355.15059598 400.036824655 354.112795926 400.002602439 353.080704342 400.002602439 c 0
 328.280263078 400.002602439 306.775934078 419.762762672 305.106312423 444.807087495 c 2
 296.713767779 570.69525716 l 1
 158.826188791 416.054981661 l 2
 149.461214938 405.552207245 136.198887813 400.190442698 122.904880041 400.190442698 c 0
 111.497429084 400.190442698 100.066651098 404.13840596 91.054981661 412.173811209 c 0
EndSplineSet
EndChar

StartChar: underscore
Encoding: 95 95 63
Width: 460
VWidth: 0
Flags: HW
LayerCount: 2
Fore
SplineSet
-202 -96 m 0
 -202 -69.8555282921 -180.146366075 -48 -154 -48 c 2
 230 -48 l 2
 256.144471708 -48 278 -69.8536339246 278 -96 c 0
 278 -122.146366075 256.144471708 -144 230 -144 c 2
 -154 -144 l 2
 -180.146366075 -144 -202 -122.144471708 -202 -96 c 0
EndSplineSet
EndChar

StartChar: grave
Encoding: 96 96 64
Width: 307
VWidth: 0
Flags: HW
LayerCount: 2
Fore
SplineSet
212.499440131 735.050391732 m 0
 215.591919291 735.67483464 218.686165652 735.974987331 221.745814757 735.974987331 c 0
 244.041346794 735.974987331 264.499773297 720.036955932 269.050391732 697.500559869 c 2
 311.050391732 489.500559869 l 2
 311.67483464 486.408080709 311.974987331 483.313834348 311.974987331 480.254185243 c 0
 311.974987331 457.958653206 296.036955932 437.500226703 273.500559869 432.949608268 c 0
 270.407954035 432.325139782 267.313629726 432.024979043 264.253940154 432.024979043 c 0
 241.95731468 432.024979043 221.499916666 447.964579492 216.949608268 470.499440131 c 2
 174.949608268 678.499440131 l 2
 174.325139782 681.592045965 174.024979043 684.686370274 174.024979043 687.746059846 c 0
 174.024979043 710.04268532 189.964579492 730.500083334 212.499440131 735.050391732 c 0
EndSplineSet
EndChar

StartChar: a
Encoding: 97 97 65
Width: 470
VWidth: 0
Flags: HW
AnchorPoint: "above" -152 0 basechar 0
LayerCount: 2
Fore
SplineSet
420.374038884 524.344049151 m 0
 438.683584198 516.757455144 449.908967105 498.512527261 449.908967105 479.605819073 c 0
 449.908967105 473.571614577 448.765537665 467.470000435 446.344049151 461.625961116 c 2
 267.344049151 29.6259611158 l 2
 259.757455144 11.3164158024 241.512527261 0.0910328950783 222.605819073 0.0910328950783 c 0
 216.571614577 0.0910328950783 210.470000435 1.23446233525 204.625961116 3.65595084928 c 0
 196.475140301 7.03325854795 189.72849688 12.522503345 184.751008229 19.2418540737 c 1
 154.853503757 2.12280081358 123.291313767 -8 91 -8 c 0
 5.74072117079 -8 -32.7999608125 68.1128528768 -32.7999608125 140.593635705 c 0
 -32.7999608125 140.642203928 -32.7999088992 140.690770521 -32.7999088992 140.739335458 c 0
 -32.7690053881 184.105744555 -22.0480624724 232.035300949 -1.39195926885 282.257983248 c 0
 52.6874218299 413.745105919 164.304153507 536 277 536 c 0
 312.295203847 536 339.633760787 522.895264386 359.526842942 502.350263307 c 1
 367.967686996 518.296190936 384.898043373 527.908897611 402.394262785 527.908897611 c 0
 408.428567863 527.908897611 414.530182604 526.765461815 420.374038884 524.344049151 c 0
232.816353293 197.085177743 m 2
 303.586118792 367.881483304 l 2
 304.331426594 374.794497361 304.687831139 381.288755459 304.70104315 387.296067003 c 0
 304.70104315 387.474047926 304.701629909 387.651431274 304.701629909 387.828219041 c 0
 304.701629909 436.306933157 290.014099396 440 277 440 c 0
 233.695846493 440 135.31257817 362.254894081 87.3919592689 245.742016752 c 0
 70.5343846609 204.754972607 63.2195185948 167.9674255 63.2000667255 140.67092453 c 0
 63.2000667255 140.612260084 63.2000040315 140.553660599 63.2000040315 140.495126004 c 0
 63.2000040315 91.7163179884 85.5019030049 98.3821344028 91 88 c 1
 119.774872787 88 181.393016548 124.758375437 231.871340403 195.801942345 c 0
 232.180042853 196.236412459 232.495116308 196.664169307 232.816353293 197.085177743 c 2
EndSplineSet
EndChar

StartChar: b
Encoding: 98 98 66
Width: 470
VWidth: 0
Flags: HW
LayerCount: 2
Fore
SplineSet
266.415241976 732.326954136 m 0
 284.703403231 724.729298909 295.908600713 706.496566021 295.908600713 687.605689451 c 0
 295.908600713 681.557017248 294.75982461 675.440871023 292.326954136 669.584758024 c 2
 231.976990116 524.317587994 l 1
 251.854215212 531.830657625 272.277760322 536 293 536 c 0
 308.909630328 536 324.676639249 533.214386639 339.268768696 527.285482789 c 0
 395.902355179 504.274784442 417.406213647 451.772409387 417.406213647 391.020518144 c 0
 417.406213647 344.252885994 404.662748 292.596483472 385.391959269 245.742016752 c 0
 331.299840357 114.223923712 219.658132385 -8 107 -8 c 0
 101.882963683 -8 96.7867510319 -7.71608180169 91.7349414898 -7.12836704195 c 0
 60.6946048564 -3.51721269527 37.284801033 9.74861981859 20.3241606859 28.8249818612 c 1
 18.4685239603 25.5130002097 17.3016742099 23.5424430706 16.9022610449 22.8679051291 c 0
 7.38935882166 7.93908172029 -8.29535451123 0.0367607799526 -24.1678898259 0.0367607799526 c 0
 -32.5008944616 0.0367607799526 -40.8856665817 2.21479804852 -48.4563280771 6.6976027695 c 0
 -63.325425157 15.5020194809 -71.8915453619 31.3678478316 -71.8915453619 47.9889666931 c 0
 -71.8915453619 55.9492574233 -69.9267310495 64.0827894309 -65.7484927171 71.6968258003 c 0
 -64.7751375919 73.3542658528 -47.7184042754 102.229951253 -22.2765486507 162.536571993 c 2
 203.673045864 706.415241976 l 2
 211.271151457 724.704487297 229.504224121 735.908531156 248.394391097 735.908531156 c 0
 254.443164785 735.908531156 260.559312233 734.759748478 266.415241976 732.326954136 c 0
152.21040355 332.313061039 m 1
 80.3181220161 159.262613453 l 1
 79.4348035095 151.010776222 79.0402904728 143.710966522 79.0402904728 137.254012513 c 0
 79.0402904728 95.877485952 95.2402538647 89.111301934 102.828518776 88.2285023644 c 0
 104.046842196 88.0867656957 105.430469153 88 107 88 c 0
 150.341867615 88 248.700159643 165.776076288 296.608040731 282.257983248 c 0
 314.488254017 325.731443001 320.25150667 359.090787813 320.25150667 383.602790682 c 0
 320.25150667 419.485580046 307.901066027 436.408837687 303.132118786 438.34650071 c 0
 301.010798967 439.208410638 297.953591557 440 293 440 c 0
 264.215989616 440 202.652308716 403.251499584 152.21040355 332.313061039 c 1
EndSplineSet
EndChar

StartChar: c
Encoding: 99 99 67
Width: 422
VWidth: 0
Flags: HW
AnchorPoint: "middle" -152 0 basechar 0
AnchorPoint: "bottom" -152 0 basechar 0
AnchorPoint: "above" -152 0 basechar 0
LayerCount: 2
Fore
SplineSet
269.918515798 170.71573751 m 0
 281.058983835 161.334290741 286.812923437 147.622663509 286.812923437 133.859184668 c 0
 286.812923437 122.915910586 283.175419995 111.939857154 275.71573751 103.081484202 c 0
 223.681289593 41.2905773012 158.025859395 -8 88 -8 c 0
 72.4295755415 -8 56.9503635198 -5.23462992065 42.6360534298 0.648804542162 c 0
 -12.9412867498 23.4920737257 -33.9469406899 75.2291029467 -33.9469406899 135.183285314 c 0
 -33.9469406899 182.478085348 -20.8754829157 234.886278695 -1.39195926885 282.257983248 c 0
 52.5394259958 413.385272911 162.793716335 536 274 536 c 0
 345.051465433 536 393.99373503 473.449924918 393.99373503 408.127631718 c 0
 393.99373503 384.011901908 375.293032926 362.739836251 350.872657025 360.247961158 c 0
 349.281773233 360.085626078 347.698565064 360.006253725 346.127437431 360.006253725 c 0
 322.010284891 360.006253725 300.739659584 378.70869841 298.247961158 403.127342975 c 0
 294.609482163 438.784437133 284.761673872 440 274 440 c 0
 233.206283665 440 135.460574004 362.614727089 87.3919592689 245.742016752 c 0
 69.198813839 201.507702374 63.4568158534 167.712224362 63.4568158534 143.050653539 c 0
 63.4568158534 107.575211658 75.3384778071 91.0001591202 79.1313126274 89.441236968 c 0
 80.9000636698 88.7142490256 83.5213447039 88 88 88 c 0
 109.974140605 88 158.318710407 112.709422699 202.28426249 164.918515798 c 0
 211.666091853 176.059438166 225.377519728 181.812895365 239.140505124 181.812895365 c 0
 250.084169414 181.812895365 261.060431801 178.175176665 269.918515798 170.71573751 c 0
EndSplineSet
EndChar

StartChar: d
Encoding: 100 100 68
Width: 473
VWidth: 0
Flags: HW
AnchorPoint: "above" -152 0 basechar 0
LayerCount: 2
Fore
SplineSet
509.345684119 732.355787381 m 0
 527.669936272 724.776822796 538.909219092 706.523512817 538.909219092 687.605911649 c 0
 538.909219092 681.58165885 537.769460577 675.490041296 535.355787381 669.654315881 c 2
 310.291182804 125.498116371 l 2
 285.490666376 66.7117070583 279.335437105 39.6420819503 278.611134995 36.5293471443 c 0
 272.989322807 14.5109217302 253.211556808 0.0145400555882 231.850561721 0.0145400555882 c 0
 228.474539789 0.0145400555882 225.05897106 0.376638928662 221.653489702 1.12836972486 c 0
 209.258560828 3.86444394479 198.902401995 11.2616984288 192.22422107 21.2663514145 c 1
 161.302137871 2.9237381029 128.544475728 -8 95 -8 c 0
 9.74072117079 -8 -28.7999608125 68.1128528768 -28.7999608125 140.593635705 c 0
 -28.7999608125 184.062797017 -18.0698723493 231.982273013 2.60804073115 282.257983248 c 0
 56.5861456778 413.498865863 167.150727116 536 280 536 c 0
 315.189275414 536 342.469591441 522.97380656 362.347531551 502.535041893 c 1
 446.644212619 706.345684119 l 2
 454.223627117 724.671024061 472.477281489 735.909149662 491.39417109 735.909149662 c 0
 497.418523858 735.909149662 503.51014159 734.769384934 509.345684119 732.355787381 c 0
234.944757342 194.503445583 m 1
 306.561874354 367.657719604 l 1
 307.348030226 374.877835415 307.701629909 381.472277401 307.701629909 387.828219041 c 0
 307.701629909 436.306933157 293.014099396 440 280 440 c 0
 236.849272884 440 139.413854322 362.501134137 91.3919592689 245.742016752 c 0
 74.4967758517 204.663531581 67.2097941929 167.947414429 67.2000040315 140.495126004 c 0
 67.2000040315 91.7163179884 81.7062224422 88 95 88 c 0
 123.599043571 88 184.641206001 124.310522919 234.944757342 194.503445583 c 1
EndSplineSet
EndChar

StartChar: e
Encoding: 101 101 69
Width: 435
VWidth: 0
Flags: HW
AnchorPoint: "bottom" -152 0 basechar 0
AnchorPoint: "above" -152 0 basechar 0
LayerCount: 2
Fore
SplineSet
137.149120045 336 m 1
 282.83741325 336 l 1
 290.775440988 360.008793483 294.555741498 379.95426819 294.555741498 400.444795987 c 0
 294.555741498 404.374827264 294.416678352 408.324909009 294.141215001 412.32755565 c 0
 291.772929999 438.894652258 288.565515953 440.009353554 274.996912882 440.009353554 c 0
 273.753989914 440.009353554 272.424125323 440 271 440 c 0
 245.348757224 440 186.88451237 406.080075629 137.149120045 336 c 1
85.0573580583 240 m 1
 67.5486849925 195.847928768 62.0781878972 163.062072908 62.0781878972 139.547854617 c 0
 62.0781878972 104.889795835 73.9625032814 90.3737941793 76.7014390002 89.2930155782 c 0
 78.329107397 88.6507408578 80.8048206572 88 85 88 c 0
 144.254454364 88 208.27210901 154.237037508 212.965837197 159.715204051 c 0
 222.138659019 169.894664897 235.764106139 175.659846665 249.569929616 175.659846665 c 0
 260.24686128 175.659846665 271.031674675 172.211735185 279.948269467 164.690661169 c 0
 291.228143249 155.176180856 296.621905523 141.661355312 296.621905523 128.198729152 c 0
 296.621905523 117.256730621 293.058825852 106.34921462 286.197013193 97.6520283948 c 0
 283.844377149 94.8628652706 203.541653557 -8 85 -8 c 0
 69.7730975292 -8 54.5882337261 -5.33840340448 40.4805016128 0.387571340841 c 0
 -14.2694002896 22.6091837932 -35.2097326609 72.9687902011 -35.2097326609 132.242349023 c 0
 -35.2097326609 179.852319312 -21.6996693288 233.213299639 -1.34858578837 282.363086303 c 0
 6.33039566895 300.908550955 14.9153337013 318.807737889 24.2334340231 335.941135205 c 0
 83.1279823176 444.231844773 175.07945398 536 271 536 c 0
 336.1912072 536 384.22860746 488.655489174 389.857286652 419.704169066 c 0
 390.319021878 413.393787655 390.544471423 407.140400378 390.544471423 400.928967766 c 0
 390.544471423 356.811877764 379.171353976 314.811249542 360.307692308 269.538461538 c 0
 352.694553796 251.266929112 333.496591343 240 316 240 c 2
 85.0573580583 240 l 1
EndSplineSet
EndChar

StartChar: f
Encoding: 102 102 70
Width: 300
VWidth: 0
Flags: HW
AnchorPoint: "above" -152 0 basechar 0
LayerCount: 2
Fore
SplineSet
66 480 m 0
 66 506.144471708 87.8536339246 528 114 528 c 2
 158.198661018 528 l 1
 205.631895144 642.316078897 l 2
 236.781359524 718.15825304 306.903121443 752 354 752 c 0
 376.754656643 752 391.163713745 746.260569757 394.774838787 744.98032504 c 0
 414.448497382 737.271950799 425.991055406 719.015892216 425.991055406 699.898308647 c 0
 425.991055406 694.583015559 425.098797293 689.201125218 423.240961041 683.960815354 c 0
 416.501455209 664.951013579 399.699221009 652.206076628 378.62706595 652.206076628 c 0
 372.978174874 652.206076628 367.022432248 653.121972678 360.871434898 655.078601564 c 1
 360.871434898 655.078601564 358.533644836 655.892075575 354.117108067 656.002145027 c 0
 346.447560367 655.550829799 308.722065146 640.632693982 294.368104856 605.683921103 c 2
 262.134672315 528 l 1
 280 528 l 2
 306.144471708 528 328 506.146366075 328 480 c 0
 328 453.853633925 306.144471708 432 280 432 c 2
 222.301338982 432 l 1
 55.3349705504 29.604066039 l 2
 47.7420447019 11.3047970485 29.503253936 0.0912970831655 10.6056683119 0.0912970831655 c 0
 4.56367567691 0.0912970831655 -1.54566080798 1.23757236009 -7.39593396101 3.66502944963 c 0
 -25.6941178519 11.2575050571 -36.9087724391 29.4959547664 -36.9087724391 48.394250531 c 0
 -36.9087724391 54.4361421026 -35.7625036357 60.5454776549 -33.3349705504 66.395933961 c 2
 118.365327685 432 l 1
 114 432 l 2
 87.8536339246 432 66 453.855528292 66 480 c 0
EndSplineSet
EndChar

StartChar: g
Encoding: 103 103 71
Width: 470
VWidth: 0
Flags: HW
LayerCount: 2
Fore
SplineSet
432.456328077 521.302397231 m 0
 447.809635841 512.211265555 455.626037606 495.897744459 455.626037606 479.658470558 c 0
 455.626037606 471.552362412 453.678443519 463.464754261 449.748492717 456.3031742 c 0
 448.414276329 454.031255531 431.471425693 425.184618034 406.287522475 365.489440035 c 2
 247.328193713 -18.4123350882 l 2
 214.733834156 -96.6387980267 144.064582378 -192 41 -192 c 0
 -25.9739934022 -192 -58.7506109644 -149.844432751 -63.3216257619 -143.539584754 c 0
 -69.1485567051 -134.922593505 -71.9021561682 -125.315310926 -71.9021561682 -115.902023329 c 0
 -71.9021561682 -100.884122426 -64.8934705167 -86.3599933549 -52.1744434301 -77.1386987171 c 0
 -43.820167544 -71.0818486996 -33.9951459714 -68.1552110905 -24.2123657116 -68.1552110905 c 0
 -9.77231364051 -68.1552110905 4.57570400014 -74.5317038488 13.9658835743 -86.6299877731 c 0
 15.2998170418 -88.0142101061 22.6373532312 -96 41 -96 c 0
 75.1147131097 -96 123.216201503 -54.5064824476 151.958270116 3.65707405779 c 1
 132.102831227 -3.83972412371 87.180952039 -8.73031804917 91 -8 c 1
 5.74072117079 -8 -32.7999608125 68.1128528768 -32.7999608125 140.593635705 c 0
 -32.7999608125 184.062797017 -22.0698723493 231.982273013 -1.39195926885 282.257983248 c 0
 52.6874218299 413.745105919 164.304153507 536 277 536 c 0
 314.530415229 536 343.064499259 521.182886306 363.216820383 498.358897349 c 1
 365.257428242 502.017145799 366.578154174 504.2546084 367.097738955 505.132094871 c 0
 376.033667515 519.155459805 392.118806291 527.800498716 408.699288061 527.800498716 c 0
 416.755799973 527.800498716 424.929263396 525.759387034 432.456328077 521.302397231 c 0
232.454557159 196.604639082 m 2
 303.659292974 368.570793503 l 1
 304.377972664 375.448429415 304.701629909 381.740953031 304.701629909 387.828219041 c 0
 304.701629909 436.306933157 290.014099396 440 277 440 c 0
 233.695846493 440 135.31257817 362.254894081 87.3919592689 245.742016752 c 0
 70.4988237217 204.668510716 63.2000040315 167.943679435 63.2000040315 140.495126004 c 0
 63.2000040315 91.7163179884 77.7062224422 88 91 88 c 0
 119.774872787 88 181.393016548 124.758375437 231.871340403 195.801942345 c 0
 232.063299167 196.072106531 232.257721381 196.339674927 232.454557159 196.604639082 c 2
EndSplineSet
EndChar

StartChar: h
Encoding: 104 104 72
Width: 467
VWidth: 0
Flags: HW
AnchorPoint: "above" -152 0 basechar 0
LayerCount: 2
Fore
SplineSet
266.363086303 732.348585788 m 0
 284.678313295 724.764937112 295.909064455 706.516770501 295.909064455 687.605854507 c 0
 295.909064455 681.575494487 294.767053801 675.477742105 292.348585788 669.636913697 c 2
 230.712782453 520.780633944 l 1
 254.237892347 530.078264839 279.588273237 536 306 536 c 0
 326.516615022 536 347.329541194 530.321903601 364.606993609 518.176378717 c 0
 396.661468369 495.64305543 408.890685526 458.129726049 408.890685526 422.14119292 c 0
 408.866349925 394.056579848 402.130572149 364.623435206 389.373052853 333.696115698 c 2
 263.342138456 29.6213505083 l 2
 255.753855085 11.3131112632 237.509948745 0.0911433716505 218.605722578 0.0911433716505 c 0
 212.569798855 0.0911433716505 206.466558246 1.23517675769 200.621350508 3.65786154388 c 0
 182.314197288 11.2456947866 171.091073881 29.4892589225 171.091073881 48.3941957204 c 0
 171.091073881 54.4300187566 172.235100884 60.5332586925 174.657861544 66.3786494917 c 2
 300.642372841 370.341279923 l 2
 309.958078498 392.924808788 312.419776168 409.803359759 312.419776168 421.247674301 c 0
 312.419776168 433.052747474 309.800432339 439.075577838 309.382662283 439.613326158 c 0
 309.007420044 439.734685837 308.058910741 440 306 440 c 0
 255.188924358 440 178.028180587 367.49058264 159.544325089 348.902095403 c 1
 27.3485857884 29.636913697 l 2
 19.7649371122 11.3216867054 1.51677050114 0.0909355452831 -17.3941454934 0.0909355452831 c 0
 -23.4245055129 0.0909355452831 -29.5222578952 1.232946199 -35.363086303 3.65141421163 c 0
 -53.679400152 11.2355129147 -64.9089949929 29.4840227632 -64.9089949929 48.3942276852 c 0
 -64.9089949929 54.4246880523 -63.7669780365 60.5224408735 -61.3485857884 66.363086303 c 2
 203.651414212 706.363086303 l 2
 211.235512915 724.679400152 229.484022763 735.908994993 248.394227685 735.908994993 c 0
 254.424688052 735.908994993 260.522440873 734.766978037 266.363086303 732.348585788 c 0
EndSplineSet
EndChar

StartChar: i
Encoding: 105 105 73
Width: 230
VWidth: 0
Flags: HW
LayerCount: 2
Fore
SplineSet
-35.3740388842 3.65595084928 m 0
 -53.6835841976 11.2425448565 -64.9089671049 29.4874727392 -64.9089671049 48.394180927 c 0
 -64.9089671049 54.4283854234 -63.7655376647 60.5299995654 -61.3440491507 66.3740388842 c 2
 117.655950849 498.374038884 l 2
 125.242544856 516.683584198 143.487472739 527.908967105 162.394180927 527.908967105 c 0
 168.428385423 527.908967105 174.529999565 526.765537665 180.374038884 524.344049151 c 0
 198.684670469 516.757005045 209.908897623 498.511734652 209.908897623 479.605737226 c 0
 209.908897623 473.571432143 208.765461823 467.469817398 206.344049151 461.625961116 c 2
 27.3440491507 29.6259611158 l 2
 19.757005045 11.315329531 1.51173465235 0.0911023771115 -17.3942627739 0.0911023771115 c 0
 -23.4285678566 0.0911023771115 -29.530182602 1.2345381768 -35.3740388842 3.65595084928 c 0
215.538461538 611.692307692 m 0
 197.274346334 619.302355694 186.09181128 637.521365246 186.09181128 656.394449251 c 0
 186.09181128 662.459387 187.246612456 668.591869894 189.692307692 674.461538462 c 2
 209.692307692 722.461538462 l 2
 217.302355694 740.725653666 235.521365246 751.90818872 254.394449251 751.90818872 c 0
 260.459387 751.90818872 266.591869894 750.753387544 272.461538462 748.307692308 c 0
 290.726735254 740.697193644 301.908119079 722.477847382 301.908119079 703.605471664 c 0
 301.908119079 697.540431419 300.753311085 691.407946603 298.307692308 685.538461538 c 2
 278.307692308 637.538461538 l 2
 270.697193644 619.273264746 252.477847382 608.091880921 233.605471664 608.091880921 c 0
 227.540431419 608.091880921 221.407946603 609.246688915 215.538461538 611.692307692 c 0
EndSplineSet
EndChar

StartChar: j
Encoding: 106 106 74
Width: 230
VWidth: 0
Flags: HW
LayerCount: 2
Fore
SplineSet
180.415241976 524.326954136 m 0
 198.703403231 516.729298909 209.908600713 498.496566021 209.908600713 479.605689451 c 0
 209.908600713 473.557017248 208.75982461 467.440871023 206.326954136 461.584758024 c 2
 -19.7478507059 -82.5953031881 l 2
 -40.0423864576 -130.347152016 -85.6709567592 -192 -161 -192 c 0
 -177.096417399 -192 -185.71171775 -188.328373093 -188.312910838 -187.49900718 c 0
 -208.767146876 -180.231912156 -220.994910526 -161.590880596 -220.994910526 -141.918918194 c 0
 -220.994910526 -137.096733644 -220.260160993 -132.212601876 -218.73172485 -127.418870338 c 0
 -212.33304585 -107.3502862 -193.511302226 -94.084394109 -172.816764965 -94.084394109 c 0
 -168.404972088 -94.084394109 -163.908063699 -94.6873079456 -159.428261193 -95.955757453 c 1
 -145.385077988 -95.0843623562 -121.48357265 -76.5374576502 -108.252149294 -45.4046968119 c 2
 117.673045864 498.415241976 l 2
 125.271151457 516.704487297 143.504224121 527.908531156 162.394391097 527.908531156 c 0
 168.443164785 527.908531156 174.559312233 526.759748478 180.415241976 524.326954136 c 0
215.538461538 611.692307692 m 0
 197.274346334 619.302355694 186.09181128 637.521365246 186.09181128 656.394449251 c 0
 186.09181128 662.459387 187.246612456 668.591869894 189.692307692 674.461538462 c 2
 209.692307692 722.461538462 l 2
 217.302355694 740.725653666 235.521365246 751.90818872 254.394449251 751.90818872 c 0
 260.459387 751.90818872 266.591869894 750.753387544 272.461538462 748.307692308 c 0
 290.726735254 740.697193644 301.908119079 722.477847382 301.908119079 703.605471664 c 0
 301.908119079 697.540431419 300.753311085 691.407946603 298.307692308 685.538461538 c 2
 278.307692308 637.538461538 l 2
 270.697193644 619.273264746 252.477847382 608.091880921 233.605471664 608.091880921 c 0
 227.540431419 608.091880921 221.407946603 609.246688915 215.538461538 611.692307692 c 0
EndSplineSet
EndChar

StartChar: k
Encoding: 107 107 75
Width: 422
VWidth: 0
Flags: HW
AnchorPoint: "above" -152 0 basechar 0
LayerCount: 2
Fore
SplineSet
203.816208503 0.00694004670808 m 0
 203.550097631 0.00241435161997 203.284392655 0.000160608211783 203.019112417 0.000160608211783 c 0
 177.225296098 0.000160608211783 155.447015822 21.3073359292 155.006940047 47.1837914974 c 2
 151.739015936 239.337729203 l 1
 92.9954299508 188.180235448 l 1
 27.3485857884 29.636913697 l 2
 19.7644870853 11.320599848 1.51597723681 0.0910050070592 -17.3942276852 0.0910050070592 c 0
 -23.4246880523 0.0910050070592 -29.5224408735 1.23302196346 -35.363086303 3.65141421163 c 0
 -53.6783132946 11.2350628878 -64.9090644547 29.4832294989 -64.9090644547 48.3941454934 c 0
 -64.9090644547 54.4245055129 -63.767053801 60.5222578952 -61.3485857884 66.363086303 c 2
 203.651414212 706.363086303 l 2
 211.235062888 724.678313295 229.483229499 735.909064455 248.394145493 735.909064455 c 0
 254.424505513 735.909064455 260.522257895 734.767053801 266.363086303 732.348585788 c 0
 284.679400152 724.764487085 295.908994993 706.515977237 295.908994993 687.605772315 c 0
 295.908994993 681.575311948 294.766978037 675.477559127 292.348585788 669.636913697 c 2
 175.431441563 387.270980473 l 1
 323.47672293 516.197831465 l 2
 332.428158359 523.993286822 343.67062208 527.810805545 354.885571162 527.810805545 c 0
 368.374053139 527.810805545 381.822733991 522.288598123 391.197831465 511.52327707 c 0
 398.993027782 502.572139094 402.810782699 491.329460607 402.810782699 480.114109181 c 0
 402.810782699 466.6261123 397.289027028 453.177639525 386.52327707 443.802168535 c 2
 246.351632208 321.73215993 l 1
 250.993059953 48.8162085026 l 2
 251.437661751 22.6736227815 229.95690013 0.451509632212 203.816208503 0.00694004670808 c 0
EndSplineSet
EndChar

StartChar: l
Encoding: 108 108 76
Width: 230
VWidth: 0
Flags: HW
AnchorPoint: "above" -152 0 basechar 0
LayerCount: 2
Fore
SplineSet
266.415241976 732.326954136 m 0
 284.703403231 724.729298909 295.908600713 706.496566021 295.908600713 687.605689451 c 0
 295.908600713 681.557017248 294.75982461 675.440871023 292.326954136 669.584758024 c 2
 66.2765486507 125.463428007 l 2
 41.8924354927 67.6640486691 36.6267996891 41.3128703124 35.8827763243 37.7022344041 c 0
 30.8818256895 15.3714568466 10.743723959 0.0168012325449 -11.1863885749 0.0168012325449 c 0
 -14.0870492777 0.0168012325449 -17.0190610792 0.28542981623 -19.9515429794 0.842075127414 c 0
 -42.5567620623 5.13301012351 -58.9202863054 24.9315709621 -58.9202863054 48.3003739912 c 0
 -58.9202863054 50.8885514259 -58.7195656802 53.5205226811 -58.30437351 56.1800703324 c 0
 -57.3545329767 61.1839572167 -50.5589362414 95.4968384452 -22.2765486507 162.536571993 c 2
 203.673045864 706.415241976 l 2
 211.271151457 724.704487297 229.504224121 735.908531156 248.394391097 735.908531156 c 0
 254.443164785 735.908531156 260.559312233 734.759748478 266.415241976 732.326954136 c 0
EndSplineSet
EndChar

StartChar: m
Encoding: 109 109 77
Width: 691
VWidth: 0
Flags: HW
AnchorPoint: "above" -152 0 basechar 0
LayerCount: 2
Fore
SplineSet
-35.3740388842 3.65595084928 m 0
 -53.6835841976 11.2425448565 -64.9089671049 29.4874727392 -64.9089671049 48.394180927 c 0
 -64.9089671049 54.4283854234 -63.7655376647 60.5299995654 -61.3440491507 66.3740388842 c 2
 117.655950849 498.374038884 l 2
 125.242544856 516.683584198 143.487472739 527.908967105 162.394180927 527.908967105 c 0
 168.428385423 527.908967105 174.529999565 526.765537665 180.374038884 524.344049151 c 0
 188.333061193 521.046213518 194.953212519 515.734664154 199.894679014 509.230433983 c 1
 229.287829308 524.915105868 262.848937875 536 299 536 c 0
 319.422511713 536 340.086105009 530.388411775 357.318041045 518.47710716 c 0
 371.265389408 508.836222086 381.575233958 496.369231618 388.806649988 482.381565543 c 1
 426.378570623 510.641553116 475.325006131 536 530 536 c 0
 550.516615022 536 571.329541194 530.321903601 588.606993609 518.176378717 c 0
 620.661468369 495.64305543 632.890685526 458.129726049 632.890685526 422.14119292 c 0
 632.866349925 394.056579848 626.130572149 364.623435206 613.373052853 333.696115698 c 2
 487.342138456 29.6213505083 l 2
 479.753855085 11.3131112633 461.509948745 0.0911433716504 442.605722578 0.0911433716504 c 0
 436.569798855 0.0911433716504 430.466558246 1.23517675769 424.621350508 3.65786154388 c 0
 406.314197288 11.2456947866 395.091073881 29.4892589225 395.091073881 48.3941957204 c 0
 395.091073881 54.4300187566 396.235100884 60.5332586925 398.657861544 66.3786494917 c 2
 524.642372841 370.341279923 l 2
 533.958078498 392.924808788 536.419776168 409.803359759 536.419776168 421.247674301 c 0
 536.419776168 433.052747474 533.800432339 439.075577838 533.382662283 439.613326158 c 0
 533.007420044 439.734685837 532.058910741 440 530 440 c 0
 478.562968212 440 404.170174169 365.051550228 389.151606201 348.797354262 c 0
 387.391446514 343.799833942 385.464232453 338.765642002 383.373052853 333.696115698 c 2
 257.342138456 29.6213505083 l 2
 249.753855085 11.3131112632 231.509948745 0.0911433716505 212.605722578 0.0911433716505 c 0
 206.569798855 0.0911433716505 200.466558246 1.23517675769 194.621350508 3.65786154388 c 0
 176.314197288 11.2456947866 165.091073881 29.4892589225 165.091073881 48.3941957204 c 0
 165.091073881 54.4300187566 166.235100884 60.5332586925 168.657861544 66.3786494917 c 2
 294.642372841 370.341279923 l 2
 303.894450315 392.770558647 306.425837068 409.068005102 306.425837068 420.188011957 c 0
 306.425837068 433.626539343 302.728817455 439.503560878 302.728817455 439.503560878 c 2
 302.611980683 439.556198686 301.720100307 440 299 440 c 0
 248.426400404 440 176.321588489 367.439626474 159.990393509 349.755686047 c 1
 27.3440491507 29.6259611158 l 2
 19.757005045 11.315329531 1.51173465235 0.0911023771115 -17.3942627739 0.0911023771115 c 0
 -23.4285678566 0.0911023771115 -29.530182602 1.2345381768 -35.3740388842 3.65595084928 c 0
EndSplineSet
EndChar

StartChar: n
Encoding: 110 110 78
Width: 464
VWidth: 0
Flags: HW
AnchorPoint: "above" -152 0 basechar 0
LayerCount: 2
Fore
SplineSet
-35.3740388842 3.65595084928 m 0
 -53.6835841976 11.2425448565 -64.9089671049 29.4874727392 -64.9089671049 48.394180927 c 0
 -64.9089671049 54.4283854234 -63.7655376647 60.5299995654 -61.3440491507 66.3740388842 c 2
 117.655950849 498.374038884 l 2
 125.242544856 516.683584198 143.487472739 527.908967105 162.394180927 527.908967105 c 0
 168.428385423 527.908967105 174.529999565 526.765537665 180.374038884 524.344049151 c 0
 188.821207231 520.843949303 195.760235837 515.075548966 200.784872848 508.020403628 c 1
 231.200734914 524.331503927 265.918087731 536 303 536 c 0
 323.516615022 536 344.329541194 530.321903601 361.606993609 518.176378717 c 0
 393.661468369 495.64305543 405.890685526 458.129726049 405.890685526 422.14119292 c 0
 405.866349925 394.056579848 399.130572149 364.623435206 386.373052853 333.696115698 c 2
 260.342138456 29.6213505083 l 2
 252.753855085 11.3131112632 234.509948745 0.0911433716505 215.605722578 0.0911433716505 c 0
 209.569798855 0.0911433716505 203.466558246 1.23517675769 197.621350508 3.65786154388 c 0
 179.314197288 11.2456947866 168.091073881 29.4892589225 168.091073881 48.3941957204 c 0
 168.091073881 54.4300187566 169.235100884 60.5332586925 171.657861544 66.3786494917 c 2
 297.642372841 370.341279923 l 2
 306.958078498 392.924808788 309.419776168 409.803359759 309.419776168 421.247674301 c 0
 309.419776168 433.052747474 306.800432339 439.075577838 306.382662283 439.613326158 c 0
 306.007420044 439.734685837 305.058910741 440 303 440 c 0
 252.381375072 440 177.562268093 367.7341674 159.825003747 349.356533103 c 1
 27.3440491507 29.6259611158 l 2
 19.757005045 11.315329531 1.51173465235 0.0911023771115 -17.3942627739 0.0911023771115 c 0
 -23.4285678566 0.0911023771115 -29.530182602 1.2345381768 -35.3740388842 3.65595084928 c 0
EndSplineSet
EndChar

StartChar: o
Encoding: 111 111 79
Width: 454
VWidth: 0
Flags: HW
HStem: 40 448<166.158 288.242>
VStem: 86 282<157.228 370.772>
AnchorPoint: "middle" -152 0 basechar 0
AnchorPoint: "above" -152 0 basechar 0
LayerCount: 2
Fore
SplineSet
369.391959269 245.742016752 m 0
 315.299840357 114.223923712 203.658132385 -8 91 -8 c 0
 75.0903696721 -8 59.3233607508 -5.21438663886 44.7312313036 0.714517211326 c 0
 -11.9023551792 23.7252155581 -33.406213647 76.2275906135 -33.406213647 136.979481856 c 0
 -33.406213647 183.747114006 -20.6627480005 235.403516528 -1.39195926885 282.257983248 c 0
 52.7001596427 413.776076288 164.341867615 536 277 536 c 0
 292.909630328 536 308.676639249 533.214386639 323.268768696 527.285482789 c 0
 379.902355179 504.274784442 401.406213647 451.772409387 401.406213647 391.020518144 c 0
 401.406213647 344.252885994 388.662748 292.596483472 369.391959269 245.742016752 c 0
280.608040731 282.257983248 m 0
 298.488254017 325.731443001 304.25150667 359.090787813 304.25150667 383.602790682 c 0
 304.25150667 419.485580046 291.901066027 436.408837687 287.132118786 438.34650071 c 0
 285.010798967 439.208410638 281.953591557 440 277 440 c 0
 233.658132385 440 135.299840357 362.223923712 87.3919592689 245.742016752 c 0
 69.5117459831 202.268556999 63.7484933303 168.909212188 63.7484933303 144.397209318 c 0
 63.7484933303 108.514419954 76.0989339735 91.5911623133 80.8678812138 89.6534992904 c 0
 82.9892010326 88.7915893624 86.0464084434 88 91 88 c 0
 134.341867615 88 232.700159643 165.776076288 280.608040731 282.257983248 c 0
EndSplineSet
EndChar

StartChar: p
Encoding: 112 112 80
Width: 470
VWidth: 0
Flags: HW
AnchorPoint: "above" -152 0 basechar 0
LayerCount: 2
Fore
SplineSet
24.7532150759 24.1252412262 m 1
 -52.6671255181 -162.400984761 l 2
 -60.2609567029 -180.696547152 -78.4979113143 -191.908727523 -97.3942663544 -191.908727523 c 0
 -103.437931511 -191.908727523 -109.549048527 -190.761803143 -115.400984761 -188.332874482 c 0
 -133.697631981 -180.738593023 -144.908657991 -162.50129769 -144.908657991 -143.605652648 c 0
 -144.908657991 -137.561886318 -143.761727112 -131.450768293 -141.332874482 -125.599015239 c 2
 117.667125518 498.400984761 l 2
 125.261406977 516.697631981 143.49870231 527.908657991 162.394347352 527.908657991 c 0
 168.438113682 527.908657991 174.549231707 526.761727112 180.400984761 524.332874482 c 0
 188.378208784 521.021815152 195.008789075 515.687358608 199.950476983 509.157086013 c 1
 227.113150802 524.597392258 289.587045625 536.311339122 293.505087261 536.311339122 c 0
 293.870029687 536.311339122 293.726951975 536.209711009 293 536 c 1
 308.909630328 536 324.676639249 533.214386639 339.268768696 527.285482789 c 0
 395.902355179 504.274784442 417.406213647 451.772409387 417.406213647 391.020518144 c 0
 417.406213647 344.252885994 404.662748 292.596483472 385.391959269 245.742016752 c 0
 331.299840357 114.223923712 219.658132385 -8 107 -8 c 0
 101.882963683 -8 96.7867510319 -7.71608180169 91.7349414898 -7.12836704195 c 0
 63.3121693316 -3.82173353356 41.2872594407 7.57991806681 24.7532150759 24.1252412262 c 1
80.1427668275 157.573427686 m 1
 79.3824012964 150.01061513 79.0402904728 143.266863218 79.0402904728 137.254012513 c 0
 79.0402904728 95.877485952 95.2402538647 89.111301934 102.828518776 88.2285023644 c 0
 104.046842196 88.0867656957 105.430469153 88 107 88 c 0
 150.341867615 88 248.700159643 165.776076288 296.608040731 282.257983248 c 0
 314.488254017 325.731443001 320.25150667 359.090787813 320.25150667 383.602790682 c 0
 320.25150667 419.485580046 307.901066027 436.408837687 303.132118786 438.34650071 c 0
 301.010798967 439.208410638 297.953591557 440 293 440 c 0
 264.424598569 440 203.542939003 403.782230821 153.30885584 333.850028241 c 1
 80.1427668275 157.573427686 l 1
EndSplineSet
EndChar

StartChar: q
Encoding: 113 113 81
Width: 470
VWidth: 0
Flags: HW
AnchorPoint: "above" -152 0 basechar 0
LayerCount: 2
Fore
SplineSet
124.61003609 -188.337447236 m 0
 106.308753885 -180.746574503 95.0911744747 -162.506357925 95.0911744747 -143.605768285 c 0
 95.0911744747 -137.56597294 96.2366686698 -131.458742948 98.6625527643 -125.61003609 c 2
 152.338797012 3.80118291833 l 1
 132.363527368 -3.78639083334 87.1348385205 -8.74363176081 91 -8 c 1
 5.74072117079 -8 -32.7999608125 68.1128528768 -32.7999608125 140.593635705 c 0
 -32.7999608125 184.062797017 -22.0698723493 231.982273013 -1.39195926885 282.257983248 c 0
 52.6874218299 413.745105919 164.304153507 536 277 536 c 0
 314.531423362 536 343.066032204 521.182090267 363.218444346 498.357058054 c 1
 365.339553341 502.163130496 366.665486038 504.402096417 367.097738955 505.132094871 c 0
 376.610641178 520.06091828 392.295354511 527.96323922 408.167889826 527.96323922 c 0
 416.500894462 527.96323922 424.885666582 525.785201951 432.456328077 521.302397231 c 0
 447.325425157 512.497980519 455.891545362 496.632152168 455.891545362 480.011033307 c 0
 455.891545362 472.050742577 453.926731049 463.917210569 449.748492717 456.3031742 c 0
 448.779644597 454.653408726 431.711391452 425.753425758 406.281867951 365.476036718 c 2
 187.337447236 -162.38996391 l 2
 179.746124301 -180.692331534 161.50556627 -191.908756014 142.60568694 -191.908756014 c 0
 136.565790661 -191.908756014 130.458559826 -190.763255377 124.61003609 -188.337447236 c 0
232.118227322 196.146110789 m 2
 303.66735966 368.648128482 l 1
 304.380454439 375.496804877 304.701629909 381.763784184 304.701629909 387.828219041 c 0
 304.701629909 436.306933157 290.014099396 440 277 440 c 0
 233.695846493 440 135.31257817 362.254894081 87.3919592689 245.742016752 c 0
 70.4988237217 204.668510716 63.2000040315 167.943679435 63.2000040315 140.495126004 c 0
 63.2000040315 91.7163179884 77.7062224422 88 91 88 c 0
 119.774872787 88 181.393016548 124.758375437 231.871340403 195.801942345 c 0
 231.953189458 195.917137312 232.035486387 196.031860345 232.118227322 196.146110789 c 2
EndSplineSet
EndChar

StartChar: r
Encoding: 114 114 82
Width: 339
VWidth: 0
Flags: HW
AnchorPoint: "above" -152 0 basechar 0
LayerCount: 2
Fore
SplineSet
357 480 m 0
 357 453.855528292 335.146366075 432 309 432 c 0
 283.981121474 432 192.983028061 352.457419755 117.798865703 247.930322851 c 1
 27.3440491507 29.6259611158 l 2
 19.7574551435 11.3164158024 1.5125272608 0.0910328950783 -17.394180927 0.0910328950783 c 0
 -23.4283854234 0.0910328950783 -29.5299995654 1.23446233525 -35.3740388842 3.65595084928 c 0
 -53.684670469 11.242994955 -64.9088976229 29.4882653476 -64.9088976229 48.3942627739 c 0
 -64.9088976229 54.4285678566 -63.7654618232 60.530182602 -61.3440491507 66.3740388842 c 2
 117.655950849 498.374038884 l 2
 125.242994955 516.684670469 143.488265348 527.908897623 162.394262774 527.908897623 c 0
 168.428567857 527.908897623 174.530182602 526.765461823 180.374038884 524.344049151 c 0
 194.897100624 518.326391624 204.963089261 505.602934525 208.505339113 491.162432784 c 1
 237.828099134 511.679636077 305.50487248 528.57126328 309.839692151 528.57126328 c 0
 310.293757567 528.57126328 310.052820695 528.385924514 309 528 c 1
 335.146366075 528 357 506.144471708 357 480 c 0
EndSplineSet
EndChar

StartChar: s
Encoding: 115 115 83
Width: 396
VWidth: 0
Flags: HW
AnchorPoint: "bottom" -152 0 basechar 0
LayerCount: 2
Fore
SplineSet
342.088800632 385.298410085 m 0
 338.493575916 384.444761844 334.915012761 384.041165687 331.400348715 384.041165687 c 0
 309.473687187 384.041165687 290.034005071 399.749292924 284.551038659 419.885596484 c 0
 283.391234073 423.261744059 279.975215889 440 248 440 c 0
 210.314249462 440 159.919408254 404.032538442 145.416356496 369.800805382 c 0
 141.923824101 361.07619098 139.720160626 353.094161176 138.872118122 346.189164192 c 0
 138.314369279 341.647818611 137.179803732 338.125030246 137.179803732 335.287207535 c 0
 137.179803732 329.502104986 141.894798279 326.563562805 165.823332638 323.645448859 c 0
 184.994028834 321.302363769 202.138348228 317.261980299 217.702706059 310.813936042 c 0
 268.670083941 289.699032886 283.776820963 250.701467903 283.776820963 213.027685424 c 0
 283.776820963 186.115927296 276.068205907 159.879664461 268.215965387 141.319823233 c 0
 236.011804551 64.9840345853 161.667329114 -8 63 -8 c 0
 -46.0573181836 -8 -66.9943968139 102.194679197 -66.9943968139 102.194679197 c 1
 -67.613569019 105.425911656 -67.9111189634 108.627003812 -67.9111189634 111.767498836 c 0
 -67.9111189634 134.396302174 -52.4626007031 153.878958309 -30.5710743677 158.821494922 c 0
 -27.0715416542 159.611598284 -23.5607044652 159.992697545 -20.0920824176 159.992697545 c 0
 1.15515479183 159.992697545 20.8183772508 145.692926682 26.5963289861 123.507193873 c 0
 29.0265917499 114.172944587 39.64311012 88 63 88 c 0
 110.329628256 88 157.996469342 127.035577607 179.774520274 178.657624259 c 0
 187.701278319 197.393597821 190.728562812 207.218791443 190.728562812 212.756034963 c 0
 190.728562812 219.370798506 186.408454479 219.866411696 180.959862419 222.12366915 c 0
 175.616719376 224.337240901 166.819924655 226.809264138 154.176667362 228.354551141 c 0
 76.5390983075 237.822547367 42.7270286247 292.4720171 42.7270286247 343.771847498 c 0
 42.7270286247 348.519936491 43.0166813355 353.239330638 43.5880472852 357.891550477 c 0
 45.8091370645 375.976278729 50.7115546754 391.692197773 56.5862077155 406.20604646 c 0
 86.3474046801 477.903475511 165.48545149 536 248 536 c 0
 351.328069229 536 375.913851302 450.618128333 377.882922201 442.325189833 c 0
 378.517176651 439.202690733 378.825444767 436.039991866 378.825444767 432.886131577 c 0
 378.825444767 411.582087493 364.759535515 390.6813373 342.088800632 385.298410085 c 0
EndSplineSet
EndChar

StartChar: t
Encoding: 116 116 84
Width: 275
VWidth: 0
Flags: HW
AnchorPoint: "bottom" -152 0 basechar 0
AnchorPoint: "above" -152 0 basechar 0
LayerCount: 2
Fore
SplineSet
114 528 m 2
 151.700473935 528 l 1
 205.648104814 658.355091758 l 2
 213.230052262 676.675552529 231.480925886 687.909066054 250.394201814 687.909066054 c 0
 256.421856183 687.909066054 262.5167904 686.768084092 268.355091758 684.351895186 c 0
 286.674465244 676.770397712 297.909135501 658.519867857 297.909135501 639.605880629 c 0
 297.909135501 633.578326434 296.768159801 627.483392536 294.351895186 621.644908242 c 2
 255.585717605 527.973164863 l 1
 281.0222326 527.111554586 302 505.615941096 302 480 c 0
 302 453.853633925 280.144471708 432 254 432 c 2
 215.867093633 432 l 1
 49.3518951858 29.6449082424 l 2
 41.7703977124 11.3255347557 23.5198678569 0.0908644992252 4.60588062932 0.0908644992252 c 0
 -1.42167356594 0.0908644992252 -7.51660746372 1.23184019936 -13.3550917576 3.64810481423 c 0
 -31.6755525295 11.230052262 -42.9090660538 29.4809258862 -42.9090660538 48.3942018139 c 0
 -42.9090660538 54.4218561829 -41.7680840924 60.5167903995 -39.3518951858 66.3550917576 c 2
 111.988619501 432.043192552 l 1
 86.742436105 433.128636709 66 454.528887197 66 480 c 0
 66 506.144471708 87.8536339246 528 114 528 c 2
EndSplineSet
EndChar

StartChar: u
Encoding: 117 117 85
Width: 464
VWidth: 0
Flags: HW
AnchorPoint: "above" -152 0 basechar 0
LayerCount: 2
Fore
SplineSet
413.374038884 524.344049151 m 0
 431.683584198 516.757455144 442.908967105 498.512527261 442.908967105 479.605819073 c 0
 442.908967105 473.571614577 441.765537665 467.470000435 439.344049151 461.625961116 c 2
 260.344049151 29.6259611158 l 2
 252.757455144 11.3164158024 234.512527261 0.0910328950783 215.605819073 0.0910328950783 c 0
 209.571614577 0.0910328950783 203.470000435 1.23446233525 197.625961116 3.65595084928 c 0
 189.178792769 7.15605069685 182.239764163 12.9244510336 177.215127152 19.9795963725 c 1
 146.799265086 3.66849607283 112.081912269 -8 75 -8 c 0
 54.4833849781 -8 33.6704588057 -2.32190360066 16.3930063912 9.82362128311 c 0
 -15.6614683688 32.3569445703 -27.8906855265 69.8702739507 -27.8906855265 105.85880708 c 0
 -27.8906855265 133.933956972 -21.1253645325 163.38918932 -8.3730528527 194.303884302 c 2
 117.657861544 498.378649492 l 2
 125.246144915 516.686888737 143.490051255 527.908856628 162.394277422 527.908856628 c 0
 168.430201145 527.908856628 174.533441754 526.764823242 180.378649492 524.342138456 c 0
 198.685802712 516.754305213 209.908926119 498.510741077 209.908926119 479.60580428 c 0
 209.908926119 473.569981243 208.764899116 467.466741308 206.342138456 461.621350508 c 2
 80.3576271588 157.658720077 l 2
 71.041921502 135.075191212 68.5802238324 118.196640241 68.5802238324 106.752325699 c 0
 68.5802238324 94.9472525259 71.1995676608 88.9244221624 71.617337717 88.3866738416 c 0
 71.9925799564 88.2653141635 72.941089259 88 75 88 c 0
 125.618624928 88 200.437731907 160.2658326 218.174996253 178.643466897 c 1
 350.655950849 498.374038884 l 2
 358.242994955 516.684670469 376.488265348 527.908897623 395.394262774 527.908897623 c 0
 401.428567857 527.908897623 407.530182602 526.765461823 413.374038884 524.344049151 c 0
EndSplineSet
EndChar

StartChar: v
Encoding: 118 118 86
Width: 396
VWidth: 0
Flags: HW
AnchorPoint: "above" -152 0 basechar 0
LayerCount: 2
Fore
SplineSet
130.677638784 527.381999353 m 0
 153.981969587 523.60583464 170.983907831 502.799080678 170.983907831 479.794170257 c 0
 170.983907831 477.322805818 170.787693408 474.826073095 170.381999353 472.322361216 c 2
 127.51422971 207.766982849 l 1
 326.01892244 506.561502916 l 2
 335.167237653 520.331789229 350.64497486 527.838205256 366.295960733 527.838205256 c 0
 375.395923979 527.838205256 384.554455951 525.300574039 392.561502916 519.98107756 c 0
 406.332445533 510.83232633 413.838147565 495.354674355 413.838147565 479.704238745 c 0
 413.838147565 470.603981747 411.300415461 461.445305353 405.98107756 453.438497084 c 2
 118.98107756 21.4384970841 l 2
 110.763232998 9.06877983391 95.2298944516 0 79 0 c 2
 53 0 l 2
 31.1473394691 0 5.01064449987 20.1620438853 5.01064449987 48.2209575035 c 0
 5.01064449987 50.6499896747 5.20651791657 53.1382025057 5.61800064686 55.6776387841 c 2
 75.6180006469 487.677638784 l 2
 79.3944273358 510.98358635 100.202368947 527.983883599 123.206068558 527.983883599 c 0
 125.67738142 527.983883599 128.174036496 527.78767565 130.677638784 527.381999353 c 0
EndSplineSet
EndChar

StartChar: w
Encoding: 119 119 87
Width: 556
VWidth: 0
Flags: HW
AnchorPoint: "above" -152 0 basechar 0
LayerCount: 2
Fore
SplineSet
132.685481307 527.012673311 m 0
 155.140334078 522.38655781 170.974013324 501.966662866 170.974013324 479.741400065 c 0
 170.974013324 476.621780855 170.662058859 473.466592366 170.012673311 470.314518693 c 2
 126.238156695 257.83596613 l 1
 261.764089351 466.173870448 l 2
 270.670147422 479.864751876 286.754831769 488 302 488 c 2
 315 488 l 2
 343.969003981 488 362.868598806 461.961949547 362.868598806 438.668477071 c 0
 362.868598806 436.259709168 362.666495261 433.880290516 362.252523624 431.562049353 c 2
 331.044248894 256.795710861 l 1
 485.211437833 505.304015419 l 2
 494.208953211 519.807473043 510.157140875 527.847930667 526.3278513 527.847930667 c 0
 534.927629824 527.847930667 543.590343136 525.573895898 551.304015419 520.788562167 c 0
 565.808192558 511.790600424 573.847867402 495.842449133 573.847867402 479.672306725 c 0
 573.847867402 471.072264376 571.573754748 462.409429338 566.788562167 454.695984581 c 2
 298.788562167 22.6959845813 l 2
 290.279241621 8.97946788022 274.546079845 0 258 0 c 2
 245 0 l 2
 222.020537345 0 197.013159854 20.7498625819 197.013159854 48.2398275669 c 0
 197.013159854 50.9130912738 197.249644736 53.6500934641 197.747476376 56.4379506472 c 2
 231.043344508 242.89481219 l 1
 87.2359106493 21.8261295521 l 2
 78.9228886026 9.04689566077 63.3327310835 0 47 0 c 2
 34 0 l 2
 14.0861613348 0 -13.9945503593 19.3841843133 -13.9945503593 48.2398845806 c 0
 -13.9945503593 51.2867096024 -13.681481478 54.4391315526 -13.012673311 57.6854813071 c 2
 75.987326689 489.685481307 l 2
 80.6137567601 512.141860978 101.034664311 527.973978734 123.258844745 527.973978734 c 0
 126.378425029 527.973978734 129.533535891 527.662032436 132.685481307 527.012673311 c 0
EndSplineSet
EndChar

StartChar: x
Encoding: 120 120 88
Width: 396
VWidth: 0
Flags: HW
AnchorPoint: "above" -152 0 basechar 0
LayerCount: 2
Fore
SplineSet
379.742590642 515.098757215 m 0
 389.744744585 505.768044162 394.807845546 492.863957391 394.807845546 479.941642228 c 0
 394.807845546 468.165082698 390.602779772 456.37338391 382.098757215 447.257409358 c 2
 212.59735604 265.558636882 l 1
 234.741683627 52.9730920445 l 2
 237.450409965 26.969319193 217.978749069 2.96723897992 191.973092044 0.258316373243 c 0
 190.349435382 0.0891854709368 188.733595438 0.00652476326588 187.130266074 0.00652476326588 c 0
 163.053515091 0.00652476326588 141.797924064 18.6466741284 139.258316373 43.0269079555 c 2
 125.772959783 172.486331218 l 1
 -20.9012427852 15.2574093575 l 2
 -30.2319558381 5.255255415 -43.1360426086 0.192154454004 -56.0583577722 0.192154454004 c 0
 -67.8349173021 0.192154454004 -79.6266160901 4.3972202283 -88.7425906425 12.9012427852 c 0
 -98.745124495 22.2323102449 -103.807833884 35.1361768156 -103.807833884 48.0580248749 c 0
 -103.807833884 59.835010143 -99.6024852863 71.6269317667 -91.0987572148 80.7425906425 c 2
 112.585679675 299.084220261 l 1
 94.2583163732 475.026907956 l 2
 91.5493937666 501.03256498 111.023135104 525.032957288 137.026907956 527.741683627 c 0
 138.650486037 527.910806344 140.266260949 527.993463581 141.869537259 527.993463581 c 0
 165.944873797 527.993463581 187.201895991 509.355053347 189.741683627 484.973092044 c 2
 199.410075931 392.156525925 l 1
 311.901242785 512.742590642 l 2
 321.232310245 522.745124495 334.136176816 527.807833884 347.058024875 527.807833884 c 0
 358.835010143 527.807833884 370.626931767 523.602485286 379.742590642 515.098757215 c 0
EndSplineSet
EndChar

StartChar: y
Encoding: 121 121 89
Width: 396
VWidth: 0
Flags: HW
AnchorPoint: "above" -152 0 basechar 0
LayerCount: 2
Fore
SplineSet
129.112002013 527.609278837 m 0
 153.04887785 524.536301534 170.989979847 503.459443332 170.989979847 479.837640887 c 0
 170.989979847 477.869118287 170.865383916 475.882921761 170.609278837 473.887997987 c 2
 139.25231923 229.633786312 l 1
 326.204537816 506.838800077 l 2
 335.381771019 520.446421723 350.753381305 527.836118651 366.287903604 527.836118651 c 0
 375.500197377 527.836118651 384.769783002 525.237357421 392.838800077 519.795462184 c 0
 406.445779111 510.61866237 413.836174925 495.246956999 413.836174925 479.711888178 c 0
 413.836174925 470.499894672 411.237520187 461.230458342 405.795462184 453.161199923 c 2
 57.8672231681 -62.7323958589 l 2
 26.6988775917 -109.484914224 -31.1666200842 -194 -117 -194 c 0
 -133.949961619 -194 -144.741953614 -191.09754287 -148.395408472 -190.099812226 c 0
 -169.824651603 -183.487009419 -182.997338191 -164.353715053 -182.997338191 -143.938068721 c 0
 -182.997338191 -139.765174723 -182.447008687 -135.538706526 -181.304369331 -131.354630062 c 0
 -175.596047129 -110.452097293 -156.774792095 -96.1180646142 -134.886491519 -96.1180646142 c 0
 -130.955107588 -96.1180646142 -126.924780205 -96.5804831338 -122.853718158 -97.5503159223 c 0
 -122.645562813 -97.5868344038 -120.067653284 -98 -117 -98 c 0
 -100.833379916 -98 -54.6988775917 -58.5150857764 -21.8672231681 -9.26760414107 c 2
 19.7088729693 52.3797108214 l 1
 75.3907211628 486.112002013 l 2
 78.4639144506 510.050560254 99.5421003318 527.989963206 123.162578586 527.989963206 c 0
 125.131046427 527.989963206 127.117170773 527.865372037 129.112002013 527.609278837 c 0
EndSplineSet
EndChar

StartChar: z
Encoding: 122 122 90
Width: 403
VWidth: 0
Flags: HW
AnchorPoint: "above" -152 0 basechar 0
LayerCount: 2
Fore
SplineSet
232 48 m 0
 232 21.8555282921 210.146366075 0 184 0 c 2
 -46 0 l 2
 -72.3548479083 0 -93.9966637886 22.1344177733 -93.9966637886 48.0898351674 c 0
 -93.9966637886 61.2746488843 -87.3936856805 73.9946772499 -81.0987572148 80.7425906425 c 2
 246.578872348 432 l 1
 139 432 l 2
 112.855528292 432 91 453.853633925 91 480 c 0
 91 506.146366075 112.855528292 528 139 528 c 2
 357 528 l 2
 366.052688416 528 378.313122394 524.382840066 386.887915149 517.559453245 c 0
 398.70243769 508.158053152 404.783013952 494.03521931 404.783013952 479.86750803 c 0
 404.783013952 468.145237254 400.620374059 456.392244288 392.098757215 447.257409358 c 2
 64.421127652 96 l 1
 184 96 l 2
 210.146366075 96 232 74.1444717079 232 48 c 0
EndSplineSet
EndChar

StartChar: braceleft
Encoding: 123 123 91
Width: 345
VWidth: 0
Flags: HW
LayerCount: 2
Fore
SplineSet
69.5015801205 352.706413486 m 0
 67.5116032602 358.626594645 66.7817797551 364.712133517 67.1614800834 370.659740586 c 0
 67.4434370871 376.612806872 68.8433786315 382.579959478 71.4773866294 388.243075986 c 0
 74.2927632378 394.296135694 78.2821421123 399.49474433 83.0571054869 403.697024424 c 0
 87.7641335883 407.97956708 93.37529695 411.370316361 99.7064134859 413.49841988 c 0
 288.664414773 477.01371443 144.645005241 717.007190217 431.706413486 813.49841988 c 0
 436.625095777 815.151758465 441.657921785 815.935233867 446.630951814 815.935233867 c 0
 466.713663167 815.935233867 485.821217604 803.158263285 492.49841988 783.293586514 c 0
 494.151814418 778.374737762 494.935294664 773.341871796 494.935294664 768.368880205 c 0
 494.935294664 748.285356586 482.157013963 729.178362456 462.293586514 722.50158012 c 0
 291.321132573 665.031847703 392.963686855 463.034736893 201.142736175 353.643771014 c 1
 209.795797947 337.001258058 213.391118497 319.002253443 213.391118497 300.428246448 c 0
 213.391118497 223.023664257 150.951570708 135.63307719 131.913860487 94.816071476 c 0
 118.79915804 66.6980426531 112.391471884 49.66366353 112.391471884 38.0631414885 c 0
 112.391471884 25.0267153694 120.483609511 18.8525977777 136.243075986 11.5226133706 c 0
 153.567113523 3.46492149319 163.892158763 -14.2092751591 163.892158763 -32.3940571395 c 0
 163.892158763 -39.092839035 162.491064219 -45.8609066625 159.522613371 -52.2430759863 c 0
 151.464462865 -69.5680995736 133.790042435 -79.8920870973 115.605922744 -79.8920870973 c 0
 108.906998173 -79.8920870973 102.138900123 -78.4909743517 95.7569240137 -75.5226133706 c 0
 38.3124958906 -48.8042747088 20.0418799841 -6.0599203453 20.0418799841 37.24479509 c 0
 20.0418799841 72.3368912402 32.0396748104 107.796960599 44.9119282649 135.395176809 c 0
 85.4804326086 222.374380423 116.425164655 268.431751118 116.425164655 296.00327134 c 0
 116.425164655 308.672013304 109.891869447 317.437877125 94.7569240137 324.477386629 c 0
 88.7007633488 327.294205543 83.5000818195 331.286067437 79.2968142901 336.063992223 c 0
 75.0171093921 340.769714302 71.6285980172 346.378542315 69.5015801205 352.706413486 c 0
EndSplineSet
EndChar

StartChar: bar
Encoding: 124 124 92
Width: 230
VWidth: 0
Flags: HW
LayerCount: 2
Fore
SplineSet
299.35125374 812.35348336 m 0
 317.672617666 804.773019036 328.909169605 786.521354869 328.909169605 767.605893248 c 0
 328.909169605 761.579685967 327.768690569 755.486105074 325.35348336 749.64874626 c 2
 -5.64651664003 -50.3512537402 l 2
 -13.2269809643 -68.6726176659 -31.4786451314 -79.909169605 -50.3941067521 -79.909169605 c 0
 -56.4203140334 -79.909169605 -62.5138949257 -78.7686905695 -68.3512537402 -76.35348336 c 0
 -86.6737051564 -68.7725690865 -97.9091001652 -50.5205608956 -97.9091001652 -31.605810684 c 0
 -97.9091001652 -25.5795033126 -96.7686148882 -19.4859221589 -94.35348336 -13.6487462598 c 2
 236.64651664 786.35125374 l 2
 244.227430913 804.673705156 262.479439104 815.909100165 281.394189316 815.909100165 c 0
 287.420496687 815.909100165 293.514077841 814.768614888 299.35125374 812.35348336 c 0
EndSplineSet
EndChar

StartChar: braceright
Encoding: 125 125 93
Width: 345
VWidth: 0
Flags: HW
LayerCount: 2
Fore
SplineSet
275.49841988 383.293586514 m 0
 277.48839674 377.373405355 278.218220245 371.287866483 277.838519917 365.340259414 c 0
 277.556562913 359.387193128 276.156621369 353.420040522 273.522613371 347.756924014 c 0
 270.707236762 341.703864306 266.717857888 336.50525567 261.942894513 332.302975576 c 0
 257.235866412 328.02043292 251.62470305 324.629683639 245.293586514 322.50158012 c 0
 56.335585227 258.98628557 200.354994759 18.9928097825 -86.7064134859 -77.4984198795 c 0
 -91.6250957774 -79.1517584649 -96.6579217849 -79.9352338667 -101.630951814 -79.9352338667 c 0
 -121.713663167 -79.9352338667 -140.821217604 -67.1582632851 -147.49841988 -47.2935865141 c 0
 -149.151814418 -42.3747377618 -149.935294664 -37.341871796 -149.935294664 -32.3688802047 c 0
 -149.935294664 -12.2853565862 -137.157013963 6.8216375438 -117.293586514 13.4984198795 c 0
 53.6860995378 70.9705832583 -47.9722862743 272.982352265 143.881607399 382.370110157 c 1
 135.283651829 398.94404251 131.706335925 416.86444155 131.706335925 435.361444397 c 0
 131.706335925 513.329524018 195.266973013 601.542520866 214.292107704 642.342404591 c 0
 227.202636912 670.029361822 233.511598564 686.789723689 233.511598564 698.204195554 c 0
 233.511598564 711.105051893 225.45255837 717.17709158 209.756924014 724.477386629 c 0
 192.432886477 732.535078507 182.107841237 750.209275159 182.107841237 768.394057139 c 0
 182.107841237 775.092839035 183.508935781 781.860906663 186.477386629 788.243075986 c 0
 194.535537135 805.568099574 212.209957565 815.892087097 230.394077256 815.892087097 c 0
 237.093001827 815.892087097 243.861099877 814.490974352 250.243075986 811.522613371 c 0
 307.568660129 784.859550979 325.826540733 742.151278432 325.826540733 698.909467873 c 0
 325.826540733 664.199745406 314.062814598 629.146259323 301.297788839 601.771337927 c 0
 260.31084191 513.873791019 228.692717537 467.491941321 228.692717537 439.793409496 c 0
 228.692717537 427.241221961 235.185957344 418.525924367 250.243075986 411.522613371 c 0
 256.299236651 408.705794457 261.49991818 404.713932563 265.70318571 399.936007777 c 0
 269.982890608 395.230285698 273.371401983 389.621457685 275.49841988 383.293586514 c 0
EndSplineSet
EndChar

StartChar: asciitilde
Encoding: 126 126 94
Width: 518
VWidth: 0
Flags: HW
LayerCount: 2
Fore
SplineSet
-7.74483235746 176.830824907 m 0
 -20.8142241175 186.088310737 -27.8298760199 201.107708839 -27.8298760199 216.260452194 c 0
 -27.8298760199 225.843109525 -25.024071477 235.479096286 -19.1691750929 243.744832357 c 0
 39.5582274093 326.654106478 87.7764426256 351.774345411 129.804284211 351.774345411 c 0
 194.437790398 351.774345411 244.430722019 292.363596861 295.491276589 292.363596861 c 0
 318.569567984 292.363596861 341.865958618 304.500315243 366.830824907 339.744832357 c 0
 376.088310737 352.814224117 391.107708839 359.82987602 406.260452194 359.82987602 c 0
 415.843109525 359.82987602 425.479096286 357.024071477 433.744832357 351.169175093 c 0
 446.814822686 341.911265277 453.829824842 326.891992069 453.829824842 311.739783316 c 0
 453.829824842 302.156804716 451.023894047 292.520653225 445.169175093 284.255167643 c 0
 386.43829798 201.340988189 338.221553938 176.218407985 296.197067511 176.218407985 c 0
 231.563138384 176.218407985 181.576769807 235.644959255 130.514554056 235.644959255 c 0
 107.43639496 235.644959255 84.1384733598 223.505941666 59.1691750929 188.255167643 c 0
 49.9112652766 175.185177314 34.891992069 168.170175158 19.7397833156 168.170175158 c 0
 10.1568047157 168.170175158 0.520653225269 170.976105953 -7.74483235746 176.830824907 c 0
EndSplineSet
EndChar

StartChar: tildecomb
Encoding: 771 771 95
Width: 0
VWidth: 0
Flags: HW
AnchorPoint: "above" -152 0 mark 0
LayerCount: 2
Fore
SplineSet
48.9232073882 783.071349005 m 0
 33.9597949066 792.239361691 26.3747111161 808.252368371 26.3747111161 824.248175858 c 0
 26.3747111161 832.635755692 28.4602648276 841.018606529 32.6611812722 848.407368169 c 0
 32.9022770763 848.800868493 77.4251851969 936 164 936 c 0
 179.001310249 936 194.70490323 932.603451109 208.173616686 924.609000668 c 0
 236.044516785 908.066030152 243.508475156 881.658398843 246.74791076 873.367754205 c 1
 264.313180084 879.72281743 288.434870621 910.562508807 291.017328784 914.561434133 c 0
 300.394075732 928.45414987 315.736284426 935.899041297 331.238845852 935.899041297 c 0
 339.965932252 935.899041297 348.743835531 933.539704192 356.536918056 928.643152144 c 0
 370.782563063 919.692324022 378.896461588 904.238833939 378.896461588 888.07137352 c 0
 378.896461588 879.679372777 376.710326542 871.095006359 372.060846966 863.127838915 c 1
 372.060846966 863.127838915 327.795644389 776 240 776 c 0
 224.240184298 776 207.707353337 779.805298396 193.867778676 788.593762287 c 0
 167.89181824 805.089124024 161.193190158 828.545838412 157.259704759 838.612755498 c 1
 140.624509347 832.267039472 117.361774027 802.782351086 114.276256584 797.88597153 c 0
 105.534289234 784.613270811 89.611866998 776.264962266 73.2189571129 776.264962266 c 0
 64.953264224 776.264962266 56.5679538537 778.38744868 48.9232073882 783.071349005 c 0
EndSplineSet
EndChar

StartChar: dotlessi
Encoding: 305 305 96
Width: 230
VWidth: 0
Flags: HW
AnchorPoint: "above" -152 0 basechar 0
LayerCount: 2
Fore
SplineSet
-35.3740388842 3.65595084928 m 0
 -53.6835841976 11.2425448565 -64.9089671049 29.4874727392 -64.9089671049 48.394180927 c 0
 -64.9089671049 54.4283854234 -63.7655376647 60.5299995654 -61.3440491507 66.3740388842 c 2
 117.655950849 498.374038884 l 2
 125.242544856 516.683584198 143.487472739 527.908967105 162.394180927 527.908967105 c 0
 168.428385423 527.908967105 174.529999565 526.765537665 180.374038884 524.344049151 c 0
 198.684670469 516.757005045 209.908897623 498.511734652 209.908897623 479.605737226 c 0
 209.908897623 473.571432143 208.765461823 467.469817398 206.344049151 461.625961116 c 2
 27.3440491507 29.6259611158 l 2
 19.757005045 11.315329531 1.51173465235 0.0911023771115 -17.3942627739 0.0911023771115 c 0
 -23.4285678566 0.0911023771115 -29.530182602 1.2345381768 -35.3740388842 3.65595084928 c 0
EndSplineSet
EndChar

StartChar: uni0237
Encoding: 567 567 97
Width: 230
VWidth: 0
Flags: HW
AnchorPoint: "above" -152 0 basechar 0
LayerCount: 2
Fore
SplineSet
180.415241976 524.326954136 m 0
 198.703403231 516.729298909 209.908600713 498.496566021 209.908600713 479.605689451 c 0
 209.908600713 473.557017248 208.75982461 467.440871023 206.326954136 461.584758024 c 2
 -19.7478507059 -82.5953031881 l 2
 -40.0423864576 -130.347152016 -85.6709567592 -192 -161 -192 c 0
 -177.096417399 -192 -185.71171775 -188.328373093 -188.312910838 -187.49900718 c 0
 -208.767146876 -180.231912156 -220.994910526 -161.590880596 -220.994910526 -141.918918194 c 0
 -220.994910526 -137.096733644 -220.260160993 -132.212601876 -218.73172485 -127.418870338 c 0
 -212.33304585 -107.3502862 -193.511302226 -94.084394109 -172.816764965 -94.084394109 c 0
 -168.404972088 -94.084394109 -163.908063699 -94.6873079456 -159.428261193 -95.955757453 c 1
 -145.385077988 -95.0843623562 -121.48357265 -76.5374576502 -108.252149294 -45.4046968119 c 2
 117.673045864 498.415241976 l 2
 125.271151457 516.704487297 143.504224121 527.908531156 162.394391097 527.908531156 c 0
 168.443164785 527.908531156 174.559312233 526.759748478 180.415241976 524.326954136 c 0
EndSplineSet
EndChar

StartChar: gravecomb
Encoding: 768 768 98
Width: 0
VWidth: 0
Flags: HW
AnchorPoint: "above" -152 0 mark 0
LayerCount: 2
Fore
SplineSet
112.418926513 943.077726148 m 0
 121.79968088 954.119655767 135.44253167 959.812326555 149.133968153 959.812326555 c 0
 160.148342996 959.812326555 171.194161281 956.128172843 180.077726148 948.581073487 c 2
 293.077726148 852.581073487 l 2
 304.119655767 843.20031912 309.812326555 829.55746833 309.812326555 815.866031847 c 0
 309.812326555 804.851657004 306.128172843 793.805838719 298.581073487 784.922273852 c 0
 289.199938886 773.879896665 275.557289922 768.187700164 261.866344715 768.187700164 c 0
 250.851576436 768.187700164 239.805547563 771.872074511 230.922273852 779.418926513 c 2
 117.922273852 875.418926513 l 2
 106.879896665 884.800061114 101.187700164 898.442710078 101.187700164 912.133655285 c 0
 101.187700164 923.148423564 104.872074511 934.194452437 112.418926513 943.077726148 c 0
EndSplineSet
EndChar

StartChar: acutecomb
Encoding: 769 769 99
Width: 0
VWidth: 0
Flags: HW
AnchorPoint: "above" -152 0 mark 0
LayerCount: 2
Fore
SplineSet
66.0230515317 794.622865011 m 0
 62.691445777 801.320780747 61.1181729657 808.501126354 61.1181729657 815.612241256 c 0
 61.1181729657 833.353748985 70.9110363235 850.664329018 87.6228650106 858.976948468 c 2
 280.622865011 954.976948468 l 2
 287.320780747 958.308554223 294.501126354 959.881827034 301.612241256 959.881827034 c 0
 319.353748985 959.881827034 336.664329018 950.088963677 344.976948468 933.377134989 c 0
 348.308653609 926.679019447 349.88189871 919.498723795 349.88189871 912.387778172 c 0
 349.88189871 894.645633455 340.088038352 877.335210717 323.377134989 869.023051532 c 2
 130.377134989 773.023051532 l 2
 123.679019447 769.691346391 116.498723795 768.11810129 109.387778172 768.11810129 c 0
 91.645633455 768.11810129 74.3352107173 777.911961648 66.0230515317 794.622865011 c 0
EndSplineSet
EndChar

StartChar: uni0302
Encoding: 770 770 100
Width: 0
VWidth: 0
Flags: HW
AnchorPoint: "above" -152 0 mark 0
LayerCount: 2
Fore
SplineSet
62.8602703655 805.678865813 m 0
 57.6457568202 813.63099897 55.1600580049 822.694005721 55.1600580049 831.697664393 c 0
 55.1600580049 847.448180622 62.7668238049 863.017079137 76.6788658134 872.139729635 c 2
 198.678865813 952.139729635 l 2
 206.614034562 957.343118978 215.574732162 959.745695839 224.44131225 959.745695839 c 0
 239.938547474 959.745695839 255.148263661 952.40607783 264.092196324 939.853189881 c 2
 321.092196324 859.853189881 l 2
 326.997578005 851.564934891 329.829109129 841.884501462 329.829109129 832.256702093 c 0
 329.829109129 817.150599662 322.858477588 802.174071167 309.853189881 792.907803676 c 0
 301.564683256 787.002242705 291.884416344 784.170840349 282.256940722 784.170840349 c 0
 267.150305093 784.170840349 252.173648386 791.142115789 242.907803676 804.146810119 c 2
 212.704269079 846.537735869 l 1
 129.321134187 791.860270365 l 2
 121.368764573 786.645601767 112.305897975 784.15999914 103.30252738 784.15999914 c 0
 87.5514576002 784.15999914 71.9824826665 791.767492054 62.8602703655 805.678865813 c 0
EndSplineSet
EndChar

StartChar: uni0308
Encoding: 776 776 101
Width: 0
VWidth: 0
Flags: HW
AnchorPoint: "above" -152 0 mark 0
LayerCount: 2
Fore
SplineSet
90.5384615385 771.692307692 m 0
 72.2743463342 779.302355694 61.0918112799 797.521365246 61.0918112799 816.394449251 c 0
 61.0918112799 822.459387 62.246612456 828.591869894 64.6923076923 834.461538462 c 2
 84.6923076923 882.461538462 l 2
 92.3023556941 900.725653666 110.521365246 911.90818872 129.394449251 911.90818872 c 0
 135.459387 911.90818872 141.591869894 910.753387544 147.461538462 908.307692308 c 0
 165.726735254 900.697193644 176.908119079 882.477847382 176.908119079 863.605471664 c 0
 176.908119079 857.540431419 175.753311085 851.407946603 173.307692308 845.538461538 c 2
 153.307692308 797.538461538 l 2
 145.697193644 779.273264746 127.477847382 768.091880921 108.605471664 768.091880921 c 0
 102.540431419 768.091880921 96.4079466033 769.246688915 90.5384615385 771.692307692 c 0
243.538461538 771.692307692 m 0
 225.274346334 779.302355694 214.09181128 797.521365246 214.09181128 816.394449251 c 0
 214.09181128 822.459387 215.246612456 828.591869894 217.692307692 834.461538462 c 2
 237.692307692 882.461538462 l 2
 245.302355694 900.725653666 263.521365246 911.90818872 282.394449251 911.90818872 c 0
 288.459387 911.90818872 294.591869894 910.753387544 300.461538462 908.307692308 c 0
 318.726735254 900.697193644 329.908119079 882.477847382 329.908119079 863.605471664 c 0
 329.908119079 857.540431419 328.753311085 851.407946603 326.307692308 845.538461538 c 2
 306.307692308 797.538461538 l 2
 298.697193644 779.273264746 280.477847382 768.091880921 261.605471664 768.091880921 c 0
 255.540431419 768.091880921 249.407946603 769.246688915 243.538461538 771.692307692 c 0
EndSplineSet
EndChar

StartChar: uni030A
Encoding: 778 778 102
Width: 0
VWidth: 0
Flags: HW
HStem: 816 160<-44.1492 44.1492>
VStem: -64 128<840.814 951.186>
AnchorPoint: "above" -152 0 mark 0
LayerCount: 2
Fore
SplineSet
327.426253898 877.825623405 m 0
 304.128004709 820.874347609 249.920601559 768 186 768 c 0
 174.95427901 768 163.681180728 769.886351183 153.031760704 774.081314246 c 0
 113.507255652 789.650597681 99.5452105434 824.163315084 99.5452105434 858.943099789 c 0
 99.5452105434 878.352321227 103.89343033 897.844715819 110.573746102 914.174376595 c 0
 133.871995291 971.125652391 188.079398441 1024 252 1024 c 0
 263.04572099 1024 274.318819272 1022.11364882 284.968239296 1017.91868575 c 0
 324.492744348 1002.34940232 338.454789457 967.836684916 338.454789457 933.056900211 c 0
 338.454789457 913.647678773 334.10656967 894.155284181 327.426253898 877.825623405 c 0
238.573746102 914.174376595 m 0
 240.242260783 918.252968036 241.079585905 920.918339727 241.964181904 924.846098494 c 1
 227.800613439 917.94385326 207.698262243 898.046088248 199.426253898 877.825623405 c 0
 197.757739217 873.747031964 196.920414095 871.081660273 196.035818096 867.153901506 c 1
 210.199386561 874.05614674 230.301737757 893.953911752 238.573746102 914.174376595 c 0
EndSplineSet
EndChar

StartChar: uni0327
Encoding: 807 807 103
Width: 0
VWidth: 0
Flags: HW
AnchorPoint: "bottom" -152 0 mark 0
LayerCount: 2
Fore
SplineSet
-334 -200 m 0
 -334 -173.855528292 -312.146366075 -152 -286 -152 c 0
 -230.60119804 -152 -213.446114397 -139.937548922 -204.238589446 -121.748065832 c 1
 -211.700889178 -120.628294943 -221.163916036 -120 -233 -120 c 0
 -259.354847908 -120 -280.996663789 -97.8655822267 -280.996663789 -71.9101648326 c 0
 -280.996663789 -59.4788141098 -273.049754033 -44.9240303572 -269.283762984 -40.5756695583 c 2
 -172.283762984 71.4243304417 l 2
 -162.906931902 82.2511869488 -149.414912319 87.8111239556 -135.881184959 87.8111239556 c 0
 -124.710985227 87.8111239556 -113.512373345 84.0235867996 -104.575669558 76.2837629842 c 0
 -93.7483800363 66.9065568802 -88.1888997607 53.4147440701 -88.1888997607 39.8815031932 c 0
 -88.1888997607 28.7109030788 -91.9766695899 17.5120773078 -99.7162370158 8.57566955833 c 2
 -143.551012172 -42.0376790759 l 1
 -134.066331768 -47.6453264124 -121.200846517 -58.5380232284 -113.654338922 -72.1303195144 c 0
 -106.655737889 -84.7357608553 -103.94356574 -97.7147548812 -103.94356574 -110.304052297 c 0
 -103.94356574 -126.147506964 -108.23906883 -141.373765192 -113.692307692 -154.461538462 c 0
 -144.249856236 -227.799654967 -215.897356077 -248 -286 -248 c 0
 -312.146366075 -248 -334 -226.144471708 -334 -200 c 0
EndSplineSet
EndChar

StartChar: dieresis
Encoding: 168 168 104
Width: 384
VWidth: 0
Flags: HW
AnchorPoint: "above" -152 0 mark 0
LayerCount: 2
Fore
SplineSet
209.538461538 595.692307692 m 0
 191.274346334 603.302355694 180.09181128 621.521365246 180.09181128 640.394449251 c 0
 180.09181128 646.459387 181.246612456 652.591869894 183.692307692 658.461538462 c 2
 203.692307692 706.461538462 l 2
 211.302355694 724.725653666 229.521365246 735.90818872 248.394449251 735.90818872 c 0
 254.459387 735.90818872 260.591869894 734.753387544 266.461538462 732.307692308 c 0
 284.726735254 724.697193644 295.908119079 706.477847382 295.908119079 687.605471664 c 0
 295.908119079 681.540431419 294.753311085 675.407946603 292.307692308 669.538461538 c 2
 272.307692308 621.538461538 l 2
 264.697193644 603.273264746 246.477847382 592.091880921 227.605471664 592.091880921 c 0
 221.540431419 592.091880921 215.407946603 593.246688915 209.538461538 595.692307692 c 0
362.538461538 595.692307692 m 0
 344.274346334 603.302355694 333.09181128 621.521365246 333.09181128 640.394449251 c 0
 333.09181128 646.459387 334.246612456 652.591869894 336.692307692 658.461538462 c 2
 356.692307692 706.461538462 l 2
 364.302355694 724.725653666 382.521365246 735.90818872 401.394449251 735.90818872 c 0
 407.459387 735.90818872 413.591869894 734.753387544 419.461538462 732.307692308 c 0
 437.726735254 724.697193644 448.908119079 706.477847382 448.908119079 687.605471664 c 0
 448.908119079 681.540431419 447.753311085 675.407946603 445.307692308 669.538461538 c 2
 425.307692308 621.538461538 l 2
 417.697193644 603.273264746 399.477847382 592.091880921 380.605471664 592.091880921 c 0
 374.540431419 592.091880921 368.407946603 593.246688915 362.538461538 595.692307692 c 0
EndSplineSet
EndChar

StartChar: cedilla
Encoding: 184 184 106
Width: 256
VWidth: 0
Flags: HW
AnchorPoint: "bottom" -152 0 mark 0
LayerCount: 2
Fore
SplineSet
-206 -200 m 0
 -206 -173.855528292 -184.146366075 -152 -158 -152 c 0
 -102.60119804 -152 -85.4461143966 -139.937548922 -76.2385894457 -121.748065832 c 1
 -83.7008891783 -120.628294943 -93.1639160364 -120 -105 -120 c 0
 -131.354847908 -120 -152.996663789 -97.8655822267 -152.996663789 -71.9101648326 c 0
 -152.996663789 -59.4788141098 -145.049754033 -44.9240303572 -141.283762984 -40.5756695583 c 2
 -44.2837629842 71.4243304417 l 2
 -34.9069319021 82.2511869488 -21.4149123195 87.8111239556 -7.88118495887 87.8111239556 c 0
 3.28901477345 87.8111239556 14.4876266548 84.0235867996 23.4243304417 76.2837629842 c 0
 34.2516199637 66.9065568802 39.8111002393 53.4147440701 39.8111002393 39.8815031932 c 0
 39.8111002393 28.7109030788 36.0233304101 17.5120773078 28.2837629842 8.57566955833 c 2
 -15.5510121723 -42.0376790759 l 1
 -6.06633176796 -47.6453264124 6.79915348282 -58.5380232284 14.3456610783 -72.1303195144 c 0
 21.3442621109 -84.7357608553 24.0564342604 -97.7147548812 24.0564342604 -110.304052297 c 0
 24.0564342604 -126.147506964 19.7609311698 -141.373765192 14.3076923077 -154.461538462 c 0
 -16.2498562363 -227.799654967 -87.8973560774 -248 -158 -248 c 0
 -184.146366075 -248 -206 -226.144471708 -206 -200 c 0
EndSplineSet
EndChar

StartChar: minus
Encoding: 8722 8722 161
Width: 512
VWidth: 0
Flags: HW
LayerCount: 2
Fore
SplineSet
35 368 m 0
 35 394.144471708 56.8536339246 416 83 416 c 2
 429 416 l 2
 455.144471708 416 477 394.146366075 477 368 c 0
 477 341.853633925 455.144471708 320 429 320 c 2
 83 320 l 2
 56.8536339246 320 35 341.855528292 35 368 c 0
EndSplineSet
EndChar

StartChar: degree
Encoding: 176 176 164
Width: 384
VWidth: 32
Flags: HW
HStem: 432 256<134.76 249.24>
VStem: 90 205<488.45 631.55>
AnchorPoint: "above" -152 0 mark 0
LayerCount: 2
Fore
SplineSet
418.4362167 541.849995996 m 0
 384.265873195 458.191568793 304.760003777 384 219 384 c 0
 204.109407681 384 189.343069338 386.526461403 175.596556269 392.010803207 c 0
 127.340968966 411.262967985 108.659640379 454.36913678 108.659640379 500.596986318 c 0
 108.659640379 526.696641428 114.614477872 553.791359682 124.5637833 578.150004004 c 0
 158.883846384 662.174986039 239.472529604 736 325 736 c 0
 339.96036954 736 354.808319854 733.449558957 368.622538162 727.871120693 c 0
 416.414410757 708.571873722 434.592024349 665.978438161 434.592024349 620.377239669 c 0
 434.592024349 593.891190157 428.45979024 566.390469145 418.4362167 541.849995996 c 0
329.5637833 578.150004004 m 0
 337.317194145 597.132492627 339.75966342 610.378200965 339.75966342 619.533739871 c 0
 339.75966342 635.125399931 332.676194396 638.855052649 332.676194396 638.855052649 c 2
 331.518418312 639.322584164 329.222322768 640 325 640 c 0
 296.527470396 640 237.116153616 599.825013961 213.4362167 541.849995996 c 0
 205.988606212 523.616191007 203.603715894 510.650627427 203.603715894 501.522124276 c 0
 203.603715894 485.262331842 211.170289575 481.176432788 211.170289575 481.176432788 c 2
 212.438208563 480.67058079 214.799683228 480 219 480 c 0
 247.239996223 480 305.734126805 519.808431207 329.5637833 578.150004004 c 0
EndSplineSet
EndChar

StartChar: uni00B2
Encoding: 178 178 165
Width: 422
VWidth: 516
Flags: HW
LayerCount: 2
Fore
SplineSet
285.696115698 849.626947147 m 0
 267.350196581 857.194638783 256.090409667 875.460290332 256.090409667 894.393946869 c 0
 256.090409667 900.403535903 257.224769213 906.480422643 259.626947147 912.303884302 c 0
 299.614064228 1009.24234995 385.035492706 1062 470 1062 c 0
 489.025119305 1062 507.466201174 1058.85878098 524.452404406 1051.86524774 c 0
 573.290218626 1031.75781865 594.188122152 988.204368893 594.188122152 940.946184865 c 0
 594.188122152 917.268803708 588.94227065 892.661449561 579.336226302 869.606943125 c 0
 555.469349901 811.823979206 515.531642466 777.305456849 443.721574187 736.271132119 c 0
 326.056308024 669.729395392 276.095762151 642.840062679 234.451936399 576 c 1
 402 576 l 2
 428.144471708 576 450 554.146366075 450 528 c 0
 450 501.853633925 428.144471708 480 402 480 c 2
 157 480 l 2
 152.869190934 480 146.930309722 480.806878008 142.212711138 482.334519732 c 0
 121.968587466 488.889924443 109.092751789 508.226521121 109.092751789 528.428811077 c 0
 109.092751789 534.421533799 110.2257327 540.490431302 112.635451528 546.324487412 c 0
 174.774531728 696.766471054 254.10572371 739.327753589 396.278425813 819.728867881 c 0
 464.468357534 858.694543151 476.530650099 872.176020794 490.663773698 906.393056875 c 0
 497.414796863 922.59551247 499.813057654 934.119051835 499.813057654 942.359925718 c 0
 499.813057654 957.189538642 492.046840988 961.388993472 487.903934139 963.094704651 c 0
 484.280131734 964.586690955 478.492737838 966 470 966 c 0
 424.964507294 966 374.385935772 938.757650047 348.373052853 875.696115698 c 0
 340.804911582 857.349106556 322.538912857 846.090479018 303.60596908 846.090479018 c 0
 297.596280986 846.090479018 291.519394693 847.224844562 285.696115698 849.626947147 c 0
EndSplineSet
EndChar

StartChar: uni00B3
Encoding: 179 179 166
Width: 422
VWidth: 516
Flags: HW
LayerCount: 2
Fore
SplineSet
190 655 m 0
 216.144471708 655 238 633.146366075 238 607 c 0
 238 579.919129024 247.327465848 570 274 570 c 0
 320.843042834 570 396.819809001 622.422132305 424.582275555 690.195212423 c 0
 433.55922731 712.109535824 437.135989679 730.612931869 437.135989679 745.285694275 c 0
 437.135989679 771.002065292 432.696235492 777 405 777 c 0
 399.265457484 777 373.06282976 770.327549755 355.826752465 763.433118838 c 0
 350.144089261 761.160053556 344.234868784 760.086261499 338.392011252 760.086261499 c 0
 331.98239214 760.086261499 325.652634901 761.378474298 319.78943593 763.797246885 c 0
 308.577351276 768.410133525 299.054792096 777.145700973 293.95391897 788.922716496 c 0
 293.864140355 789.129999475 293.775986002 789.337637041 293.689450087 789.545614322 c 0
 293.602615418 789.753914485 293.517166711 789.963127661 293.433118838 790.173247535 c 0
 291.159981494 795.856090894 290.086193122 801.765318846 290.086193122 807.608087602 c 0
 290.086193122 814.017824515 291.378488256 820.347578353 293.797303959 826.210714675 c 0
 298.410005978 837.422463751 307.145225109 846.945001735 318.922716496 852.04608103 c 0
 386.048022923 881.119462158 436.516809499 924.235616936 469.599359029 960 c 1
 344 960 l 2
 317.855528292 960 296 981.853633925 296 1008 c 0
 296 1034.14636608 317.855528292 1056 344 1056 c 2
 565 1056 l 2
 568.932232568 1056 578.210493159 1054.59740909 584.141965261 1052.01800956 c 0
 602.155929438 1044.18433694 612.865003097 1026.11826266 612.865003097 1007.56926883 c 0
 612.865003097 1000.0645015 611.111987997 992.480682958 607.380500891 985.463515264 c 0
 605.863244529 982.610271498 568.918565018 912.544595653 488.105646811 844.971378398 c 1
 517.164342275 821.03470498 533.134252959 784.24635636 533.134252959 744.495539992 c 0
 533.134252959 714.60812656 525.934522392 684.360500212 513.417724445 653.804787577 c 0
 473.180190999 555.577867695 373.156957166 474 274 474 c 0
 194.672534152 474 142 534.080870976 142 607 c 0
 142 633.146366075 163.855528292 655 190 655 c 0
EndSplineSet
EndChar

StartChar: uni00B9
Encoding: 185 185 167
Width: 230
VWidth: 492
Flags: HW
LayerCount: 2
Fore
SplineSet
398.382798529 1052.34041856 m 0
 416.687798963 1044.75147047 427.908889233 1026.50913374 427.908889233 1007.60579103 c 0
 427.908889233 1001.5685114 426.764324334 995.463808358 424.340418562 989.617201471 c 2
 225.340418562 509.617201471 l 2
 217.751470465 491.312201037 199.509133737 480.091110767 180.605791029 480.091110767 c 0
 174.568511402 480.091110767 168.463808358 481.235675666 162.617201471 483.659581438 c 0
 144.311115234 491.248979691 133.091180265 509.491658346 133.091180265 528.394290542 c 0
 133.091180265 534.431670946 134.235751569 540.536374725 136.659581438 546.382798529 c 2
 335.659581438 1026.38279853 l 2
 343.248979691 1044.68888477 361.491658346 1055.90881973 380.394290542 1055.90881973 c 0
 386.431670946 1055.90881973 392.536374725 1054.76424843 398.382798529 1052.34041856 c 0
EndSplineSet
EndChar

StartChar: minute
Encoding: 8242 8242 168
Width: 204
VWidth: 0
Flags: HW
LayerCount: 2
Fore
SplineSet
270.756791506 730.262612796 m 0
 286.706775149 721.674160066 295.869557975 704.824118084 295.869557975 687.626441353 c 0
 295.869557975 680.003961601 294.069525296 672.31318885 290.262612796 665.243208494 c 2
 178.262612796 457.243208494 l 2
 169.674160066 441.293224851 152.824118084 432.130442025 135.626441353 432.130442025 c 0
 128.003961601 432.130442025 120.31318885 433.930474704 113.243208494 437.737387204 c 0
 97.2923728863 446.326298685 88.1305122765 463.176423198 88.1305122765 480.373490106 c 0
 88.1305122765 487.996172172 89.9305869875 495.687019676 93.7373872037 502.756791506 c 2
 205.737387204 710.756791506 l 2
 214.326298685 726.707627114 231.176423198 735.869487723 248.373490106 735.869487723 c 0
 255.996172172 735.869487723 263.687019676 734.069413012 270.756791506 730.262612796 c 0
EndSplineSet
EndChar

StartChar: second
Encoding: 8243 8243 169
Width: 332
VWidth: 0
Flags: HW
LayerCount: 2
Fore
SplineSet
398.756791506 730.262612796 m 0
 414.706775149 721.674160066 423.869557975 704.824118084 423.869557975 687.626441353 c 0
 423.869557975 680.003961601 422.069525296 672.31318885 418.262612796 665.243208494 c 2
 306.262612796 457.243208494 l 2
 297.674160066 441.293224851 280.824118084 432.130442025 263.626441353 432.130442025 c 0
 256.003961601 432.130442025 248.31318885 433.930474704 241.243208494 437.737387204 c 0
 225.292372886 446.326298685 216.130512277 463.176423198 216.130512277 480.373490106 c 0
 216.130512277 487.996172172 217.930586988 495.687019676 221.737387204 502.756791506 c 2
 333.737387204 710.756791506 l 2
 342.326298685 726.707627114 359.176423198 735.869487723 376.373490106 735.869487723 c 0
 383.996172172 735.869487723 391.687019676 734.069413012 398.756791506 730.262612796 c 0
270.756791506 730.262612796 m 0
 286.706775149 721.674160066 295.869557975 704.824118084 295.869557975 687.626441353 c 0
 295.869557975 680.003961601 294.069525296 672.31318885 290.262612796 665.243208494 c 2
 178.262612796 457.243208494 l 2
 169.674160066 441.293224851 152.824118084 432.130442025 135.626441353 432.130442025 c 0
 128.003961601 432.130442025 120.31318885 433.930474704 113.243208494 437.737387204 c 0
 97.2923728863 446.326298685 88.1305122765 463.176423198 88.1305122765 480.373490106 c 0
 88.1305122765 487.996172172 89.9305869875 495.687019676 93.7373872037 502.756791506 c 2
 205.737387204 710.756791506 l 2
 214.326298685 726.707627114 231.176423198 735.869487723 248.373490106 735.869487723 c 0
 255.996172172 735.869487723 263.687019676 734.069413012 270.756791506 730.262612796 c 0
EndSplineSet
EndChar

StartChar: uni2034
Encoding: 8244 8244 170
Width: 460
VWidth: 0
Flags: HW
LayerCount: 2
Fore
SplineSet
526.756791506 730.262612796 m 0
 542.706775149 721.674160066 551.869557975 704.824118084 551.869557975 687.626441353 c 0
 551.869557975 680.003961601 550.069525296 672.31318885 546.262612796 665.243208494 c 2
 434.262612796 457.243208494 l 2
 425.674160066 441.293224851 408.824118084 432.130442025 391.626441353 432.130442025 c 0
 384.003961601 432.130442025 376.31318885 433.930474704 369.243208494 437.737387204 c 0
 353.292372886 446.326298685 344.130512277 463.176423198 344.130512277 480.373490106 c 0
 344.130512277 487.996172172 345.930586988 495.687019676 349.737387204 502.756791506 c 2
 461.737387204 710.756791506 l 2
 470.326298685 726.707627114 487.176423198 735.869487723 504.373490106 735.869487723 c 0
 511.996172172 735.869487723 519.687019676 734.069413012 526.756791506 730.262612796 c 0
398.756791506 730.262612796 m 0
 414.706775149 721.674160066 423.869557975 704.824118084 423.869557975 687.626441353 c 0
 423.869557975 680.003961601 422.069525296 672.31318885 418.262612796 665.243208494 c 2
 306.262612796 457.243208494 l 2
 297.674160066 441.293224851 280.824118084 432.130442025 263.626441353 432.130442025 c 0
 256.003961601 432.130442025 248.31318885 433.930474704 241.243208494 437.737387204 c 0
 225.292372886 446.326298685 216.130512277 463.176423198 216.130512277 480.373490106 c 0
 216.130512277 487.996172172 217.930586988 495.687019676 221.737387204 502.756791506 c 2
 333.737387204 710.756791506 l 2
 342.326298685 726.707627114 359.176423198 735.869487723 376.373490106 735.869487723 c 0
 383.996172172 735.869487723 391.687019676 734.069413012 398.756791506 730.262612796 c 0
270.756791506 730.262612796 m 0
 286.706775149 721.674160066 295.869557975 704.824118084 295.869557975 687.626441353 c 0
 295.869557975 680.003961601 294.069525296 672.31318885 290.262612796 665.243208494 c 2
 178.262612796 457.243208494 l 2
 169.674160066 441.293224851 152.824118084 432.130442025 135.626441353 432.130442025 c 0
 128.003961601 432.130442025 120.31318885 433.930474704 113.243208494 437.737387204 c 0
 97.2923728863 446.326298685 88.1305122765 463.176423198 88.1305122765 480.373490106 c 0
 88.1305122765 487.996172172 89.9305869875 495.687019676 93.7373872037 502.756791506 c 2
 205.737387204 710.756791506 l 2
 214.326298685 726.707627114 231.176423198 735.869487723 248.373490106 735.869487723 c 0
 255.996172172 735.869487723 263.687019676 734.069413012 270.756791506 730.262612796 c 0
EndSplineSet
EndChar

StartChar: uni00AD
Encoding: 173 173 171
Width: 332
VWidth: 32
Flags: HW
LayerCount: 2
Fore
SplineSet
-27 264 m 0
 -27 290.144471708 -5.14636607536 312 21 312 c 2
 226 312 l 2
 252.144471708 312 274 290.146366075 274 264 c 0
 274 237.853633925 252.144471708 216 226 216 c 2
 21 216 l 2
 -5.14636607536 216 -27 237.855528292 -27 264 c 0
EndSplineSet
EndChar

StartChar: endash
Encoding: 8211 8211 173
Width: 409
VWidth: 0
Flags: HW
LayerCount: 2
Fore
SplineSet
-53 264 m 0
 -53 290.144471708 -31.1463660754 312 -5 312 c 2
 328 312 l 2
 354.144471708 312 376 290.146366075 376 264 c 0
 376 237.853633925 354.144471708 216 328 216 c 2
 -5 216 l 2
 -31.1463660754 216 -53 237.855528292 -53 264 c 0
EndSplineSet
EndChar

StartChar: emdash
Encoding: 8212 8212 174
Width: 819
VWidth: 0
Flags: HW
LayerCount: 2
Fore
SplineSet
-53 264 m 0
 -53 290.144471708 -31.1463660754 312 -5 312 c 2
 738 312 l 2
 764.144471708 312 786 290.146366075 786 264 c 0
 786 237.853633925 764.144471708 216 738 216 c 2
 -5 216 l 2
 -31.1463660754 216 -53 237.855528292 -53 264 c 0
EndSplineSet
EndChar

StartChar: figuredash
Encoding: 8210 8210 190
Width: 537
VWidth: 0
Flags: HW
LayerCount: 2
Fore
SplineSet
-10 368 m 0
 -10 394.144471708 11.8536339246 416 38 416 c 2
 499 416 l 2
 525.144471708 416 547 394.146366075 547 368 c 0
 547 341.853633925 525.144471708 320 499 320 c 2
 38 320 l 2
 11.8536339246 320 -10 341.855528292 -10 368 c 0
EndSplineSet
EndChar

StartChar: uni2057
Encoding: 8279 8279 191
Width: 588
VWidth: 0
Flags: HW
LayerCount: 2
Fore
SplineSet
654.756791506 730.262612796 m 0
 670.706775149 721.674160066 679.869557975 704.824118084 679.869557975 687.626441353 c 0
 679.869557975 680.003961601 678.069525296 672.31318885 674.262612796 665.243208494 c 2
 562.262612796 457.243208494 l 2
 553.674160066 441.293224851 536.824118084 432.130442025 519.626441353 432.130442025 c 0
 512.003961601 432.130442025 504.31318885 433.930474704 497.243208494 437.737387204 c 0
 481.292372886 446.326298685 472.130512277 463.176423198 472.130512277 480.373490106 c 0
 472.130512277 487.996172172 473.930586988 495.687019676 477.737387204 502.756791506 c 2
 589.737387204 710.756791506 l 2
 598.326298685 726.707627114 615.176423198 735.869487723 632.373490106 735.869487723 c 0
 639.996172172 735.869487723 647.687019676 734.069413012 654.756791506 730.262612796 c 0
526.756791506 730.262612796 m 0
 542.706775149 721.674160066 551.869557975 704.824118084 551.869557975 687.626441353 c 0
 551.869557975 680.003961601 550.069525296 672.31318885 546.262612796 665.243208494 c 2
 434.262612796 457.243208494 l 2
 425.674160066 441.293224851 408.824118084 432.130442025 391.626441353 432.130442025 c 0
 384.003961601 432.130442025 376.31318885 433.930474704 369.243208494 437.737387204 c 0
 353.292372886 446.326298685 344.130512277 463.176423198 344.130512277 480.373490106 c 0
 344.130512277 487.996172172 345.930586988 495.687019676 349.737387204 502.756791506 c 2
 461.737387204 710.756791506 l 2
 470.326298685 726.707627114 487.176423198 735.869487723 504.373490106 735.869487723 c 0
 511.996172172 735.869487723 519.687019676 734.069413012 526.756791506 730.262612796 c 0
398.756791506 730.262612796 m 0
 414.706775149 721.674160066 423.869557975 704.824118084 423.869557975 687.626441353 c 0
 423.869557975 680.003961601 422.069525296 672.31318885 418.262612796 665.243208494 c 2
 306.262612796 457.243208494 l 2
 297.674160066 441.293224851 280.824118084 432.130442025 263.626441353 432.130442025 c 0
 256.003961601 432.130442025 248.31318885 433.930474704 241.243208494 437.737387204 c 0
 225.292372886 446.326298685 216.130512277 463.176423198 216.130512277 480.373490106 c 0
 216.130512277 487.996172172 217.930586988 495.687019676 221.737387204 502.756791506 c 2
 333.737387204 710.756791506 l 2
 342.326298685 726.707627114 359.176423198 735.869487723 376.373490106 735.869487723 c 0
 383.996172172 735.869487723 391.687019676 734.069413012 398.756791506 730.262612796 c 0
270.756791506 730.262612796 m 0
 286.706775149 721.674160066 295.869557975 704.824118084 295.869557975 687.626441353 c 0
 295.869557975 680.003961601 294.069525296 672.31318885 290.262612796 665.243208494 c 2
 178.262612796 457.243208494 l 2
 169.674160066 441.293224851 152.824118084 432.130442025 135.626441353 432.130442025 c 0
 128.003961601 432.130442025 120.31318885 433.930474704 113.243208494 437.737387204 c 0
 97.2923728863 446.326298685 88.1305122765 463.176423198 88.1305122765 480.373490106 c 0
 88.1305122765 487.996172172 89.9305869875 495.687019676 93.7373872037 502.756791506 c 2
 205.737387204 710.756791506 l 2
 214.326298685 726.707627114 231.176423198 735.869487723 248.373490106 735.869487723 c 0
 255.996172172 735.869487723 263.687019676 734.069413012 270.756791506 730.262612796 c 0
EndSplineSet
EndChar

StartChar: copyright
Encoding: 169 169 192
Width: 588
VWidth: 0
Flags: HW
HStem: 48 640<200.562 388.238>
VStem: 38 512<250.702 485.298>
LayerCount: 2
Fore
SplineSet
594.374157479 349.698793808 m 0
 516.16077922 160.058136935 331.86416144 0 162 0 c 0
 132.714914322 0 105.001376879 5.05531678108 79.9423235672 15.2561391417 c 0
 -3.29785539335 49.1408301666 -41.6614563091 127.798857708 -41.6614563091 220.875424759 c 0
 -41.6614563091 273.254405703 -29.512114784 330.199583684 -6.37415747852 386.301206192 c 0
 71.8995900704 576.08823792 257.227971364 736 427 736 c 0
 456.284415007 736 483.985488032 730.944927786 509.021060845 720.727828594 c 0
 591.926666305 686.893779702 629.887471865 608.60268216 629.887471865 515.986341258 c 0
 629.887471865 463.341044458 617.622138991 406.067187337 594.374157479 349.698793808 c 0
505.625842521 386.301206192 m 0
 526.139528822 436.039870235 534.662158998 478.849179076 534.662158998 514.319047063 c 0
 534.662158998 577.740097167 507.414991811 617.696680566 472.747520007 631.844589257 c 0
 460.370441985 636.8957153 445.34706292 640 427 640 c 0
 314.772028636 640 150.10040993 513.91176208 82.3741574785 349.698793808 c 0
 62.0122973341 300.328256198 53.5415875735 257.760991562 53.5415875735 222.418707606 c 0
 53.5415875735 158.676227947 81.0958306739 118.435778184 116.137195281 104.171443008 c 0
 128.585634663 99.1040401326 143.653607751 96 162 96 c 0
 274.13583856 96 437.83922078 221.941863065 505.625842521 386.301206192 c 0
356.461538462 328.307692308 m 0
 374.725653666 320.697644306 385.90818872 302.478634754 385.90818872 283.605550749 c 0
 385.90818872 277.540613 384.753387544 271.408130106 382.307692308 265.538461538 c 0
 371.671687221 240.01204933 314.267924769 156 226 156 c 0
 213.283670142 156 200.371523955 158.318443325 188.375697106 163.318606077 c 0
 141.726224299 182.763281237 125.066648412 224.789212439 125.066648412 271.826854286 c 0
 125.066648412 309.870001752 135.964119879 351.191442383 150.706721743 386.496094217 c 0
 191.286419656 483.673791851 271.211511803 580 362 580 c 0
 386.288521167 580 409.45962929 571.752807043 425.889500201 556.880941132 c 0
 453.22067995 532.141511187 458.027103093 501.341066058 458.027103093 482.66007286 c 0
 458.027103093 472.606523368 456.635033594 466.06309333 456.612624768 465.863545 c 0
 452.999007364 441.039543122 432.294808324 423.99901742 409.004973817 423.99901742 c 0
 407.230644738 423.99901742 405.441308349 424.097922483 403.643378511 424.299825931 c 0
 378.235153945 427.153111991 359.005677015 448.740791807 361.299150124 477.673320167 c 1
 361.299150124 477.673320167 361.479957576 480.068558474 360.883198724 483.960464033 c 0
 339.710457126 482.488932295 273.598925093 431.656902155 239.293278257 349.503905783 c 0
 226.250465634 318.26980187 222.527144633 292.602793503 222.527144633 275.251288965 c 0
 222.527144633 263.130649692 224.343945197 255.067574095 226.070083373 251.998861165 c 1
 242.260615629 252.26912702 284.579529637 289.024445463 294.759366209 304.845337969 c 0
 302.718100651 320.899300158 320.193566839 331.864025662 338.685933387 331.864025662 c 0
 344.599801573 331.864025662 350.617670561 330.742637266 356.461538462 328.307692308 c 0
EndSplineSet
EndChar

StartChar: registered
Encoding: 174 174 193
Width: 588
VWidth: 0
Flags: HW
HStem: 48 640<200.562 388.238>
VStem: 38 512<250.702 485.298>
LayerCount: 2
Fore
SplineSet
286.023405127 424 m 1
 320 424 l 2
 339.691380294 424 361.459111438 430.938866396 377.599048718 470.236104991 c 0
 379.176719528 474.077390443 379.850332897 475.918076786 381.104438186 480 c 1
 309.123405127 480 l 1
 286.023405127 424 l 1
246.423405127 328 m 1
 189.373052853 189.696115698 l 2
 181.804911582 171.349106556 163.538912857 160.090479018 144.60596908 160.090479018 c 0
 138.596280986 160.090479018 132.519394693 161.224844562 126.696115698 163.626947147 c 0
 108.350196581 171.194638783 97.0904096673 189.460290332 97.0904096673 208.393946869 c 0
 97.0904096673 214.403535903 98.2247692131 220.480422643 100.626947147 226.303884302 c 2
 177.309028072 412.199838059 l 1
 232.626947147 546.303884302 l 2
 234.30579313 550.373813957 236.556527524 554.101303289 239.236090415 557.437577012 c 1
 175.090048469 505.319895722 116.456516509 432.336841205 82.3741574785 349.698793808 c 0
 62.0122973341 300.328256198 53.5415875735 257.760991562 53.5415875735 222.418707606 c 0
 53.5415875735 158.676227947 81.0958306739 118.435778184 116.137195281 104.171443008 c 0
 128.585634663 99.1040401326 143.653607751 96 162 96 c 0
 211.186974111 96 270.295686976 120.231564563 326.879192139 161.308068499 c 1
 322.292313193 160.203102528 317.484343679 159.771682113 312.580141601 160.121982408 c 0
 286.502110843 161.984698891 266.259130957 185.339938089 268.121982408 211.419858399 c 2
 276.44913538 328 l 1
 246.423405127 328 l 1
594.374157479 349.698793808 m 0
 516.16077922 160.058136935 331.86416144 0 162 0 c 0
 132.714914322 0 105.001376879 5.05531678108 79.9423235672 15.2561391417 c 0
 -3.29785539335 49.1408301666 -41.6614563091 127.798857708 -41.6614563091 220.875424759 c 0
 -41.6614563091 273.254405703 -29.512114784 330.199583684 -6.37415747852 386.301206192 c 0
 71.8995900704 576.08823792 257.227971364 736 427 736 c 0
 456.284415007 736 483.985488032 730.944927786 509.021060845 720.727828594 c 0
 591.926666305 686.893779702 629.887471865 608.60268216 629.887471865 515.986341258 c 0
 629.887471865 463.341044458 617.622138991 406.067187337 594.374157479 349.698793808 c 0
505.625842521 386.301206192 m 0
 526.139528822 436.039870235 534.662158998 478.849179076 534.662158998 514.319047063 c 0
 534.662158998 577.740097167 507.414991811 617.696680566 472.747520007 631.844589257 c 0
 460.370441985 636.8957153 445.34706292 640 427 640 c 0
 376.545263816 640 315.490803991 614.51549341 257.411035939 571.539392229 c 1
 263.698526009 574.437766674 270.449223873 575.999999783 277 576 c 2
 383 576 l 2
 397.006169429 576 411.673658581 574.317819626 426.628881591 568.396669214 c 0
 437.514133492 564.086923131 448.727348713 557.219905453 457.988479415 547.033862864 c 0
 473.153992937 530.353764983 478.890451185 510.56297738 478.890451185 490.371773253 c 0
 478.890451185 471.080028736 473.653694426 451.422747881 466.400951282 433.763895009 c 0
 445.965981129 384.00918507 411.306317291 352.820463064 373.414334229 338.088574524 c 1
 363.878017592 204.580141601 l 2
 363.417376249 198.131162799 361.642450064 192.039214439 358.837089922 186.550220127 c 1
 418.940141945 237.99482499 473.233905843 307.761853031 505.625842521 386.301206192 c 0
EndSplineSet
EndChar

StartChar: brokenbar
Encoding: 166 166 194
Width: 230
VWidth: 0
Flags: HW
LayerCount: 2
Fore
SplineSet
93.2539540414 316.393616229 m 0
 111.625733512 308.839430591 122.910033415 290.559060488 122.910033415 271.60622994 c 0
 122.910033415 265.614146392 121.78210333 259.554846589 119.393616229 253.746045959 c 2
 -5.60638377137 -50.2539540414 l 2
 -13.1605694089 -68.625733512 -31.4409395121 -79.9100334154 -50.3937700601 -79.9100334154 c 0
 -56.3858536085 -79.9100334154 -62.4451534107 -78.7821033301 -68.2539540414 -76.3936162286 c 0
 -86.6268262077 -68.8389812918 -97.90996416 -50.5582606827 -97.90996416 -31.6061443256 c 0
 -97.90996416 -25.6139628004 -96.7820283307 -19.554664191 -94.3936162286 -13.7460459586 c 2
 30.6063837714 290.253954041 l 2
 38.1610187082 308.626826208 56.4417393173 319.90996416 75.3938556744 319.90996416 c 0
 81.3860371996 319.90996416 87.445335809 318.782028331 93.2539540414 316.393616229 c 0
299.378649492 812.342138456 m 0
 317.685802712 804.754305213 328.908926119 786.510741077 328.908926119 767.60580428 c 0
 328.908926119 761.569981243 327.764899116 755.466741308 325.342138456 749.621350508 c 2
 199.342138456 445.621350508 l 2
 191.754305213 427.314197288 173.510741077 416.091073881 154.60580428 416.091073881 c 0
 148.569981243 416.091073881 142.466741308 417.235100884 136.621350508 419.657861544 c 0
 118.313111263 427.246144915 107.091143372 445.490051255 107.091143372 464.394277422 c 0
 107.091143372 470.430201145 108.235176758 476.533441754 110.657861544 482.378649492 c 2
 236.657861544 786.378649492 l 2
 244.246144915 804.686888737 262.490051255 815.908856628 281.394277422 815.908856628 c 0
 287.430201145 815.908856628 293.533441754 814.764823242 299.378649492 812.342138456 c 0
EndSplineSet
EndChar

StartChar: plusminus
Encoding: 177 177 195
Width: 512
VWidth: 0
Flags: HW
LayerCount: 2
Fore
SplineSet
348 56 m 0
 348 29.8555282921 326.146366075 8 300 8 c 2
 -46 8 l 2
 -72.1444717079 8 -94 29.8536339246 -94 56 c 0
 -94 82.1463660754 -72.1444717079 104 -46 104 c 2
 300 104 l 2
 326.146366075 104 348 82.1444717079 348 56 c 0
517 464 m 0
 517 437.855528292 495.146366075 416 469 416 c 2
 327.5684773 416 l 1
 250.344049151 229.625961116 l 2
 242.757455144 211.316415802 224.512527261 200.091032895 205.605819073 200.091032895 c 0
 199.571614577 200.091032895 193.470000435 201.234462335 187.625961116 203.655950849 c 0
 169.315329531 211.242994955 158.091102377 229.488265348 158.091102377 248.394262774 c 0
 158.091102377 254.428567857 159.234538177 260.530182602 161.655950849 266.374038884 c 2
 223.653744923 416 l 1
 123 416 l 2
 96.8555282921 416 75 437.853633925 75 464 c 0
 75 490.146366075 96.8555282921 512 123 512 c 2
 263.4315227 512 l 1
 340.655950849 698.374038884 l 2
 348.242994955 716.684670469 366.488265348 727.908897623 385.394262774 727.908897623 c 0
 391.428567857 727.908897623 397.530182602 726.765461823 403.374038884 724.344049151 c 0
 421.683584198 716.757455144 432.908967105 698.512527261 432.908967105 679.605819073 c 0
 432.908967105 673.571614577 431.765537665 667.470000435 429.344049151 661.625961116 c 2
 367.346255077 512 l 1
 469 512 l 2
 495.146366075 512 517 490.144471708 517 464 c 0
EndSplineSet
EndChar

